<?xml version="1.0" encoding="UTF-8"?> <svg xmlns="http://www.w3.org/2000/svg" width="138" height="14" viewBox="0 0 138 14" fill="none"><path d="M9.13421 7.18605L9.17021 6.97005H9.94421C10.2922 6.43005 10.6462 5.88405 11.0062 5.33205C11.3782 4.78005 11.7802 4.26405 12.2122 3.78405C12.6562 3.29205 13.1422 2.86005 13.6702 2.48805C14.2102 2.10405 14.8102 1.82805 15.4702 1.66005V1.62405C15.1582 1.62405 14.8402 1.62405 14.5162 1.62405C14.1922 1.61205 13.8382 1.60005 13.4542 1.58805C13.0822 1.57605 12.6622 1.57005 12.1942 1.57005C11.7382 1.55805 11.2162 1.55205 10.6282 1.55205C9.44021 1.55205 8.36021 1.65405 7.38821 1.85805C6.41621 2.06205 5.58221 2.35005 4.88621 2.72205C4.20221 3.09405 3.66821 3.53205 3.28421 4.03605C2.90021 4.52805 2.69621 5.07405 2.67221 5.67405C2.64821 6.25005 2.85221 6.71205 3.28421 7.06005C3.72821 7.39605 4.32821 7.56405 5.08421 7.56405C5.57621 7.56405 6.08021 7.48605 6.59621 7.33005C7.11221 7.16205 7.58021 6.93405 8.00021 6.64605C8.42021 6.34605 8.76221 5.99205 9.02621 5.58405C9.30221 5.17605 9.44021 4.73205 9.44021 4.25205C9.44021 4.04805 9.42221 3.86805 9.38621 3.71205C9.35021 3.54405 9.31421 3.39405 9.27821 3.26205L9.45821 3.22605C9.59021 3.56205 9.65621 3.91005 9.65621 4.27005C9.65621 4.70205 9.53021 5.12805 9.27821 5.54805C9.02621 5.96805 8.69021 6.34605 8.27021 6.68205C7.85021 7.00605 7.35821 7.27005 6.79421 7.47405C6.24221 7.67805 5.66621 7.78005 5.06621 7.78005C4.26221 7.78005 3.62621 7.60005 3.15821 7.24005C2.69021 6.88005 2.45621 6.37605 2.45621 5.72805C2.45621 5.06805 2.67821 4.43805 3.12221 3.83805C3.57821 3.22605 4.23221 2.68605 5.08421 2.21805C5.93621 1.75005 6.98021 1.37805 8.21621 1.10205C9.46421 0.826046 10.8802 0.688046 12.4642 0.688046C13.5202 0.688046 14.4382 0.700046 15.2182 0.724046C16.0102 0.748046 16.5982 0.760046 16.9822 0.760046C17.2582 0.760046 17.5042 0.748046 17.7202 0.724046C17.9482 0.700046 18.1522 0.688046 18.3322 0.688046C18.5722 0.688046 18.7762 0.706046 18.9442 0.742046C19.1122 0.766046 19.1962 0.868046 19.1962 1.04805C19.1962 1.20405 19.1662 1.32405 19.1062 1.40805C19.0462 1.49205 18.8962 1.55205 18.6562 1.58805C18.4282 1.62405 18.0862 1.64805 17.6302 1.66005C17.1742 1.66005 16.5562 1.66005 15.7762 1.66005C15.0802 1.91205 14.4982 2.24805 14.0302 2.66805C13.5622 3.07605 13.1542 3.52605 12.8062 4.01805C12.4702 4.49805 12.1642 4.99605 11.8882 5.51205C11.6242 6.01605 11.3302 6.49005 11.0062 6.93405C11.1502 6.91005 11.3302 6.89205 11.5462 6.88005C11.7742 6.86805 11.9962 6.85005 12.2122 6.82605C12.4282 6.80205 12.6262 6.77205 12.8062 6.73605C12.9862 6.70005 13.1002 6.64605 13.1482 6.57405C13.2562 6.43005 13.3822 6.28605 13.5262 6.14205C13.6822 5.99805 13.8862 5.92605 14.1382 5.92605C14.2942 5.92605 14.4442 5.95005 14.5882 5.99805C14.0962 6.41805 13.6342 6.87405 13.2022 7.36605C12.7702 7.84605 12.3802 8.36205 12.0322 8.91405L11.9242 8.86005C12.0442 8.52405 12.1882 8.20605 12.3562 7.90605C12.5242 7.59405 12.6922 7.28205 12.8602 6.97005C12.7042 6.99405 12.5302 7.01805 12.3382 7.04205C12.1582 7.05405 11.9782 7.07205 11.7982 7.09605C11.6182 7.10805 11.4502 7.12005 11.2942 7.13205C11.1382 7.14405 11.0122 7.15605 10.9162 7.16805C10.4842 7.88805 10.0162 8.60205 9.51221 9.31005C9.02021 10.018 8.46821 10.66 7.85621 11.236C7.24421 11.8 6.56021 12.262 5.80421 12.622C5.04821 12.97 4.19621 13.144 3.24821 13.144C2.92421 13.144 2.57621 13.102 2.20421 13.018C1.84421 12.934 1.50821 12.802 1.19621 12.622C0.884211 12.442 0.626211 12.214 0.422211 11.938C0.218211 11.662 0.116211 11.332 0.116211 10.948C0.116211 10.708 0.182211 10.486 0.314211 10.282C0.458211 10.078 0.662211 9.97605 0.926211 9.97605C1.11821 9.97605 1.26221 10.036 1.35821 10.156C1.46621 10.276 1.52021 10.426 1.52021 10.606C1.52021 10.774 1.47821 10.924 1.39421 11.056C1.31021 11.176 1.18421 11.236 1.01621 11.236C0.944211 11.236 0.884211 11.23 0.836211 11.218C0.836211 11.254 0.848211 11.368 0.872211 11.56C0.908211 11.74 1.00421 11.932 1.16021 12.136C1.31621 12.34 1.56221 12.526 1.89821 12.694C2.24621 12.85 2.72621 12.928 3.33821 12.928C4.11821 12.928 4.83221 12.736 5.48021 12.352C6.12821 11.956 6.71621 11.47 7.24421 10.894C7.77221 10.318 8.24621 9.69405 8.66621 9.02205C9.09821 8.35005 9.48821 7.73805 9.83621 7.18605H9.13421Z" fill="#EAE1D9"></path><path d="M17.006 6.80805L14.72 10.138L14.756 10.174C14.924 9.97005 15.134 9.73605 15.386 9.47205C15.65 9.19605 15.932 8.92005 16.232 8.64405C16.544 8.35605 16.868 8.07405 17.204 7.79805C17.54 7.52205 17.87 7.27605 18.194 7.06005C18.254 6.94005 18.32 6.84405 18.392 6.77205C18.464 6.70005 18.608 6.66405 18.824 6.66405C18.956 6.66405 19.07 6.67005 19.166 6.68205C19.274 6.68205 19.382 6.68805 19.49 6.70005C19.286 6.90405 19.088 7.15605 18.896 7.45605C18.704 7.74405 18.608 8.06205 18.608 8.41005C18.608 8.68605 18.674 8.90205 18.806 9.05805C18.95 9.21405 19.124 9.29205 19.328 9.29205C19.508 9.29205 19.682 9.25605 19.85 9.18405C20.03 9.11205 20.198 9.02205 20.354 8.91405C20.51 8.80605 20.66 8.69205 20.804 8.57205C20.948 8.45205 21.074 8.34405 21.182 8.24805L21.29 8.32005C21.17 8.44005 21.032 8.57205 20.876 8.71605C20.72 8.84805 20.552 8.97405 20.372 9.09405C20.192 9.21405 20 9.31605 19.796 9.40005C19.592 9.47205 19.382 9.50805 19.166 9.50805C18.782 9.50805 18.47 9.39405 18.23 9.16605C18.002 8.92605 17.888 8.59605 17.888 8.17605C17.888 7.88805 17.954 7.63005 18.086 7.40205L18.05 7.36605C17.558 7.70205 17.018 8.14605 16.43 8.69805C15.842 9.23805 15.218 9.88005 14.558 10.624C14.318 10.888 14.066 11.236 13.802 11.668C13.55 12.1 13.328 12.544 13.136 13H11.966C12.614 11.968 13.262 10.942 13.91 9.92205C14.558 8.90205 15.224 7.86405 15.908 6.80805H17.006Z" fill="#EAE1D9"></path><path d="M29.2461 8.44605C28.9581 8.77005 28.6341 9.02805 28.2741 9.22005C27.9141 9.41205 27.5601 9.50805 27.2121 9.50805C26.8761 9.50805 26.5881 9.43605 26.3481 9.29205C26.1081 9.13605 25.9221 8.95605 25.7901 8.75205H25.7541C25.6341 9.20805 25.4121 9.69405 25.0881 10.21C24.7641 10.726 24.3741 11.2 23.9181 11.632C23.4741 12.064 22.9821 12.424 22.4421 12.712C21.9021 13 21.3501 13.144 20.7861 13.144C20.2701 13.144 19.8801 12.994 19.6161 12.694C19.3521 12.394 19.2201 11.992 19.2201 11.488C19.2201 11.224 19.2861 10.918 19.4181 10.57C19.5501 10.222 19.7301 9.87405 19.9581 9.52605C20.1981 9.16605 20.4741 8.81805 20.7861 8.48205C21.1101 8.13405 21.4581 7.82805 21.8301 7.56405C22.2021 7.28805 22.5921 7.07205 23.0001 6.91605C23.4201 6.74805 23.8401 6.66405 24.2601 6.66405C24.7521 6.66405 25.1301 6.80805 25.3941 7.09605C25.6701 7.38405 25.8201 7.75605 25.8441 8.21205C25.8681 8.48805 25.9941 8.74605 26.2221 8.98605C26.4621 9.21405 26.7861 9.32805 27.1941 9.32805C27.5541 9.32805 27.8901 9.23805 28.2021 9.05805C28.5261 8.87805 28.8261 8.64405 29.1021 8.35605L29.2461 8.44605ZM20.1921 11.92C20.1921 12.232 20.2521 12.478 20.3721 12.658C20.4921 12.838 20.6721 12.928 20.9121 12.928C21.2361 12.928 21.5541 12.844 21.8661 12.676C22.1901 12.496 22.4961 12.268 22.7841 11.992C23.0841 11.704 23.3601 11.38 23.6121 11.02C23.8641 10.66 24.0801 10.288 24.2601 9.90405C24.4521 9.52005 24.6021 9.14805 24.7101 8.78805C24.8181 8.41605 24.8721 8.08005 24.8721 7.78005C24.8721 7.52805 24.8061 7.31805 24.6741 7.15005C24.5541 6.97005 24.3621 6.88005 24.0981 6.88005C23.8461 6.88005 23.5761 6.96405 23.2881 7.13205C23.0001 7.28805 22.7061 7.49805 22.4061 7.76205C22.1181 8.02605 21.8421 8.33205 21.5781 8.68005C21.3141 9.02805 21.0741 9.38805 20.8581 9.76005C20.6541 10.132 20.4921 10.504 20.3721 10.876C20.2521 11.248 20.1921 11.596 20.1921 11.92Z" fill="#EAE1D9"></path><path d="M25.9582 13C26.2222 12.556 26.5282 12.07 26.8762 11.542C27.2122 11.014 27.5542 10.48 27.9022 9.94005C28.2622 9.38805 28.6102 8.84805 28.9462 8.32005C29.2942 7.78005 29.6062 7.27605 29.8822 6.80805H30.9802L28.6042 10.156L28.6402 10.192C28.8682 9.91605 29.1442 9.58005 29.4682 9.18405C29.7922 8.77605 30.1462 8.38605 30.5302 8.01405C30.9262 7.64205 31.3462 7.32405 31.7902 7.06005C32.2342 6.79605 32.6902 6.66405 33.1582 6.66405C33.4462 6.66405 33.6802 6.74205 33.8602 6.89805C34.0522 7.04205 34.1482 7.25805 34.1482 7.54605C34.1482 7.71405 34.0882 7.91805 33.9682 8.15805C33.8482 8.39805 33.7042 8.64405 33.5362 8.89605C33.3802 9.13605 33.2182 9.37005 33.0502 9.59805C32.8822 9.82605 32.7502 10.012 32.6542 10.156L32.6902 10.192C32.9422 9.83205 33.2422 9.44805 33.5902 9.04005C33.9502 8.63205 34.3282 8.25405 34.7242 7.90605C35.1322 7.54605 35.5462 7.25205 35.9662 7.02405C36.3982 6.78405 36.8122 6.66405 37.2082 6.66405C37.5562 6.66405 37.8142 6.74805 37.9822 6.91605C38.1622 7.08405 38.2522 7.31805 38.2522 7.61805C38.2522 7.82205 38.1802 8.06205 38.0362 8.33805C37.9042 8.61405 37.7302 8.90805 37.5142 9.22005C37.3102 9.52005 37.0882 9.82605 36.8482 10.138C36.6082 10.45 36.3802 10.75 36.1642 11.038C35.9602 11.326 35.7862 11.596 35.6422 11.848C35.5102 12.088 35.4442 12.292 35.4442 12.46C35.4442 12.604 35.4862 12.718 35.5702 12.802C35.6662 12.886 35.7802 12.928 35.9122 12.928C36.2002 12.928 36.5362 12.814 36.9202 12.586C37.3162 12.358 37.7362 12.04 38.1802 11.632C38.6362 11.224 39.1102 10.738 39.6022 10.174C40.0942 9.59805 40.5922 8.96805 41.0962 8.28405L41.2402 8.35605C40.7482 9.02805 40.2562 9.65805 39.7642 10.246C39.2722 10.822 38.7922 11.326 38.3242 11.758C37.8682 12.19 37.4242 12.532 36.9922 12.784C36.5722 13.024 36.1822 13.144 35.8222 13.144C35.4502 13.144 35.1742 13.042 34.9942 12.838C34.8142 12.622 34.7242 12.358 34.7242 12.046C34.7242 11.818 34.7902 11.566 34.9222 11.29C35.0662 11.002 35.2402 10.708 35.4442 10.408C35.6602 10.108 35.8882 9.80805 36.1282 9.50805C36.3682 9.20805 36.5902 8.92005 36.7942 8.64405C37.0102 8.36805 37.1842 8.11605 37.3162 7.88805C37.4602 7.66005 37.5322 7.47405 37.5322 7.33005C37.5322 7.16205 37.4842 7.04805 37.3882 6.98805C37.3042 6.91605 37.1962 6.88005 37.0642 6.88005C36.8242 6.88005 36.5422 6.96405 36.2182 7.13205C35.8942 7.28805 35.5522 7.51605 35.1922 7.81605C34.8442 8.10405 34.4842 8.44605 34.1122 8.84205C33.7402 9.22605 33.3742 9.64605 33.0142 10.102C32.6662 10.546 32.3362 11.02 32.0242 11.524C31.7122 12.016 31.4422 12.508 31.2142 13H30.0622C30.3982 12.4 30.7582 11.8 31.1422 11.2C31.5382 10.6 31.9042 10.048 32.2402 9.54405C32.5762 9.02805 32.8582 8.58405 33.0862 8.21205C33.3142 7.82805 33.4282 7.54605 33.4282 7.36605C33.4282 7.04205 33.2602 6.88005 32.9242 6.88005C32.6242 6.88005 32.2882 6.99405 31.9162 7.22205C31.5442 7.43805 31.1662 7.72605 30.7822 8.08605C30.3982 8.43405 30.0202 8.83605 29.6482 9.29205C29.2762 9.73605 28.9222 10.186 28.5862 10.642C28.2622 11.098 27.9742 11.536 27.7222 11.956C27.4702 12.364 27.2722 12.712 27.1282 13H25.9582Z" fill="#EAE1D9"></path><path d="M55.694 0.544046C55.226 1.28805 54.716 2.07405 54.164 2.90205C53.612 3.73005 53.06 4.55205 52.508 5.36805C51.956 6.18405 51.422 6.97605 50.906 7.74405C50.402 8.50005 49.952 9.19605 49.556 9.83205C49.16 10.468 48.842 11.02 48.602 11.488C48.374 11.944 48.26 12.28 48.26 12.496C48.26 12.628 48.29 12.736 48.35 12.82C48.422 12.892 48.524 12.928 48.656 12.928C48.956 12.928 49.298 12.808 49.682 12.568C50.066 12.328 50.528 11.95 51.068 11.434C51.536 10.978 51.992 10.474 52.436 9.92205C52.88 9.35805 53.264 8.80605 53.588 8.26605L53.732 8.33805C53.624 8.53005 53.48 8.75805 53.3 9.02205C53.132 9.27405 52.94 9.53805 52.724 9.81405C52.52 10.09 52.298 10.372 52.058 10.66C51.818 10.936 51.572 11.2 51.32 11.452C50.84 11.944 50.366 12.352 49.898 12.676C49.43 12.988 48.998 13.144 48.602 13.144C48.218 13.144 47.93 13.066 47.738 12.91C47.558 12.742 47.468 12.532 47.468 12.28C47.468 12.052 47.516 11.83 47.612 11.614C47.708 11.398 47.804 11.206 47.9 11.038L47.864 11.02C47.672 11.236 47.456 11.47 47.216 11.722C46.988 11.962 46.742 12.19 46.478 12.406C46.214 12.622 45.932 12.802 45.632 12.946C45.344 13.078 45.044 13.144 44.732 13.144C44.3 13.144 43.964 13.012 43.724 12.748C43.496 12.484 43.382 12.172 43.382 11.812C43.382 11.308 43.556 10.756 43.904 10.156C44.252 9.55605 44.684 8.99805 45.2 8.48205C45.728 7.96605 46.292 7.53405 46.892 7.18605C47.492 6.83805 48.05 6.66405 48.566 6.66405C48.95 6.66405 49.256 6.78405 49.484 7.02405C49.712 7.26405 49.82 7.57005 49.808 7.94205H49.862L54.506 0.544046H55.694ZM49.304 7.96005C49.304 7.67205 49.256 7.42005 49.16 7.20405C49.064 6.98805 48.842 6.88005 48.494 6.88005C48.254 6.88005 47.984 6.96405 47.684 7.13205C47.396 7.30005 47.102 7.52205 46.802 7.79805C46.502 8.07405 46.208 8.39205 45.92 8.75205C45.644 9.10005 45.398 9.46005 45.182 9.83205C44.966 10.192 44.792 10.546 44.66 10.894C44.528 11.242 44.462 11.554 44.462 11.83C44.462 12.082 44.51 12.292 44.606 12.46C44.702 12.628 44.876 12.712 45.128 12.712C45.344 12.712 45.59 12.628 45.866 12.46C46.154 12.292 46.454 12.076 46.766 11.812C47.078 11.536 47.384 11.224 47.684 10.876C47.984 10.528 48.254 10.18 48.494 9.83205C48.734 9.48405 48.926 9.14805 49.07 8.82405C49.226 8.48805 49.304 8.20005 49.304 7.96005Z" fill="#EAE1D9"></path><path d="M55.6821 6.80805C55.2141 7.44405 54.7641 8.05005 54.3321 8.62605C53.9001 9.20205 53.5161 9.73005 53.1801 10.21C52.8441 10.69 52.5741 11.11 52.3701 11.47C52.1781 11.818 52.0821 12.094 52.0821 12.298C52.0821 12.49 52.1301 12.634 52.2261 12.73C52.3221 12.814 52.4481 12.856 52.6041 12.856C52.8321 12.856 53.0781 12.784 53.3421 12.64C53.6181 12.496 53.8941 12.31 54.1701 12.082C54.4581 11.854 54.7341 11.602 54.9981 11.326C55.2741 11.05 55.5261 10.78 55.7541 10.516C55.9941 10.24 56.1981 9.98805 56.3661 9.76005C56.5461 9.53205 56.6781 9.35205 56.7621 9.22005L58.3461 6.80805H59.5881C58.9401 7.69605 58.3881 8.45205 57.9321 9.07605C57.4881 9.68805 57.1221 10.21 56.8341 10.642C56.5581 11.074 56.3601 11.428 56.2401 11.704C56.1201 11.968 56.0601 12.202 56.0601 12.406C56.0601 12.55 56.1021 12.676 56.1861 12.784C56.2701 12.88 56.3901 12.928 56.5461 12.928C56.7861 12.928 57.0621 12.844 57.3741 12.676C57.6861 12.496 58.0101 12.268 58.3461 11.992C58.6821 11.704 59.0121 11.386 59.3361 11.038C59.6721 10.678 59.9841 10.324 60.2721 9.97605C60.5721 9.62805 60.8421 9.30405 61.0821 9.00405C61.3221 8.69205 61.5081 8.44005 61.6401 8.24805L61.8201 8.30205C61.6761 8.50605 61.4841 8.77005 61.2441 9.09405C61.0041 9.40605 60.7341 9.74205 60.4341 10.102C60.1341 10.45 59.8161 10.81 59.4801 11.182C59.1441 11.542 58.7961 11.866 58.4361 12.154C58.0881 12.442 57.7401 12.682 57.3921 12.874C57.0561 13.054 56.7381 13.144 56.4381 13.144C56.1021 13.144 55.8321 13.054 55.6281 12.874C55.4361 12.682 55.3401 12.43 55.3401 12.118C55.3401 11.878 55.3761 11.65 55.4481 11.434C55.5321 11.206 55.5921 11.062 55.6281 11.002L55.5921 10.966C55.3401 11.254 55.0761 11.53 54.8001 11.794C54.5241 12.058 54.2481 12.292 53.9721 12.496C53.6961 12.688 53.4141 12.844 53.1261 12.964C52.8501 13.084 52.5741 13.144 52.2981 13.144C51.9141 13.144 51.6381 13.06 51.4701 12.892C51.3021 12.712 51.2181 12.502 51.2181 12.262C51.2181 11.962 51.3021 11.638 51.4701 11.29C51.6261 10.942 51.8481 10.552 52.1361 10.12C52.4241 9.68805 52.7661 9.20205 53.1621 8.66205C53.5701 8.12205 54.0141 7.50405 54.4941 6.80805H55.6821Z" fill="#EAE1D9"></path><path d="M67.7661 8.35605C67.4061 8.93205 66.9861 9.50805 66.5061 10.084C66.0381 10.648 65.5221 11.158 64.9581 11.614C64.3941 12.07 63.7761 12.442 63.1041 12.73C62.4441 13.006 61.7361 13.144 60.9801 13.144C60.6921 13.144 60.4221 13.108 60.1701 13.036C59.9181 12.964 59.6961 12.856 59.5041 12.712C59.3241 12.568 59.1801 12.388 59.0721 12.172C58.9521 11.944 58.8921 11.68 58.8921 11.38C58.8921 11.068 58.9941 10.786 59.1981 10.534C59.4021 10.282 59.6781 10.156 60.0261 10.156C60.2061 10.156 60.3501 10.204 60.4581 10.3C60.5781 10.384 60.6381 10.516 60.6381 10.696C60.6381 10.864 60.5961 11.008 60.5121 11.128C60.4281 11.248 60.3021 11.308 60.1341 11.308C60.0021 11.308 59.8941 11.272 59.8101 11.2C59.7381 11.128 59.6901 11.038 59.6661 10.93C59.5341 11.002 59.4441 11.11 59.3961 11.254C59.3481 11.386 59.3241 11.524 59.3241 11.668C59.3241 12.088 59.4801 12.406 59.7921 12.622C60.1161 12.826 60.4761 12.928 60.8721 12.928C61.1241 12.928 61.3401 12.88 61.5201 12.784C61.7121 12.676 61.8681 12.544 61.9881 12.388C62.1201 12.22 62.2161 12.028 62.2761 11.812C62.3361 11.596 62.3661 11.38 62.3661 11.164C62.3661 10.936 62.3241 10.702 62.2401 10.462C62.1681 10.21 62.0841 9.96405 61.9881 9.72405C61.8921 9.48405 61.8021 9.25005 61.7181 9.02205C61.6341 8.78205 61.5921 8.56005 61.5921 8.35605C61.5921 8.09205 61.6461 7.85805 61.7541 7.65405C61.8621 7.43805 62.0061 7.25805 62.1861 7.11405C62.3781 6.97005 62.5941 6.86205 62.8341 6.79005C63.0741 6.70605 63.3261 6.66405 63.5901 6.66405C64.0701 6.66405 64.4601 6.77205 64.7601 6.98805C65.0601 7.19205 65.2101 7.46805 65.2101 7.81605C65.2101 8.12805 65.0901 8.35605 64.8501 8.50005C64.6221 8.64405 64.3641 8.71605 64.0761 8.71605C64.1481 8.58405 64.2081 8.42805 64.2561 8.24805C64.3161 8.05605 64.3461 7.88205 64.3461 7.72605C64.3461 7.48605 64.2681 7.28805 64.1121 7.13205C63.9681 6.96405 63.7581 6.88005 63.4821 6.88005C63.1341 6.88005 62.8761 6.98805 62.7081 7.20405C62.5401 7.40805 62.4561 7.66005 62.4561 7.96005C62.4561 8.22405 62.4981 8.47605 62.5821 8.71605C62.6781 8.95605 62.7861 9.19605 62.9061 9.43605C63.0141 9.67605 63.1101 9.92205 63.1941 10.174C63.2901 10.426 63.3381 10.708 63.3381 11.02C63.3381 11.248 63.2841 11.47 63.1761 11.686C63.0801 11.89 62.9481 12.082 62.7801 12.262C62.6121 12.43 62.4201 12.574 62.2041 12.694C62.0001 12.814 61.7901 12.892 61.5741 12.928L61.6101 12.964C62.2581 12.892 62.8761 12.706 63.4641 12.406C64.0521 12.094 64.5981 11.722 65.1021 11.29C65.6181 10.846 66.0921 10.366 66.5241 9.85005C66.9561 9.32205 67.3341 8.80605 67.6581 8.30205L67.7661 8.35605Z" fill="#EAE1D9"></path><path d="M73.5263 0.544046C72.5423 2.10405 71.5583 3.64005 70.5743 5.15205C69.5903 6.65205 68.5703 8.13405 67.5143 9.59805L67.5503 9.63405C67.8623 9.28605 68.1683 8.93805 68.4683 8.59005C68.7803 8.23005 69.0983 7.91205 69.4223 7.63605C69.7583 7.34805 70.1003 7.11405 70.4483 6.93405C70.8083 6.75405 71.1803 6.66405 71.5643 6.66405C71.9603 6.66405 72.2423 6.76005 72.4103 6.95205C72.5903 7.14405 72.6803 7.37805 72.6803 7.65405C72.6803 7.94205 72.5903 8.20005 72.4103 8.42805C72.2423 8.64405 72.0263 8.83605 71.7623 9.00405C71.5103 9.16005 71.2283 9.28605 70.9163 9.38205C70.6163 9.47805 70.3403 9.55005 70.0883 9.59805V9.63405C70.2323 9.70605 70.3523 9.84405 70.4483 10.048C70.5563 10.24 70.6103 10.444 70.6103 10.66C70.6103 10.804 70.5803 10.954 70.5203 11.11C70.4723 11.266 70.4123 11.428 70.3403 11.596C70.2683 11.764 70.2023 11.932 70.1423 12.1C70.0943 12.256 70.0703 12.418 70.0703 12.586C70.0703 12.814 70.1663 12.928 70.3583 12.928C70.6823 12.928 71.0903 12.784 71.5823 12.496C72.0743 12.208 72.5963 11.788 73.1483 11.236C73.5323 10.852 73.9223 10.426 74.3183 9.95805C74.7143 9.49005 75.1403 8.92605 75.5963 8.26605L75.7583 8.37405C75.5303 8.69805 75.1943 9.14205 74.7503 9.70605C74.3183 10.27 73.8083 10.846 73.2203 11.434C72.6563 11.998 72.1223 12.424 71.6183 12.712C71.1143 13 70.6523 13.144 70.2323 13.144C69.8723 13.144 69.5903 13.066 69.3863 12.91C69.1943 12.754 69.0983 12.514 69.0983 12.19C69.0983 12.022 69.1403 11.836 69.2243 11.632C69.3083 11.416 69.3983 11.212 69.4943 11.02C69.5903 10.816 69.6803 10.63 69.7643 10.462C69.8483 10.282 69.8903 10.138 69.8903 10.03C69.8903 9.80205 69.7883 9.68805 69.5843 9.68805C69.4643 9.68805 69.3203 9.71205 69.1523 9.76005C68.9963 9.80805 68.8163 9.83205 68.6123 9.83205C68.4323 9.83205 68.3423 9.77805 68.3423 9.67005C68.3423 9.56205 68.4323 9.50805 68.6123 9.50805C68.6843 9.50805 68.7623 9.51405 68.8463 9.52605C68.9423 9.53805 69.0563 9.54405 69.1883 9.54405C69.5483 9.54405 69.8783 9.50205 70.1783 9.41805C70.4903 9.33405 70.7603 9.21405 70.9883 9.05805C71.2163 8.89005 71.3903 8.69205 71.5103 8.46405C71.6423 8.23605 71.7083 7.97805 71.7083 7.69005C71.7083 7.43805 71.6483 7.25205 71.5283 7.13205C71.4083 7.01205 71.2643 6.95205 71.0963 6.95205C70.8683 6.95205 70.6043 7.04805 70.3043 7.24005C70.0043 7.42005 69.6803 7.67205 69.3323 7.99605C68.9963 8.30805 68.6483 8.67405 68.2883 9.09405C67.9403 9.50205 67.5983 9.93405 67.2623 10.39C66.9383 10.834 66.6323 11.284 66.3443 11.74C66.0563 12.184 65.8103 12.604 65.6063 13H64.4183C65.7503 10.924 67.0763 8.86605 68.3963 6.82605C69.7283 4.77405 71.0663 2.69805 72.4103 0.598046L73.5263 0.544046Z" fill="#EAE1D9"></path><path d="M83.3243 4.72005L81.9023 6.80805H84.2783L84.1703 7.02405H81.7583C81.2783 7.80405 80.8463 8.48205 80.4623 9.05805C80.0903 9.62205 79.7723 10.114 79.5083 10.534C79.2563 10.942 79.0643 11.29 78.9323 11.578C78.8003 11.854 78.7343 12.1 78.7343 12.316C78.7343 12.544 78.8123 12.706 78.9683 12.802C79.1243 12.886 79.3043 12.928 79.5083 12.928C79.9403 12.928 80.4143 12.766 80.9303 12.442C81.4583 12.106 81.9803 11.698 82.4963 11.218C83.0123 10.738 83.5043 10.228 83.9723 9.68805C84.4403 9.14805 84.8363 8.66205 85.1603 8.23005L85.2683 8.30205C84.8603 8.81805 84.4103 9.36405 83.9183 9.94005C83.4383 10.504 82.9403 11.026 82.4243 11.506C81.9083 11.974 81.3863 12.364 80.8583 12.676C80.3423 12.988 79.8503 13.144 79.3823 13.144C79.0103 13.144 78.6863 13.03 78.4103 12.802C78.1463 12.574 78.0143 12.256 78.0143 11.848C78.0143 11.572 78.0923 11.266 78.2483 10.93C78.4043 10.582 78.6083 10.21 78.8603 9.81405C79.1123 9.41805 79.3943 8.98605 79.7063 8.51805C80.0303 8.05005 80.3603 7.55205 80.6963 7.02405H79.7243L79.8323 6.80805H80.8403L82.2443 4.72005H83.3243Z" fill="#EAE1D9"></path><path d="M87.1821 6.80805C86.5221 7.75605 85.9641 8.55405 85.5081 9.20205C85.0521 9.85005 84.6801 10.39 84.3921 10.822C84.1161 11.254 83.9121 11.596 83.7801 11.848C83.6601 12.1 83.6001 12.304 83.6001 12.46C83.6001 12.772 83.7261 12.928 83.9781 12.928C84.2181 12.928 84.4941 12.844 84.8061 12.676C85.1301 12.496 85.4661 12.268 85.8141 11.992C86.1621 11.716 86.5101 11.404 86.8581 11.056C87.2061 10.708 87.5301 10.366 87.8301 10.03C88.1421 9.68205 88.4121 9.35205 88.6401 9.04005C88.8801 8.71605 89.0541 8.45205 89.1621 8.24805L89.3061 8.33805C89.1621 8.57805 88.9641 8.86605 88.7121 9.20205C88.4721 9.53805 88.1961 9.88605 87.8841 10.246C87.5721 10.594 87.2421 10.942 86.8941 11.29C86.5461 11.638 86.1921 11.95 85.8321 12.226C85.4721 12.502 85.1181 12.724 84.7701 12.892C84.4341 13.06 84.1221 13.144 83.8341 13.144C83.5101 13.144 83.2701 13.054 83.1141 12.874C82.9581 12.694 82.8801 12.496 82.8801 12.28C82.8801 12.028 82.9341 11.764 83.0421 11.488C83.1621 11.2 83.3481 10.852 83.6001 10.444C83.8521 10.036 84.1761 9.54405 84.5721 8.96805C84.9801 8.38005 85.4661 7.66005 86.0301 6.80805H87.1821ZM88.2261 3.46005C88.3941 3.46005 88.5321 3.52005 88.6401 3.64005C88.7481 3.74805 88.8021 3.88605 88.8021 4.05405C88.8021 4.22205 88.7481 4.36605 88.6401 4.48605C88.5321 4.59405 88.3941 4.64805 88.2261 4.64805C88.0581 4.64805 87.9201 4.59405 87.8121 4.48605C87.7041 4.36605 87.6501 4.22205 87.6501 4.05405C87.6501 3.88605 87.7041 3.74805 87.8121 3.64005C87.9201 3.52005 88.0581 3.46005 88.2261 3.46005Z" fill="#EAE1D9"></path><path d="M95.1863 0.472046C94.1183 2.09205 93.1883 3.49605 92.3963 4.68405C91.6043 5.86005 90.9263 6.86805 90.3623 7.70805C89.7983 8.54805 89.3363 9.24405 88.9763 9.79605C88.6163 10.336 88.3343 10.78 88.1303 11.128C87.9263 11.476 87.7823 11.752 87.6983 11.956C87.6263 12.16 87.5903 12.334 87.5903 12.478C87.5903 12.778 87.7223 12.928 87.9863 12.928C88.2863 12.928 88.6343 12.808 89.0303 12.568C89.4383 12.316 89.8703 11.98 90.3263 11.56C90.7943 11.128 91.2683 10.63 91.7483 10.066C92.2283 9.49005 92.6963 8.87805 93.1523 8.23005L93.3503 8.30205C92.9183 8.91405 92.4623 9.50805 91.9823 10.084C91.5023 10.648 91.0403 11.14 90.5963 11.56C90.0083 12.112 89.4983 12.514 89.0663 12.766C88.6463 13.018 88.2623 13.144 87.9143 13.144C87.5423 13.144 87.2723 13.06 87.1043 12.892C86.9483 12.724 86.8703 12.502 86.8703 12.226C86.8703 11.974 86.9123 11.716 86.9963 11.452C87.0923 11.176 87.2483 10.852 87.4643 10.48C87.6803 10.096 87.9623 9.63405 88.3103 9.09405C88.6703 8.55405 89.1083 7.89405 89.6243 7.11405C90.1523 6.32205 90.7703 5.38605 91.4783 4.30605C92.1863 3.21405 93.0023 1.93605 93.9263 0.472046H95.1863Z" fill="#EAE1D9"></path><path d="M99.1765 0.472046C98.1085 2.09205 97.1785 3.49605 96.3865 4.68405C95.5945 5.86005 94.9165 6.86805 94.3525 7.70805C93.7885 8.54805 93.3265 9.24405 92.9665 9.79605C92.6065 10.336 92.3245 10.78 92.1205 11.128C91.9165 11.476 91.7725 11.752 91.6885 11.956C91.6165 12.16 91.5805 12.334 91.5805 12.478C91.5805 12.778 91.7125 12.928 91.9765 12.928C92.2765 12.928 92.6245 12.808 93.0205 12.568C93.4285 12.316 93.8605 11.98 94.3165 11.56C94.7845 11.128 95.2585 10.63 95.7385 10.066C96.2185 9.49005 96.6865 8.87805 97.1425 8.23005L97.3405 8.30205C96.9085 8.91405 96.4525 9.50805 95.9725 10.084C95.4925 10.648 95.0305 11.14 94.5865 11.56C93.9985 12.112 93.4885 12.514 93.0565 12.766C92.6365 13.018 92.2525 13.144 91.9045 13.144C91.5325 13.144 91.2625 13.06 91.0945 12.892C90.9385 12.724 90.8605 12.502 90.8605 12.226C90.8605 11.974 90.9025 11.716 90.9865 11.452C91.0825 11.176 91.2385 10.852 91.4545 10.48C91.6705 10.096 91.9525 9.63405 92.3005 9.09405C92.6605 8.55405 93.0985 7.89405 93.6145 7.11405C94.1425 6.32205 94.7605 5.38605 95.4685 4.30605C96.1765 3.21405 96.9925 1.93605 97.9165 0.472046H99.1765Z" fill="#EAE1D9"></path><path d="M111.663 0.544046C111.195 1.28805 110.685 2.07405 110.133 2.90205C109.581 3.73005 109.029 4.55205 108.477 5.36805C107.925 6.18405 107.391 6.97605 106.875 7.74405C106.371 8.50005 105.921 9.19605 105.525 9.83205C105.129 10.468 104.811 11.02 104.571 11.488C104.343 11.944 104.229 12.28 104.229 12.496C104.229 12.628 104.259 12.736 104.319 12.82C104.391 12.892 104.493 12.928 104.625 12.928C104.925 12.928 105.267 12.808 105.651 12.568C106.035 12.328 106.497 11.95 107.037 11.434C107.505 10.978 107.961 10.474 108.405 9.92205C108.849 9.35805 109.233 8.80605 109.557 8.26605L109.701 8.33805C109.593 8.53005 109.449 8.75805 109.269 9.02205C109.101 9.27405 108.909 9.53805 108.693 9.81405C108.489 10.09 108.267 10.372 108.027 10.66C107.787 10.936 107.541 11.2 107.289 11.452C106.809 11.944 106.335 12.352 105.867 12.676C105.399 12.988 104.967 13.144 104.571 13.144C104.187 13.144 103.899 13.066 103.707 12.91C103.527 12.742 103.437 12.532 103.437 12.28C103.437 12.052 103.485 11.83 103.581 11.614C103.677 11.398 103.773 11.206 103.869 11.038L103.833 11.02C103.641 11.236 103.425 11.47 103.185 11.722C102.957 11.962 102.711 12.19 102.447 12.406C102.183 12.622 101.901 12.802 101.601 12.946C101.313 13.078 101.013 13.144 100.701 13.144C100.269 13.144 99.9328 13.012 99.6928 12.748C99.4648 12.484 99.3508 12.172 99.3508 11.812C99.3508 11.308 99.5248 10.756 99.8728 10.156C100.221 9.55605 100.653 8.99805 101.169 8.48205C101.697 7.96605 102.261 7.53405 102.861 7.18605C103.461 6.83805 104.019 6.66405 104.535 6.66405C104.919 6.66405 105.225 6.78405 105.453 7.02405C105.681 7.26405 105.789 7.57005 105.777 7.94205H105.831L110.475 0.544046H111.663ZM105.273 7.96005C105.273 7.67205 105.225 7.42005 105.129 7.20405C105.033 6.98805 104.811 6.88005 104.463 6.88005C104.223 6.88005 103.953 6.96405 103.653 7.13205C103.365 7.30005 103.071 7.52205 102.771 7.79805C102.471 8.07405 102.177 8.39205 101.889 8.75205C101.613 9.10005 101.367 9.46005 101.151 9.83205C100.935 10.192 100.761 10.546 100.629 10.894C100.497 11.242 100.431 11.554 100.431 11.83C100.431 12.082 100.479 12.292 100.575 12.46C100.671 12.628 100.845 12.712 101.097 12.712C101.313 12.712 101.559 12.628 101.835 12.46C102.123 12.292 102.423 12.076 102.735 11.812C103.047 11.536 103.353 11.224 103.653 10.876C103.953 10.528 104.223 10.18 104.463 9.83205C104.703 9.48405 104.895 9.14805 105.039 8.82405C105.195 8.48805 105.273 8.20005 105.273 7.96005Z" fill="#EAE1D9"></path><path d="M114.441 6.80805H115.611C115.167 7.43205 114.741 8.03805 114.333 8.62605C113.925 9.21405 113.559 9.76005 113.235 10.264C112.923 10.756 112.671 11.194 112.479 11.578C112.287 11.95 112.191 12.244 112.191 12.46C112.191 12.772 112.353 12.928 112.677 12.928C112.929 12.928 113.247 12.808 113.631 12.568C114.027 12.316 114.453 11.974 114.909 11.542C115.365 11.11 115.833 10.606 116.313 10.03C116.793 9.45405 117.249 8.84205 117.681 8.19405L117.789 8.23005C117.465 8.72205 117.081 9.25605 116.637 9.83205C116.205 10.396 115.749 10.924 115.269 11.416C114.789 11.908 114.309 12.322 113.829 12.658C113.349 12.982 112.899 13.144 112.479 13.144C112.131 13.144 111.873 13.06 111.705 12.892C111.549 12.712 111.471 12.502 111.471 12.262C111.471 12.094 111.495 11.932 111.543 11.776C111.603 11.608 111.663 11.44 111.723 11.272L111.687 11.254C111.531 11.422 111.333 11.62 111.093 11.848C110.865 12.064 110.613 12.268 110.337 12.46C110.073 12.652 109.797 12.814 109.509 12.946C109.221 13.078 108.945 13.144 108.681 13.144C108.237 13.144 107.925 13.006 107.745 12.73C107.565 12.454 107.475 12.142 107.475 11.794C107.475 11.302 107.631 10.762 107.943 10.174C108.255 9.57405 108.651 9.01605 109.131 8.50005C109.611 7.97205 110.133 7.53405 110.697 7.18605C111.261 6.83805 111.795 6.66405 112.299 6.66405C112.539 6.66405 112.749 6.70005 112.929 6.77205C113.109 6.83205 113.259 6.92205 113.379 7.04205C113.499 7.15005 113.589 7.27605 113.649 7.42005C113.721 7.56405 113.775 7.71405 113.811 7.87005H113.847L114.441 6.80805ZM108.555 11.848C108.555 12.124 108.609 12.34 108.717 12.496C108.837 12.64 108.999 12.712 109.203 12.712C109.407 12.712 109.647 12.64 109.923 12.496C110.199 12.34 110.487 12.136 110.787 11.884C111.087 11.632 111.381 11.344 111.669 11.02C111.969 10.684 112.233 10.33 112.461 9.95805C112.689 9.58605 112.875 9.20805 113.019 8.82405C113.163 8.44005 113.235 8.07405 113.235 7.72605C113.235 7.45005 113.157 7.24005 113.001 7.09605C112.845 6.95205 112.653 6.88005 112.425 6.88005C112.065 6.88005 111.663 7.03605 111.219 7.34805C110.775 7.66005 110.355 8.06205 109.959 8.55405C109.563 9.03405 109.227 9.56805 108.951 10.156C108.687 10.744 108.555 11.308 108.555 11.848Z" fill="#EAE1D9"></path><path d="M119.703 6.80805C119.199 7.50405 118.737 8.11605 118.317 8.64405C117.897 9.16005 117.537 9.62805 117.237 10.048C116.937 10.456 116.703 10.834 116.535 11.182C116.379 11.518 116.301 11.848 116.301 12.172C116.301 12.676 116.511 12.928 116.931 12.928C117.327 12.928 117.747 12.754 118.191 12.406C118.635 12.046 119.085 11.578 119.541 11.002C120.009 10.426 120.483 9.77205 120.963 9.04005C121.455 8.30805 121.941 7.56405 122.421 6.80805H123.663C123.447 7.09605 123.165 7.47405 122.817 7.94205C122.481 8.41005 122.145 8.90205 121.809 9.41805C121.473 9.92205 121.185 10.42 120.945 10.912C120.705 11.392 120.585 11.8 120.585 12.136C120.585 12.376 120.645 12.568 120.765 12.712C120.897 12.856 121.083 12.928 121.323 12.928C121.755 12.928 122.211 12.766 122.691 12.442C123.171 12.118 123.615 11.71 124.023 11.218C124.443 10.714 124.797 10.168 125.085 9.58005C125.373 8.99205 125.541 8.44005 125.589 7.92405C125.505 7.80405 125.445 7.68405 125.409 7.56405C125.385 7.44405 125.373 7.33605 125.373 7.24005C125.373 6.85605 125.553 6.66405 125.913 6.66405C126.165 6.66405 126.333 6.77205 126.417 6.98805C126.513 7.20405 126.561 7.46805 126.561 7.78005C126.561 7.93605 126.549 8.09205 126.525 8.24805C126.501 8.39205 126.477 8.53005 126.453 8.66205C126.609 8.80605 126.789 8.94405 126.993 9.07605C127.209 9.19605 127.479 9.25605 127.803 9.25605C128.235 9.25605 128.601 9.17205 128.901 9.00405C129.201 8.82405 129.435 8.57805 129.603 8.26605L129.765 8.37405C129.357 9.10605 128.691 9.47205 127.767 9.47205C127.503 9.47205 127.251 9.42405 127.011 9.32805C126.783 9.22005 126.579 9.08205 126.399 8.91405C126.207 9.41805 125.913 9.92205 125.517 10.426C125.121 10.918 124.677 11.368 124.185 11.776C123.693 12.184 123.177 12.514 122.637 12.766C122.109 13.018 121.611 13.144 121.143 13.144C120.747 13.144 120.411 13.036 120.135 12.82C119.859 12.604 119.721 12.286 119.721 11.866C119.721 11.638 119.751 11.44 119.811 11.272C119.871 11.092 119.913 10.96 119.937 10.876L119.901 10.84C119.661 11.152 119.415 11.452 119.163 11.74C118.911 12.016 118.653 12.262 118.389 12.478C118.137 12.682 117.879 12.844 117.615 12.964C117.351 13.084 117.081 13.144 116.805 13.144C116.349 13.144 116.007 13.03 115.779 12.802C115.551 12.562 115.437 12.244 115.437 11.848C115.437 11.56 115.509 11.26 115.653 10.948C115.797 10.624 116.001 10.264 116.265 9.86805C116.529 9.46005 116.847 9.01005 117.219 8.51805C117.603 8.01405 118.035 7.44405 118.515 6.80805H119.703Z" fill="#EAE1D9"></path><path d="M131.439 6.80805L129.063 10.102L129.099 10.138C129.351 9.83805 129.645 9.49005 129.981 9.09405C130.317 8.68605 130.677 8.30205 131.061 7.94205C131.445 7.58205 131.841 7.28205 132.249 7.04205C132.669 6.79005 133.083 6.66405 133.491 6.66405C133.851 6.66405 134.127 6.76605 134.319 6.97005C134.523 7.16205 134.625 7.41405 134.625 7.72605C134.625 7.91805 134.553 8.14605 134.409 8.41005C134.277 8.67405 134.109 8.95605 133.905 9.25605C133.701 9.55605 133.479 9.86205 133.239 10.174C132.999 10.486 132.777 10.786 132.573 11.074C132.369 11.35 132.195 11.608 132.051 11.848C131.919 12.076 131.853 12.268 131.853 12.424C131.853 12.76 132.021 12.928 132.357 12.928C132.741 12.928 133.149 12.802 133.581 12.55C134.013 12.286 134.529 11.848 135.129 11.236C135.369 10.996 135.609 10.732 135.849 10.444C136.101 10.156 136.341 9.87405 136.569 9.59805C136.797 9.31005 137.001 9.04005 137.181 8.78805C137.373 8.53605 137.523 8.32605 137.631 8.15805L137.757 8.23005C137.517 8.59005 137.205 9.02205 136.821 9.52605C136.449 10.018 136.041 10.504 135.597 10.984C135.333 11.272 135.063 11.548 134.787 11.812C134.511 12.076 134.235 12.31 133.959 12.514C133.683 12.706 133.407 12.862 133.131 12.982C132.867 13.09 132.603 13.144 132.339 13.144C131.991 13.144 131.703 13.048 131.475 12.856C131.247 12.664 131.133 12.4 131.133 12.064C131.133 11.704 131.277 11.314 131.565 10.894C131.853 10.462 132.171 10.03 132.519 9.59805C132.867 9.16605 133.185 8.75205 133.473 8.35605C133.761 7.96005 133.905 7.61205 133.905 7.31205C133.905 7.16805 133.857 7.06005 133.761 6.98805C133.665 6.91605 133.539 6.88005 133.383 6.88005C133.083 6.88005 132.747 6.99405 132.375 7.22205C132.003 7.43805 131.619 7.73205 131.223 8.10405C130.839 8.46405 130.449 8.87205 130.053 9.32805C129.669 9.77205 129.309 10.222 128.973 10.678C128.637 11.122 128.337 11.554 128.073 11.974C127.809 12.382 127.611 12.724 127.479 13H126.363C126.675 12.472 127.011 11.938 127.371 11.398C127.719 10.846 128.067 10.306 128.415 9.77805C128.763 9.23805 129.093 8.72205 129.405 8.23005C129.729 7.72605 130.017 7.27005 130.269 6.86205L131.439 6.80805Z" fill="#EAE1D9"></path></svg> 