<?xml version="1.0" encoding="UTF-8"?> <svg xmlns="http://www.w3.org/2000/svg" width="306" height="277" viewBox="0 0 306 277" fill="none"><path d="M28.7113 117.957C27.9894 118.374 28.3128 119.259 28.521 119.678L42.3124 147.432C42.5206 147.851 43.0303 148.643 43.7985 148.32C45.3118 147.626 45.5675 147.673 45.5675 147.673L46.0303 148.604C44.5404 149.228 43.0968 149.946 41.6532 150.663C40.2096 151.38 38.766 152.098 37.3221 152.931L36.8593 152C36.8593 152 37.0227 151.745 38.4432 150.981C39.1651 150.564 38.8883 149.656 38.6801 149.237L24.8888 121.483C24.5185 120.738 23.8449 120.434 23.0766 120.757C22.7507 120.919 15.067 124.737 14.741 124.899C14.0191 125.316 13.9011 126.014 14.2713 126.759L28.0626 154.513C28.2709 154.932 28.7805 155.724 29.5488 155.4C31.0621 154.706 31.3178 154.754 31.3178 154.754L31.7806 155.685C30.2907 156.309 28.8471 157.026 27.4035 157.744C25.9133 158.484 24.4697 159.202 23.0724 160.012L22.6096 159.081C22.6096 159.081 22.773 158.825 24.1935 158.061C24.9154 157.645 24.6386 156.737 24.4304 156.318L10.639 128.564C10.4308 128.144 9.87456 127.376 9.10634 127.699C7.6396 128.37 7.36048 128.393 7.36048 128.393L6.87455 127.415C7.82904 126.998 28.9708 116.493 29.8324 116.007L30.3184 116.985C30.3184 116.985 30.1784 117.17 28.7113 117.957Z" fill="white"></path><path d="M48.0445 108.392C54.7956 105.959 61.8612 108.388 66.6207 121.597C71.3801 134.805 67.4875 141.183 60.7364 143.615C53.9853 146.048 47.0254 143.913 42.1602 130.411C37.295 116.908 41.2934 110.825 48.0445 108.392ZM60.4896 142.93C64.7946 141.379 67.3175 135.496 62.7696 122.874C58.2393 110.301 52.5963 107.526 48.2913 109.077C43.9862 110.628 41.3047 116.072 45.9408 128.938C50.5944 141.853 56.1845 144.482 60.4896 142.93Z" fill="white"></path><path d="M111.192 128.899L111.917 129.808C109.809 130.149 107.956 132.19 106.278 132.545C105.362 132.74 104.502 132.444 103.63 131.087C96.4044 120.074 93.8305 116.208 93.8305 116.208L92.3163 121.1L94.3655 130.765C94.4626 131.223 94.8093 132.107 95.5831 131.996C97.2217 131.701 97.5084 131.8 97.5084 131.8L97.7241 132.817C96.1256 133.05 94.4978 133.395 92.9208 133.729C91.3439 134.064 89.7669 134.398 88.1607 134.845L87.945 133.828C87.945 133.828 88.167 133.621 89.7332 133.236C90.5363 133.012 90.4948 132.064 90.3977 131.607L88.3485 121.941L84.9793 118.084C84.9793 118.084 84.1957 122.662 82.0611 135.66C81.8143 137.254 81.1483 137.873 80.2327 138.067C78.554 138.423 76.0323 137.31 73.9682 137.854L74.2612 136.729C74.2612 136.729 76.931 136.535 77.9211 132.179L82.0123 114.62L74.8392 106.361C74.4878 105.957 72.2297 103.831 71.4606 103.462C70.0132 102.653 68.3746 102.947 68.3746 102.947L67.5886 101.998C68.9035 101.931 69.8299 101.788 70.4912 101.648C71.5594 101.421 71.934 101.183 71.934 101.183L87.8524 119.601L83.9698 101.289C83.8727 100.831 83.5259 99.9474 82.7013 100.069C81.1135 100.353 80.8376 100.305 80.8376 100.305L80.6111 99.2365C82.2497 98.9423 83.8375 98.6588 85.4144 98.3245C86.9913 97.9901 88.6084 97.5941 90.1745 97.2089L90.401 98.2772C90.401 98.2772 90.1683 98.4329 88.5512 98.8288C87.799 99.0415 87.8297 99.9386 87.9376 100.447L91.8202 118.76L98.8948 95.4664C98.8948 95.4664 99.3341 95.5327 100.402 95.3063C101.064 95.166 101.968 94.921 103.197 94.4479L102.864 95.6348C102.864 95.6348 101.247 96.0308 100.253 97.3579C99.6991 98.0068 98.4981 100.866 98.3408 101.378L95.1366 111.838L106.001 126.225C108.673 129.805 111.192 128.899 111.192 128.899Z" fill="white"></path><path d="M133.112 122.359L134.356 122.258L133.348 128.444C133.348 128.444 116.081 129.75 113.088 130.151L113.003 129.115C113.003 129.115 113.25 128.938 114.852 128.755C115.677 128.636 115.757 127.69 115.718 127.223L113.195 96.3344C113.157 95.8679 112.926 94.9477 112.092 94.9636C110.481 95.043 110.214 94.9605 110.214 94.9605L110.125 93.8722C112.051 93.8192 127.755 92.5365 129.716 92.272L131.77 98.2606L130.474 98.3664L128.407 94.7788C127.792 93.6291 126.807 93.7095 124.527 93.8958C124.527 93.8958 118.882 94.4091 118.363 94.4514C117.538 94.5709 117.17 95.1749 117.238 96.0042L118.254 108.443L126.65 107.757L127.933 112.609L126.741 112.706L125.445 110.255C124.683 109.222 124.208 109.156 122.549 109.292L118.351 109.635L119.761 126.893C119.799 127.36 119.979 128.284 120.812 128.268C121.175 128.239 127.969 127.736 127.969 127.736C130.197 127.554 131.182 127.473 131.603 126.239L133.112 122.359Z" fill="white"></path><path d="M161.768 93.6496C160.935 93.6802 160.807 94.6132 160.795 95.081L159.997 126.063C159.985 126.531 160.065 127.469 160.895 127.542C162.557 127.637 162.761 127.799 162.761 127.799L162.734 128.838C161.125 128.693 159.514 128.651 157.902 128.61C156.291 128.568 154.68 128.527 153.013 128.588L153.04 127.548C153.04 127.548 153.304 127.399 154.917 127.388C155.75 127.358 155.93 126.426 155.942 125.958L156.74 94.9766C156.762 94.1449 156.308 93.561 155.478 93.4876C155.114 93.4782 146.537 93.2573 146.173 93.2479C145.34 93.2785 144.909 93.8396 144.888 94.6713L144.16 122.95C144.015 128.564 140.334 128.105 137.107 128.178L137.133 127.138C137.133 127.138 139.986 127.472 140.105 122.845L140.833 94.5669C140.845 94.099 140.714 93.1593 139.883 93.0859C138.273 92.9924 138.016 92.8817 138.016 92.8817L138.044 91.7901C139.082 91.8689 162.63 92.4754 163.671 92.4502L163.643 93.5419C163.643 93.5419 163.433 93.6405 161.768 93.6496Z" fill="white"></path><path d="M180.07 97.6423L173.657 113.876L181.9 115.001L180.07 97.6423ZM190.365 131.428L190.482 132.494C188.848 132.166 187.251 131.948 185.602 131.723C184.005 131.505 182.407 131.287 180.796 131.172L180.679 130.107C180.679 130.107 180.906 129.98 182.562 130.154C183.342 130.208 183.365 129.266 183.326 128.788L182.003 116.17L173.245 114.975L168.59 126.778C168.424 127.227 168.194 128.141 169.012 128.305C170.602 128.574 170.787 128.757 170.787 128.757L170.389 129.752C168.857 129.438 167.93 129.312 166.951 129.178C166.023 129.052 165.096 128.925 163.433 128.803L163.831 127.808C163.831 127.808 164.11 127.689 165.766 127.862C166.597 127.923 167.084 127.045 167.251 126.595L179.209 96.2652C179.349 95.2347 177.017 95.0214 177.017 95.0214L176.907 93.9043C180.131 94.5017 183.759 94.8392 183.759 94.8392L187.344 129.337C187.384 129.814 187.67 130.798 188.487 130.962C190.077 131.231 190.365 131.428 190.365 131.428Z" fill="white"></path><path d="M223.127 104.387C222.307 104.235 221.941 105.055 221.815 105.56L214.305 135.628C214.191 136.082 214.116 137.028 214.91 137.28C216.512 137.734 216.676 137.936 216.676 137.936L216.424 138.945C214.885 138.453 213.321 138.062 211.758 137.672C210.143 137.268 208.579 136.878 206.99 136.588L207.242 135.579C207.242 135.579 207.532 135.491 209.109 135.831C209.928 135.982 210.307 135.112 210.42 134.658L214.037 120.179L202.181 117.217L198.564 131.696C198.451 132.15 198.325 133.084 199.12 133.336C200.721 133.789 200.885 133.991 200.885 133.991L200.633 135C199.095 134.509 197.531 134.118 195.967 133.727C194.352 133.324 192.788 132.933 191.199 132.644L191.451 131.635C191.451 131.635 191.741 131.546 193.318 131.887C194.138 132.038 194.516 131.167 194.629 130.713L202.14 100.645C202.253 100.191 202.329 99.2453 201.534 98.9932C199.983 98.5521 199.756 98.3882 199.756 98.3882L200.02 97.3288C201.572 97.7699 203.123 98.2109 204.737 98.6142C206.301 99.0048 207.878 99.345 209.454 99.6852L209.19 100.745C209.19 100.745 208.963 100.795 207.336 100.442C206.516 100.291 206.201 101.124 206.075 101.628L202.458 116.107L214.314 119.069L217.931 104.59C218.044 104.135 218.119 103.19 217.325 102.937C215.774 102.496 215.546 102.332 215.546 102.332L215.811 101.273C217.362 101.714 218.914 102.155 220.528 102.558C222.092 102.949 223.669 103.289 225.245 103.63L224.981 104.689C224.981 104.689 224.754 104.739 223.127 104.387Z" fill="white"></path><path d="M253.018 114.966C252.22 114.723 251.764 115.497 251.583 115.984L240.739 145.017C240.575 145.456 240.394 146.387 241.155 146.727C242.695 147.358 242.836 147.577 242.836 147.577L242.472 148.551C240.998 147.889 239.488 147.325 237.978 146.761C236.419 146.179 234.909 145.615 233.363 145.149L233.726 144.174C233.726 144.174 234.025 144.119 235.553 144.634C236.35 144.877 236.824 144.055 236.988 143.616L246.158 119.065L226.323 137.246L225.54 139.341C225.377 139.779 225.146 140.692 225.908 141.032C227.448 141.663 227.589 141.882 227.589 141.882L227.225 142.856C225.751 142.195 224.241 141.631 222.731 141.067C221.172 140.484 219.662 139.92 218.115 139.454L218.479 138.48C218.479 138.48 218.777 138.424 220.306 138.94C221.103 139.182 221.577 138.36 221.741 137.921L232.584 108.888C232.748 108.45 232.93 107.519 232.168 107.179C230.676 106.566 230.469 106.378 230.469 106.378L230.851 105.355C232.343 105.967 233.835 106.58 235.394 107.162C236.904 107.726 238.432 108.242 239.961 108.757L239.579 109.78C239.579 109.78 239.347 109.805 237.77 109.271C236.973 109.029 236.566 109.82 236.384 110.307L227.196 134.908L246.995 116.824L247.832 114.583C247.995 114.145 248.177 113.213 247.416 112.873C245.924 112.261 245.716 112.072 245.716 112.072L246.098 111.049C247.59 111.662 249.082 112.275 250.641 112.857C252.151 113.421 253.68 113.936 255.208 114.452L254.826 115.475C254.826 115.475 254.595 115.499 253.018 114.966Z" fill="white"></path><path d="M268.244 144.066L276.473 127.891C276.662 127.52 276.831 126.614 276.253 126.145C275.142 125.347 273.359 124.265 271.83 123.487C267.751 121.412 262.726 121.656 259.354 128.283C256.006 134.865 258.625 139.464 263.214 141.799C266.273 143.355 268.244 144.066 268.244 144.066ZM281.583 128.857C280.818 128.526 280.277 129.359 280.088 129.73L266.036 157.353C265.823 157.77 265.468 158.698 266.21 159.075C267.646 159.922 267.784 160.109 267.784 160.109L267.312 161.036C265.923 160.213 264.486 159.482 263.049 158.751C261.566 157.996 260.129 157.265 258.645 156.627L259.117 155.7C259.117 155.7 259.396 155.725 260.88 156.364C261.621 156.741 262.208 155.931 262.421 155.514L267.679 145.178C267.679 145.178 265.943 144.004 262.884 142.447C262.42 142.212 261.957 141.976 261.563 141.717L252.363 150.397C252.012 150.744 251.379 151.53 252.12 151.907C253.51 152.731 253.648 152.918 253.648 152.918L252.806 153.656C251.462 152.856 250.026 152.125 248.589 151.394C247.152 150.663 245.669 149.909 244.139 149.247L244.935 148.485C244.935 148.485 245.26 148.534 246.79 149.196C247.532 149.573 248.397 148.905 248.748 148.558L258.299 139.532C253.906 135.897 253.076 131.565 255.763 126.398C259.322 119.516 265.834 119.445 272.23 122.699C272.74 122.958 280.849 127.317 283.817 128.593L283.322 129.567C283.322 129.567 283.089 129.565 281.583 128.857Z" fill="white"></path></svg> 