<?xml version="1.0" encoding="UTF-8"?> <svg xmlns="http://www.w3.org/2000/svg" width="257" height="89" viewBox="0 0 257 89" fill="none"><path d="M28.7087 66.0683C32.2995 63.7466 32.8573 59.763 30.7812 56.552C26.763 50.3372 13.4497 59.5815 8.91799 52.5726C7.08747 49.7414 6.92434 45.93 12.1033 42.5815C14.9 40.7733 17.6943 39.9459 20.6166 38.9377L21.4232 43.2143C17.5392 42.0535 14.7271 41.7174 12.2757 43.3024C9.78976 44.9097 8.95041 47.0191 11.0042 50.1956C15.0894 56.514 28.1916 46.8675 33.1698 54.567C36.8532 60.2639 33.5746 63.9014 29.1085 66.838C26.0701 68.8025 21.9272 70.6488 17.5152 69.7314L17.5614 65.6379C20.5557 67.6187 25.1525 68.3676 28.7087 66.0683Z" fill="#2D2D2D"></path><path d="M42.886 44.0442L33.9973 33.4866L36.9889 46.9596L42.886 44.0442ZM41.6834 57.9396L41.8818 58.8047C40.7397 59.2776 40.0762 59.6056 39.376 59.9518C38.7125 60.2798 38.0491 60.6078 36.9062 61.2646L36.7078 60.3995C36.7078 60.3995 36.8556 60.2346 38.0168 59.6147C38.5883 59.2863 38.5183 58.4953 38.428 58.1272L32.8228 32.9665C32.4584 32.2294 30.8363 33.1231 30.8363 33.1231L30.2694 32.4402C32.646 31.4028 35.1713 30.0167 35.1713 30.0167L52.8021 51.0208C53.0398 51.3161 53.6627 51.8337 54.2706 51.5791C55.4314 51.0511 55.6889 51.0154 55.6889 51.0154L56.219 51.7165C55.04 52.2077 53.8606 52.7908 52.7181 53.3556C51.5755 53.9205 50.4329 54.4854 49.3268 55.1239L48.7599 54.4411C48.7599 54.4411 48.8709 54.2945 50.0321 53.6745C50.5667 53.3643 50.165 52.7374 49.9273 52.4421L43.4529 44.7271L37.1873 47.8247L39.3863 57.6534C39.4766 58.0216 39.7309 58.7214 40.3388 58.4667C41.4996 57.9387 41.6834 57.9396 41.6834 57.9396Z" fill="#2D2D2D"></path><path d="M47.3986 25.377C46.1524 25.801 45.931 25.7962 45.931 25.7962L45.4351 25.0602C46.6813 24.6362 47.889 24.2267 49.0822 23.7788C50.3139 23.3163 51.4927 22.8299 52.633 22.3578L53.1289 23.0939C53.1289 23.0939 53.0039 23.2287 51.8251 23.7152C51.2237 23.9849 51.5608 24.6488 51.7678 24.9663L65.7983 45.9612L62.5454 20.9201C62.4924 20.5448 62.2707 19.8375 61.6789 20.0157C60.4712 20.4252 60.2499 20.4205 60.2499 20.4205L60.1389 19.5399C61.3466 19.1304 62.0539 18.9088 62.7467 18.6487C63.4395 18.3886 64.1564 18.0755 65.3352 17.589L65.4847 18.4552C65.4847 18.4552 65.2827 18.6189 64.1039 19.1053C63.5025 19.375 63.4932 20.169 63.5462 20.5444L67.0597 47.6834C65.953 48.0111 64.9282 48.4397 63.9419 48.854L48.7655 26.0935C48.5584 25.776 48.0289 25.1843 47.3986 25.377Z" fill="#2D2D2D"></path><path d="M69.6758 18.6192C69.5782 18.2623 69.2639 17.581 68.6185 17.7149C67.3783 18.0116 67.1583 17.9865 67.1583 17.9865L66.9305 17.1537C68.4195 16.8316 80.4357 13.5442 81.921 13.0526L84.391 17.4067L83.3996 17.678L81.27 15.1915C80.6239 14.3879 79.8704 14.594 78.1255 15.0714C78.1255 15.0714 73.8137 16.2936 73.4171 16.4021C72.7934 16.6154 72.5955 17.1384 72.7691 17.7729L75.373 27.2907L81.7975 25.5331L83.5024 29.1162L82.5902 29.3657L81.2258 27.6503C80.4716 26.9189 80.1038 26.9769 78.8348 27.3241L75.6225 28.2029L79.2354 41.4088C79.333 41.7657 79.6076 42.4579 80.253 42.3239C80.5306 42.248 85.7366 40.8664 85.7366 40.8664C87.4418 40.3999 88.1845 40.1541 88.3424 39.1731L88.9492 35.938L89.901 35.6776L90.0203 40.6322C90.0203 40.6322 76.7927 44.1657 74.5251 44.914L74.2972 44.0812C74.2972 44.0812 74.4738 43.9476 75.6924 43.5716C76.316 43.3584 76.2397 42.612 76.1421 42.2551L69.6758 18.6192Z" fill="#2D2D2D"></path><path d="M99.1158 12.2171L98.6111 14.516L97.5909 14.6413L97.6116 9.75075C98.0705 9.77722 114.435 7.76715 114.833 7.63541L115.995 12.3806L115.016 12.5009L113.929 10.3975C113.218 8.99358 112.54 8.86974 110.785 9.08528C110.785 9.08528 108.995 9.34665 108.668 9.38675C108.021 9.50776 108.024 10.2115 108.074 10.6196L111.062 34.9412C111.107 35.3085 111.279 36.033 111.937 35.9936C113.248 35.874 113.421 35.9356 113.421 35.9356L113.526 36.7926C112.251 36.8664 110.986 37.0218 109.721 37.1771C108.415 37.3375 107.15 37.4929 105.895 37.73L105.79 36.873C105.79 36.873 105.984 36.7663 107.244 36.5701C107.892 36.4491 107.924 35.6995 107.879 35.3322L104.891 11.0106C104.846 10.6433 104.633 9.92381 103.976 9.9632C103.69 9.99829 101.889 10.178 101.889 10.178C100.094 10.3986 99.5067 10.6778 99.1158 12.2171Z" fill="#2D2D2D"></path><path d="M126.477 35.9365C125.202 35.8697 123.927 35.8852 122.653 35.9007C121.337 35.9167 120.063 35.9321 118.789 36.0298L118.779 35.1665C118.779 35.1665 118.983 35.0818 120.257 35.0252C120.914 34.9761 121.029 34.2346 121.024 33.8646L120.727 9.36193C120.722 8.99192 120.59 8.25341 119.932 8.22028C118.657 8.19465 118.45 8.11493 118.45 8.11493L118.44 7.25158C119.715 7.27721 120.989 7.30284 122.305 7.28686C123.58 7.27138 124.853 7.21479 126.127 7.15819L126.138 8.02154C126.138 8.02154 125.974 8.10576 124.659 8.16285C124.002 8.21196 123.928 8.91186 123.933 9.32298L124.077 21.1221L133.697 21.0052L133.554 9.20612C133.549 8.83611 133.458 8.0971 132.8 8.06397C131.483 8.03884 131.318 7.95862 131.318 7.95862L131.308 7.09527C132.582 7.1209 133.857 7.14653 135.173 7.13055C136.448 7.11507 137.721 7.05848 138.995 7.00188L139.006 7.86523C139.006 7.86523 138.842 7.94945 137.527 8.00654C136.87 8.05565 136.755 8.75605 136.76 9.16717L137.058 33.6698C137.062 34.0398 137.195 34.7783 137.853 34.8114C139.169 34.8366 139.335 34.9168 139.335 34.9168L139.345 35.7801C138.07 35.7134 136.795 35.7289 135.521 35.7444C134.205 35.7603 132.931 35.7758 131.657 35.8735L131.647 35.0102C131.647 35.0102 131.81 34.926 133.125 34.8689C133.782 34.8198 133.856 34.0788 133.851 33.7088L133.708 21.9097L124.088 22.0265L124.231 33.8256C124.236 34.1956 124.327 34.9346 124.985 34.9677C126.301 34.9929 126.467 35.0731 126.467 35.0731L126.477 35.9365Z" fill="#2D2D2D"></path><path d="M144.775 9.57822C144.814 9.21021 144.769 8.46131 144.119 8.3517C142.856 8.17767 142.66 8.07441 142.66 8.07441L142.75 7.21572C144.254 7.45642 156.644 8.75778 158.206 8.8392L158.926 13.7931L157.904 13.6857L156.823 10.5956C156.513 9.61217 155.736 9.53057 153.937 9.34159C153.937 9.34159 149.475 8.91433 149.066 8.87138C148.408 8.84356 148.034 9.25898 147.965 9.91322L146.934 19.7268L153.558 20.4226L153.845 24.3801L152.905 24.2813L152.257 22.1875C151.82 21.2321 151.456 21.1526 150.147 21.0152L146.835 20.6673L145.405 34.2836C145.366 34.6516 145.371 35.3962 146.021 35.5058C146.307 35.5359 151.659 36.1394 151.659 36.1394C153.418 36.3241 154.199 36.3648 154.702 35.5082L156.443 32.7144L157.424 32.8175L155.736 37.4771C155.736 37.4771 142.128 35.9651 139.743 35.8386L139.834 34.98C139.834 34.98 140.047 34.9197 141.319 35.0119C141.977 35.0397 142.177 34.3166 142.216 33.9486L144.775 9.57822Z" fill="#2D2D2D"></path><path d="M179.443 15.2949L172.492 38.7927C172.387 39.1476 172.307 39.8528 172.875 40.1066C174.118 40.6886 175.124 41.2006 176.661 41.6555C180.131 42.6818 184.457 40.2314 187.385 30.3355C190.3 20.479 187.968 16.1876 184.499 15.1612C183.592 14.893 181.523 14.4953 180.479 14.4009C179.853 14.3442 179.56 14.9006 179.443 15.2949ZM176.498 42.2075C176.064 42.0792 169.121 39.8966 166.642 39.2917L166.887 38.4638C166.887 38.4638 167.107 38.4433 168.341 38.7654C168.983 38.9126 169.312 38.2379 169.417 37.883L176.368 14.3852C176.473 14.0303 176.564 13.2857 175.945 13.0596C174.735 12.6587 174.561 12.5215 174.561 12.5215L174.806 11.6936C177.176 12.5233 184.228 14.481 184.662 14.6093C190.103 16.2188 193.492 20.9945 190.437 31.3241C187.381 41.6537 181.939 43.8169 176.498 42.2075Z" fill="#2D2D2D"></path><path d="M203.323 38.5311L205.75 24.9451L197.309 35.8643L203.323 38.5311ZM191.874 46.4971L191.336 47.2031C190.242 46.6279 189.566 46.3279 188.851 46.0112C188.175 45.7111 187.498 45.4111 186.262 44.9529L186.8 44.247C186.8 44.247 187.022 44.2551 188.241 44.7509C188.859 44.98 189.422 44.4202 189.647 44.1153L205.398 23.7097C205.732 22.958 204.007 22.2831 204.007 22.2831L204.169 21.4105C206.487 22.5733 209.168 23.6273 209.168 23.6273L204.305 50.6158C204.23 50.9874 204.231 51.7972 204.816 52.1015C205.964 52.6558 206.156 52.831 206.156 52.831L205.957 53.6869C204.825 53.095 203.622 52.5617 202.457 52.045C201.292 51.5283 200.127 51.0115 198.928 50.57L199.09 49.6974C199.09 49.6974 199.274 49.6889 200.494 50.1847C201.074 50.3971 201.299 49.6873 201.374 49.3157L203.161 39.4038L196.771 36.5702L190.624 44.5486C190.399 44.8536 190.024 45.4967 190.609 45.801C191.757 46.3553 191.874 46.4971 191.874 46.4971Z" fill="#2D2D2D"></path><path d="M220.047 31.7077L218.249 33.2256L217.363 32.7047L220.353 28.835C220.701 29.1351 234.914 37.4914 235.31 37.6289L233.347 42.1029L232.497 41.6027L232.913 39.2721C233.203 37.7252 232.74 37.2146 231.216 36.3185C231.216 36.3185 229.635 35.4371 229.352 35.2704C228.764 34.9724 228.339 35.5333 228.13 35.8877L215.71 57.0115C215.523 57.3305 215.219 58.0101 215.765 58.379C216.878 59.0813 216.978 59.2355 216.978 59.2355L216.541 59.9798C215.484 59.2629 214.385 58.6169 213.286 57.9709C212.152 57.3041 211.053 56.6581 209.913 56.083L210.351 55.3387C210.351 55.3387 210.57 55.372 211.689 55.9826C212.277 56.2805 212.758 55.7051 212.946 55.3861L225.366 34.2623C225.553 33.9433 225.822 33.2428 225.276 32.8739C225.028 32.7281 223.489 31.7757 223.489 31.7757C221.93 30.8588 221.294 30.7235 220.047 31.7077Z" fill="#2D2D2D"></path><path d="M239.246 42.8635C239.464 42.5648 239.802 41.8947 239.295 41.4731C238.29 40.6875 238.173 40.4998 238.173 40.4998L238.683 39.8029C239.862 40.7673 249.917 48.1219 251.227 48.9779L249.358 53.6219L248.529 53.0151L249.148 49.8005C249.374 48.7945 248.744 48.3333 247.284 47.2654C247.284 47.2654 243.642 44.6528 243.31 44.4101C242.755 44.0549 242.223 44.2258 241.834 44.7568L236.009 52.7213L241.385 56.6534L239.643 60.2187L238.88 59.6604L239.372 57.5246C239.475 56.479 239.201 56.2273 238.139 55.4506L235.451 53.4845L227.368 64.5353C227.149 64.8339 226.779 65.4798 227.286 65.9014C227.518 66.0713 231.841 69.2842 231.841 69.2842C233.268 70.3279 233.923 70.7559 234.788 70.2685L237.698 68.7287L238.494 69.3113L234.692 72.49C234.692 72.49 223.69 64.3409 221.692 63.0327L222.202 62.3358C222.202 62.3358 222.416 62.3908 223.469 63.11C224.024 63.4652 224.561 62.9407 224.779 62.642L239.246 42.8635Z" fill="#2D2D2D"></path></svg> 