<?xml version="1.0" encoding="UTF-8"?> <svg xmlns="http://www.w3.org/2000/svg" width="121" height="42" viewBox="0 0 121 42" fill="none"><mask id="path-1-outside-1_470_308" maskUnits="userSpaceOnUse" x="-0.363892" y="-0.596497" width="122" height="42" fill="black"><rect fill="white" x="-0.363892" y="-0.596497" width="122" height="42"></rect><path d="M0.679532 38.7579C0.561246 37.8046 0.703682 36.8921 0.877988 35.9767C1.3485 33.7172 2.12025 31.5911 3.05423 29.4825C4.77437 25.4071 7.03323 21.6043 9.35871 17.8276C11.2637 14.7316 13.273 11.7225 15.3808 8.73664C16.2941 7.46527 17.1755 6.19678 17.9845 4.83844C18.0396 4.73707 18.1266 4.63282 18.2164 4.56043C18.3034 4.45618 18.399 4.44754 18.5351 4.53163C18.6365 4.58673 18.6799 4.71133 18.6595 4.84169C18.6044 4.94306 18.5493 5.04443 18.4942 5.1458C17.3287 6.82554 16.1632 8.50527 14.931 10.1589C13.2437 12.4641 11.6577 14.8245 10.1094 17.2457C8.64512 19.5308 7.2185 21.8767 5.89325 24.2778C4.4317 26.9482 3.10339 29.6708 2.11394 32.5877C1.58005 34.1461 1.11567 35.7625 0.975741 37.4137C0.911633 38.1264 0.940253 38.7986 1.1311 39.4882C1.14551 39.6475 1.22365 39.8011 1.30179 39.9547C1.61436 40.5691 2.08359 40.7837 2.73846 40.5639C3.33247 40.3817 3.85122 40.0777 4.33521 39.7448C5.69159 38.7547 6.94084 37.6457 8.18721 36.5049C11.9234 33.0506 15.7639 29.6832 19.7839 26.5245C20.2621 26.1278 20.7751 25.7602 21.2562 25.3954C21.3142 25.3259 21.4069 25.2854 21.4678 25.2477C21.5258 25.1782 21.6214 25.1696 21.6938 25.2594C21.7314 25.3203 21.6734 25.3898 21.6126 25.4274C21.5864 25.4941 21.5256 25.5317 21.4647 25.5693C16.868 29.1014 12.4566 32.906 8.18702 36.8584C7.06238 37.9239 5.93773 38.9895 4.6712 39.9072C4.06836 40.3473 3.43078 40.7583 2.64555 40.9578C1.79657 41.1631 1.23768 40.6674 0.968505 40.1776C0.765947 39.714 0.690869 39.2388 0.679532 38.7579Z"></path><path d="M25.6227 22.5267C26.1008 22.4835 26.5556 22.5388 26.9901 22.7244C27.7924 23.0696 28.2121 23.8028 28.0725 24.7472C28.0347 25.0398 27.9332 25.3381 27.7998 25.6394C27.7214 25.8392 27.7909 25.8972 27.9821 25.8799C28.4573 25.8048 28.9325 25.7298 29.4048 25.6228C30.8564 25.331 32.3051 25.0072 33.7278 24.7501C34.9592 24.5103 36.1906 24.2705 37.3901 24.0335C37.7378 23.97 38.1231 23.9673 38.4651 23.84C38.4969 23.8371 38.5607 23.8314 38.6244 23.8256C38.6911 23.8517 38.7895 23.8749 38.7953 23.9387C38.8039 24.0343 38.7112 24.0748 38.6475 24.0806C38.3317 24.1412 37.984 24.2048 37.6681 24.2655C36.6569 24.4532 35.6776 24.6382 34.6664 24.8259C33.6871 25.0108 32.6759 25.1986 31.6994 25.4154C30.5289 25.6176 29.396 25.8806 28.2573 26.08C27.7184 26.1608 27.3561 26.4185 27.0401 26.8326C26.1733 27.907 25.0546 28.6828 23.6724 29.0327C22.667 29.2842 21.8996 28.6145 22.0015 27.6093C22.0161 27.4152 22.0307 27.2211 22.0772 27.0241C22.0946 26.8619 22.0512 26.7373 21.8861 26.6879C21.7876 26.6647 21.721 26.6386 21.6197 26.5835C21.1475 26.337 21.0174 25.9632 21.1973 25.465C21.2524 25.3636 21.3046 25.2304 21.3597 25.129C22.4526 23.7129 23.8843 22.8445 25.6227 22.5267ZM24.2735 26.44C25.1716 26.4231 25.9569 26.2236 26.7217 26.1545C26.942 26.1024 27.0637 26.0272 27.1739 25.8244C27.4261 25.4161 27.5799 24.9845 27.6033 24.5325C27.6384 23.8546 27.2969 23.275 26.6683 23.0748C26.2048 22.9239 25.721 22.9034 25.2169 23.0132C24.2694 23.1952 23.4435 23.6554 22.6928 24.2374C22.3016 24.5298 21.945 24.8512 21.6957 25.2914C21.5826 25.4623 21.4985 25.5984 21.4839 25.7925C21.478 26.0822 21.6922 26.3199 22.0196 26.3867C22.315 26.4564 22.3267 26.2304 22.4079 26.0624C22.492 25.9263 22.5443 25.7931 22.6602 25.6541C22.7153 25.5527 22.8399 25.5093 22.976 25.5934C23.1122 25.6775 23.0599 25.8107 22.973 25.915C22.8541 26.0221 22.77 26.1582 22.7178 26.2915C22.6627 26.3928 22.7032 26.4856 22.8336 26.5059C22.964 26.5263 23.0943 26.5466 23.2218 26.5351C23.6361 26.4976 24.0185 26.4631 24.2735 26.44ZM26.7506 26.4732C26.203 26.4584 25.6988 26.5682 25.1918 26.6462C24.3689 26.7848 23.5432 26.8916 22.7031 26.839C22.5727 26.8187 22.4828 26.891 22.4335 27.0562C22.3638 27.3516 22.326 27.6442 22.3867 27.96C22.4675 28.499 22.9135 28.8121 23.4467 28.6675C24.8345 28.3814 25.8519 27.5505 26.7506 26.4732Z"></path><path d="M43.4299 20.853C42.9518 20.8962 42.4824 21.035 42.0506 21.2347C40.4481 21.99 39.167 23.1018 38.1725 24.5412C38.0015 24.7816 37.8941 25.0162 37.7868 25.2508C37.6766 25.4535 37.6012 25.6853 37.5924 25.9431C37.5718 26.4269 37.7513 26.6356 38.2641 26.6214C39.0638 26.5812 39.8461 26.3499 40.6256 26.0866C42.4047 25.5081 44.21 24.863 45.9891 24.2845C47.9537 23.625 49.9617 23.0901 51.9755 22.6189C52.4797 22.5091 52.9867 22.4311 53.4909 22.3213C53.714 22.3011 53.9399 22.3128 54.1369 22.3593C54.2354 22.3825 54.3368 22.4376 54.3135 22.5361C54.2932 22.6664 54.1976 22.6751 54.0991 22.6519C53.3227 22.5935 52.5983 22.7554 51.8768 22.9491C48.1361 23.8655 44.4794 24.9993 40.837 26.2924C40.0256 26.5586 39.2172 26.8565 38.3219 26.9053C38.2263 26.914 38.0988 26.9255 38.0003 26.9023C37.5484 26.8788 37.2675 26.6151 37.2243 26.137C37.1955 25.8183 37.2971 25.52 37.4305 25.2187C37.6945 24.5844 38.0656 24.0689 38.5033 23.5795C39.4367 22.5312 40.4773 21.6018 41.7379 20.9738C42.3841 20.6583 43.0679 20.4037 43.8067 20.4012C44.2558 20.3927 44.6816 20.4828 45.003 20.8393C45.2173 21.077 45.3098 21.3899 45.243 21.7173C45.1966 21.9142 45.0777 22.0214 44.9155 22.0039C44.7185 21.9574 44.6751 21.8328 44.6926 21.6706C44.6697 21.0622 44.4583 20.8564 43.847 20.8474C43.6877 20.8618 43.5602 20.8733 43.4299 20.853Z"></path><path d="M74.425 8.28386C74.7437 8.25506 75.0653 8.25812 75.3493 8.20033C75.7578 8.09914 76.204 8.05881 76.6183 8.02137C77.9192 7.83952 79.2259 7.72142 80.5268 7.53958C81.4481 7.42418 82.3695 7.30877 83.2647 7.25999C84.7018 7.16223 86.1069 7.06736 87.5179 7.03623C88.642 7.03102 89.8008 7.0548 90.8871 7.34219C91.0174 7.36253 91.1188 7.41763 91.2492 7.43798C91.3158 7.46409 91.3534 7.52495 91.3273 7.59157C91.3302 7.62344 91.2693 7.66107 91.2056 7.66683C91.1071 7.6436 91.0405 7.6175 90.9739 7.59138C89.9223 7.33299 88.8591 7.30057 87.7669 7.30289C85.003 7.29566 82.2361 7.61 79.4662 7.89248C77.9712 8.05973 76.4791 8.25886 74.987 8.45798C74.7349 8.5129 74.5147 8.56493 74.2597 8.58798C74.0366 8.60814 73.9554 8.77613 73.8742 8.94412C73.4914 9.68559 73.1115 10.4589 72.7287 11.2004C71.18 14.3285 69.7674 17.5407 68.3519 20.721C67.0409 23.6349 65.7327 26.5806 64.4912 29.5524C63.8849 31.0209 63.2439 32.4605 62.7709 33.9813C62.7738 34.0131 62.7477 34.0797 62.7187 34.1145C62.6926 34.1811 62.6288 34.1869 62.5622 34.1608C62.5303 34.1636 62.5246 34.0999 62.5217 34.068C62.4783 33.9434 62.5624 33.8073 62.5856 33.7088C62.9947 32.5473 63.4704 31.4118 63.9462 30.2764C65.237 27.1395 66.6264 24.0258 68.0157 20.9121C69.4863 17.6304 70.9569 14.3487 72.5288 11.1221C72.668 10.8846 72.7782 10.6818 72.8508 10.4182C72.6972 10.4964 72.6449 10.6296 72.558 10.7339C71.4389 12.2166 70.3198 13.6994 69.166 15.1531C68.0412 16.5722 66.8787 17.9303 65.6815 19.2595C64.3683 20.7276 63.0175 22.135 61.4525 23.3046C60.8786 23.7099 60.2729 24.1181 59.6209 24.3698C59.279 24.4971 58.9052 24.6272 58.5141 24.5662C57.9955 24.5167 57.6799 24.2239 57.5411 23.7545C57.4601 23.569 57.4428 23.3778 57.4255 23.1866C57.4082 22.9954 57.4808 22.7318 57.3099 22.6187C57.0782 22.5432 56.939 22.7807 56.7564 22.8936C56.0608 23.3742 55.3682 23.8866 54.6378 24.3382C54.3017 24.5292 53.9655 24.7203 53.6264 24.8794C53.412 24.9952 53.1628 25.082 52.905 25.0732C52.5834 25.0701 52.4386 24.8904 52.4417 24.5688C52.4244 24.3776 52.5056 24.2096 52.5897 24.0735C52.7782 23.6709 53.0362 23.3263 53.329 23.0106C54.2045 22.0319 55.2247 21.2328 56.5112 20.8916C56.885 20.7614 57.2674 20.7268 57.6643 20.8516C57.925 20.8923 58.1306 21.0344 58.2783 21.246C58.3854 21.3648 58.365 21.4952 58.2752 21.5675C58.1564 21.6747 58.026 21.6543 57.9217 21.5674C57.8899 21.5702 57.8522 21.5094 57.8494 21.4775C57.6293 21.1761 57.3367 21.1383 57.018 21.1671C56.6009 21.1727 56.1952 21.3057 55.8271 21.4996C54.6564 22.0553 53.7028 22.8805 53.0301 23.9694C52.9142 24.1084 52.8329 24.2764 52.8155 24.4387C52.7719 24.6675 52.8762 24.7545 53.0964 24.7024C53.3456 24.6157 53.5919 24.497 53.8063 24.3812C54.6004 23.9239 55.3568 23.4057 56.0842 22.9223C56.3857 22.7022 56.6871 22.4822 56.9943 22.3259C57.4203 22.0625 57.6578 22.2017 57.7329 22.6769C57.7559 22.9318 57.7761 23.1549 57.7991 23.4099C57.8915 24.0763 58.2332 24.3024 58.8706 24.2448C59.2502 24.1784 59.6211 24.0163 59.9573 23.8253C60.7252 23.4346 61.3831 22.8932 62.0411 22.3517C63.8265 20.7766 65.4035 19.0276 66.9428 17.2176C69.2069 14.539 71.3377 11.8081 73.3614 8.95834C73.3875 8.89172 73.4165 8.85697 73.4426 8.79035C73.3992 8.66575 73.3065 8.70626 73.2456 8.74389C72.7415 8.85372 72.1997 8.90269 71.6926 8.98065C68.1752 9.52348 64.7127 10.3184 61.308 11.3972C61.1544 11.4754 60.998 11.5217 60.8067 11.5389C60.714 11.5795 60.6184 11.5881 60.5228 11.5967C60.2939 11.5532 60.1521 11.4053 60.1985 11.2084C60.245 11.0114 60.3986 10.9332 60.6332 11.0405C60.7983 11.0899 60.9258 11.0784 61.0822 11.0321C62.1804 10.74 63.3104 10.4451 64.4434 10.1821C65.4169 9.93343 66.3905 9.68479 67.4017 9.497C68.381 9.31209 69.3604 9.12719 70.3397 8.94228C70.7511 8.87296 71.1626 8.80365 71.574 8.73433C72.2056 8.61298 72.8402 8.5235 73.4457 8.46877C73.6369 8.45149 73.7876 8.34147 73.9036 8.20247C74.1848 7.75935 74.4371 7.35099 74.6865 6.91075C75.7566 4.88621 76.9252 2.88489 78.198 0.97054C78.3111 0.799668 78.4589 0.657785 78.572 0.486912C78.6618 0.41453 78.7546 0.374018 78.8559 0.429118C78.9573 0.484216 78.966 0.579827 78.9427 0.678316C78.8934 0.843428 78.8412 0.976669 78.789 1.10991C78.2437 2.18736 77.6261 3.17497 76.9795 4.19732C76.1937 5.45717 75.3732 6.68803 74.5527 7.91889C74.4657 8.02314 74.3759 8.09552 74.425 8.28386Z"></path><path d="M73.7435 24.25C73.6916 23.6764 73.8049 23.152 73.9848 22.6538C74.2894 21.7588 74.6983 20.9507 75.1739 20.1687C75.4784 19.6271 75.8176 19.1145 76.1568 18.6019C76.2119 18.5005 76.2989 18.3962 76.3887 18.3239C76.5423 18.2457 76.6727 18.2661 76.7798 18.3849C76.8551 18.5066 76.8347 18.637 76.7159 18.7441C75.5884 19.7778 74.9068 21.1246 74.3586 22.5237C74.1178 23.0595 73.9784 23.6504 74.0332 24.256C74.1255 24.9224 74.4673 25.1485 75.125 24.9606C75.6263 24.8189 76.0871 24.5844 76.5131 24.321C77.3071 23.8637 78.0983 23.3745 78.8866 22.8534C80.6805 21.7273 82.5179 20.7259 84.3899 19.7534C84.5435 19.6753 84.6971 19.5971 84.8826 19.5161C84.9753 19.4756 85.126 19.3656 85.2041 19.5192C85.2504 19.6756 85.0592 19.6929 84.9693 19.7653C84.9375 19.7682 84.9085 19.8029 84.8766 19.8058C82.9408 20.784 81.0774 21.8521 79.2487 22.9492C78.275 23.5513 77.3388 24.2142 76.3275 24.7555C75.9913 24.9465 75.6232 25.1404 75.2147 25.2416C74.3396 25.5135 73.827 25.1743 73.7435 24.25ZM77.9365 16.963C78.0003 16.9572 78.0959 16.9486 78.1596 16.9428C78.3508 16.9256 78.487 17.0096 78.5014 17.169C78.5187 17.3602 78.3651 17.4384 78.2086 17.4846C78.1449 17.4904 78.0492 17.499 77.9536 17.5077C77.7334 17.5597 77.4813 17.6146 77.2669 17.7304C77.0496 17.8143 76.8873 17.7968 76.8411 17.6404C76.76 17.4549 76.8441 17.3188 76.9948 17.2088C77.302 17.0525 77.6207 17.0237 77.9365 16.963Z"></path><path d="M89.0218 16.7965C89.4998 16.7533 89.9547 16.8085 90.3891 16.9942C91.1915 17.3394 91.6112 18.0726 91.4716 19.017C91.4338 19.3096 91.3323 19.6079 91.1988 19.9091C91.1205 20.109 91.19 20.167 91.3812 20.1497C91.8564 20.0746 92.3316 19.9995 92.8039 19.8926C94.2555 19.6007 95.7042 19.277 97.1268 19.0199C98.3583 18.7801 99.5897 18.5403 100.789 18.3033C101.137 18.2398 101.522 18.2371 101.864 18.1098C101.896 18.1069 101.96 18.1011 102.024 18.0954C102.09 18.1215 102.189 18.1447 102.194 18.2085C102.203 18.3041 102.11 18.3446 102.047 18.3503C101.731 18.411 101.383 18.4746 101.067 18.5352C100.056 18.723 99.0767 18.9079 98.0655 19.0957C97.0862 19.2806 96.075 19.4684 95.0985 19.6852C93.928 19.8874 92.795 20.1504 91.6563 20.3497C91.1174 20.4306 90.7552 20.6882 90.4391 21.1024C89.5723 22.1768 88.4536 22.9526 87.0715 23.3024C86.0661 23.554 85.2987 22.8843 85.4006 21.8791C85.4152 21.685 85.4298 21.4909 85.4762 21.2939C85.4937 21.1317 85.4503 21.0071 85.2852 20.9577C85.1867 20.9345 85.1201 20.9084 85.0187 20.8533C84.5466 20.6068 84.4164 20.233 84.5963 19.7348C84.6514 19.6334 84.7036 19.5002 84.7587 19.3988C85.8517 17.9826 87.2833 17.1143 89.0218 16.7965ZM87.6726 20.7098C88.5707 20.6929 89.3559 20.4934 90.1208 20.4243C90.341 20.3722 90.4627 20.297 90.5729 20.0942C90.8252 19.6859 90.979 19.2543 91.0024 18.8023C91.0375 18.1244 90.696 17.5448 90.0674 17.3446C89.6039 17.1937 89.1201 17.1732 88.6159 17.283C87.6685 17.465 86.8426 17.9252 86.0919 18.5072C85.7006 18.7996 85.3441 19.121 85.0947 19.5612C84.9816 19.7321 84.8976 19.8682 84.883 20.0623C84.877 20.352 85.0913 20.5897 85.4186 20.6565C85.7141 20.7262 85.7258 20.5002 85.807 20.3322C85.8911 20.1961 85.9433 20.0628 86.0593 19.9238C86.1144 19.8225 86.239 19.7791 86.3751 19.8632C86.5112 19.9473 86.459 20.0805 86.372 20.1847C86.2532 20.2919 86.1691 20.428 86.1169 20.5612C86.0618 20.6626 86.1023 20.7553 86.2327 20.7757C86.363 20.796 86.4934 20.8164 86.6209 20.8049C87.0352 20.7674 87.4176 20.7329 87.6726 20.7098ZM90.1496 20.743C89.6021 20.7282 89.0979 20.838 88.5909 20.916C87.768 21.0546 86.9423 21.1614 86.1021 21.1088C85.9718 21.0885 85.8819 21.1608 85.8326 21.3259C85.7629 21.6214 85.7251 21.914 85.7858 22.2298C85.8666 22.7687 86.3126 23.0819 86.8457 22.9373C88.2336 22.6512 89.251 21.8202 90.1496 20.743Z"></path><path d="M108.678 19.229C109.217 19.1481 109.84 18.9312 110.431 18.7171C112.613 17.9737 114.804 17.3258 117.009 16.8374C117.953 16.6235 118.898 16.4096 119.86 16.3869C120.019 16.3725 120.175 16.3262 120.312 16.4103C120.41 16.4335 120.48 16.4915 120.456 16.59C120.43 16.6566 120.337 16.6971 120.271 16.671C119.946 16.6361 119.596 16.6678 119.277 16.6966C118.069 16.8379 116.91 17.1676 115.745 17.4335C113.543 17.9539 111.425 18.6915 109.307 19.4292C109.057 19.516 108.773 19.5738 108.519 19.5968C107.884 19.6863 107.499 19.3355 107.47 18.6634C107.47 18.3099 107.537 17.9826 107.601 17.6234C107.72 17.1628 107.839 16.7022 107.958 16.2416C108.008 16.0765 108.115 15.8419 107.909 15.6998C107.738 15.5868 107.527 15.7344 107.373 15.8126C106.675 16.2612 106.052 16.8317 105.463 17.4311C104.788 18.1347 104.179 18.8645 103.573 19.6261C103.254 20.0084 102.901 20.3616 102.512 20.6859C102.364 20.8278 102.185 20.9726 101.999 21.0536C101.562 21.1895 101.258 21.0242 101.153 20.5838C101.104 20.3955 101.122 20.2332 101.136 20.0391C101.203 19.3583 101.401 18.6979 101.699 18.0925C101.943 17.5886 102.25 17.0788 102.494 16.5749C102.523 16.5401 102.52 16.5082 102.552 16.5054C102.636 16.3692 102.758 16.294 102.926 16.3752C103.094 16.4564 103.108 16.6157 103.027 16.7837C102.966 16.8214 102.94 16.888 102.882 16.9575C102.433 17.6728 101.986 18.4201 101.774 19.2746C101.702 19.5382 101.629 19.8018 101.623 20.0915C101.637 20.2509 101.591 20.4479 101.724 20.5001C101.863 20.616 102.008 20.4423 102.095 20.338C102.336 20.1556 102.539 19.9124 102.742 19.6691C103.295 19.0407 103.846 18.3805 104.4 17.7521C105.04 17.0194 105.719 16.3477 106.536 15.7918C106.808 15.6066 107.081 15.4213 107.391 15.2969C107.547 15.2506 107.672 15.2072 107.834 15.2247C108.156 15.2277 108.332 15.4046 108.358 15.6914C108.407 15.8797 108.361 16.0767 108.312 16.2418C108.242 16.5373 108.143 16.8675 108.074 17.163C107.92 17.5946 107.833 18.0523 107.812 18.5361C107.8 19.1155 108.009 19.2895 108.678 19.229Z"></path></mask><path d="M0.679532 38.7579C0.561246 37.8046 0.703682 36.8921 0.877988 35.9767C1.3485 33.7172 2.12025 31.5911 3.05423 29.4825C4.77437 25.4071 7.03323 21.6043 9.35871 17.8276C11.2637 14.7316 13.273 11.7225 15.3808 8.73664C16.2941 7.46527 17.1755 6.19678 17.9845 4.83844C18.0396 4.73707 18.1266 4.63282 18.2164 4.56043C18.3034 4.45618 18.399 4.44754 18.5351 4.53163C18.6365 4.58673 18.6799 4.71133 18.6595 4.84169C18.6044 4.94306 18.5493 5.04443 18.4942 5.1458C17.3287 6.82554 16.1632 8.50527 14.931 10.1589C13.2437 12.4641 11.6577 14.8245 10.1094 17.2457C8.64512 19.5308 7.2185 21.8767 5.89325 24.2778C4.4317 26.9482 3.10339 29.6708 2.11394 32.5877C1.58005 34.1461 1.11567 35.7625 0.975741 37.4137C0.911633 38.1264 0.940253 38.7986 1.1311 39.4882C1.14551 39.6475 1.22365 39.8011 1.30179 39.9547C1.61436 40.5691 2.08359 40.7837 2.73846 40.5639C3.33247 40.3817 3.85122 40.0777 4.33521 39.7448C5.69159 38.7547 6.94084 37.6457 8.18721 36.5049C11.9234 33.0506 15.7639 29.6832 19.7839 26.5245C20.2621 26.1278 20.7751 25.7602 21.2562 25.3954C21.3142 25.3259 21.4069 25.2854 21.4678 25.2477C21.5258 25.1782 21.6214 25.1696 21.6938 25.2594C21.7314 25.3203 21.6734 25.3898 21.6126 25.4274C21.5864 25.4941 21.5256 25.5317 21.4647 25.5693C16.868 29.1014 12.4566 32.906 8.18702 36.8584C7.06238 37.9239 5.93773 38.9895 4.6712 39.9072C4.06836 40.3473 3.43078 40.7583 2.64555 40.9578C1.79657 41.1631 1.23768 40.6674 0.968505 40.1776C0.765947 39.714 0.690869 39.2388 0.679532 38.7579Z" fill="#93001D"></path><path d="M25.6227 22.5267C26.1008 22.4835 26.5556 22.5388 26.9901 22.7244C27.7924 23.0696 28.2121 23.8028 28.0725 24.7472C28.0347 25.0398 27.9332 25.3381 27.7998 25.6394C27.7214 25.8392 27.7909 25.8972 27.9821 25.8799C28.4573 25.8048 28.9325 25.7298 29.4048 25.6228C30.8564 25.331 32.3051 25.0072 33.7278 24.7501C34.9592 24.5103 36.1906 24.2705 37.3901 24.0335C37.7378 23.97 38.1231 23.9673 38.4651 23.84C38.4969 23.8371 38.5607 23.8314 38.6244 23.8256C38.6911 23.8517 38.7895 23.8749 38.7953 23.9387C38.8039 24.0343 38.7112 24.0748 38.6475 24.0806C38.3317 24.1412 37.984 24.2048 37.6681 24.2655C36.6569 24.4532 35.6776 24.6382 34.6664 24.8259C33.6871 25.0108 32.6759 25.1986 31.6994 25.4154C30.5289 25.6176 29.396 25.8806 28.2573 26.08C27.7184 26.1608 27.3561 26.4185 27.0401 26.8326C26.1733 27.907 25.0546 28.6828 23.6724 29.0327C22.667 29.2842 21.8996 28.6145 22.0015 27.6093C22.0161 27.4152 22.0307 27.2211 22.0772 27.0241C22.0946 26.8619 22.0512 26.7373 21.8861 26.6879C21.7876 26.6647 21.721 26.6386 21.6197 26.5835C21.1475 26.337 21.0174 25.9632 21.1973 25.465C21.2524 25.3636 21.3046 25.2304 21.3597 25.129C22.4526 23.7129 23.8843 22.8445 25.6227 22.5267ZM24.2735 26.44C25.1716 26.4231 25.9569 26.2236 26.7217 26.1545C26.942 26.1024 27.0637 26.0272 27.1739 25.8244C27.4261 25.4161 27.5799 24.9845 27.6033 24.5325C27.6384 23.8546 27.2969 23.275 26.6683 23.0748C26.2048 22.9239 25.721 22.9034 25.2169 23.0132C24.2694 23.1952 23.4435 23.6554 22.6928 24.2374C22.3016 24.5298 21.945 24.8512 21.6957 25.2914C21.5826 25.4623 21.4985 25.5984 21.4839 25.7925C21.478 26.0822 21.6922 26.3199 22.0196 26.3867C22.315 26.4564 22.3267 26.2304 22.4079 26.0624C22.492 25.9263 22.5443 25.7931 22.6602 25.6541C22.7153 25.5527 22.8399 25.5093 22.976 25.5934C23.1122 25.6775 23.0599 25.8107 22.973 25.915C22.8541 26.0221 22.77 26.1582 22.7178 26.2915C22.6627 26.3928 22.7032 26.4856 22.8336 26.5059C22.964 26.5263 23.0943 26.5466 23.2218 26.5351C23.6361 26.4976 24.0185 26.4631 24.2735 26.44ZM26.7506 26.4732C26.203 26.4584 25.6988 26.5682 25.1918 26.6462C24.3689 26.7848 23.5432 26.8916 22.7031 26.839C22.5727 26.8187 22.4828 26.891 22.4335 27.0562C22.3638 27.3516 22.326 27.6442 22.3867 27.96C22.4675 28.499 22.9135 28.8121 23.4467 28.6675C24.8345 28.3814 25.8519 27.5505 26.7506 26.4732Z" fill="#93001D"></path><path d="M43.4299 20.853C42.9518 20.8962 42.4824 21.035 42.0506 21.2347C40.4481 21.99 39.167 23.1018 38.1725 24.5412C38.0015 24.7816 37.8941 25.0162 37.7868 25.2508C37.6766 25.4535 37.6012 25.6853 37.5924 25.9431C37.5718 26.4269 37.7513 26.6356 38.2641 26.6214C39.0638 26.5812 39.8461 26.3499 40.6256 26.0866C42.4047 25.5081 44.21 24.863 45.9891 24.2845C47.9537 23.625 49.9617 23.0901 51.9755 22.6189C52.4797 22.5091 52.9867 22.4311 53.4909 22.3213C53.714 22.3011 53.9399 22.3128 54.1369 22.3593C54.2354 22.3825 54.3368 22.4376 54.3135 22.5361C54.2932 22.6664 54.1976 22.6751 54.0991 22.6519C53.3227 22.5935 52.5983 22.7554 51.8768 22.9491C48.1361 23.8655 44.4794 24.9993 40.837 26.2924C40.0256 26.5586 39.2172 26.8565 38.3219 26.9053C38.2263 26.914 38.0988 26.9255 38.0003 26.9023C37.5484 26.8788 37.2675 26.6151 37.2243 26.137C37.1955 25.8183 37.2971 25.52 37.4305 25.2187C37.6945 24.5844 38.0656 24.0689 38.5033 23.5795C39.4367 22.5312 40.4773 21.6018 41.7379 20.9738C42.3841 20.6583 43.0679 20.4037 43.8067 20.4012C44.2558 20.3927 44.6816 20.4828 45.003 20.8393C45.2173 21.077 45.3098 21.3899 45.243 21.7173C45.1966 21.9142 45.0777 22.0214 44.9155 22.0039C44.7185 21.9574 44.6751 21.8328 44.6926 21.6706C44.6697 21.0622 44.4583 20.8564 43.847 20.8474C43.6877 20.8618 43.5602 20.8733 43.4299 20.853Z" fill="#93001D"></path><path d="M74.425 8.28386C74.7437 8.25506 75.0653 8.25812 75.3493 8.20033C75.7578 8.09914 76.204 8.05881 76.6183 8.02137C77.9192 7.83952 79.2259 7.72142 80.5268 7.53958C81.4481 7.42418 82.3695 7.30877 83.2647 7.25999C84.7018 7.16223 86.1069 7.06736 87.5179 7.03623C88.642 7.03102 89.8008 7.0548 90.8871 7.34219C91.0174 7.36253 91.1188 7.41763 91.2492 7.43798C91.3158 7.46409 91.3534 7.52495 91.3273 7.59157C91.3302 7.62344 91.2693 7.66107 91.2056 7.66683C91.1071 7.6436 91.0405 7.6175 90.9739 7.59138C89.9223 7.33299 88.8591 7.30057 87.7669 7.30289C85.003 7.29566 82.2361 7.61 79.4662 7.89248C77.9712 8.05973 76.4791 8.25886 74.987 8.45798C74.7349 8.5129 74.5147 8.56493 74.2597 8.58798C74.0366 8.60814 73.9554 8.77613 73.8742 8.94412C73.4914 9.68559 73.1115 10.4589 72.7287 11.2004C71.18 14.3285 69.7674 17.5407 68.3519 20.721C67.0409 23.6349 65.7327 26.5806 64.4912 29.5524C63.8849 31.0209 63.2439 32.4605 62.7709 33.9813C62.7738 34.0131 62.7477 34.0797 62.7187 34.1145C62.6926 34.1811 62.6288 34.1869 62.5622 34.1608C62.5303 34.1636 62.5246 34.0999 62.5217 34.068C62.4783 33.9434 62.5624 33.8073 62.5856 33.7088C62.9947 32.5473 63.4704 31.4118 63.9462 30.2764C65.237 27.1395 66.6264 24.0258 68.0157 20.9121C69.4863 17.6304 70.9569 14.3487 72.5288 11.1221C72.668 10.8846 72.7782 10.6818 72.8508 10.4182C72.6972 10.4964 72.6449 10.6296 72.558 10.7339C71.4389 12.2166 70.3198 13.6994 69.166 15.1531C68.0412 16.5722 66.8787 17.9303 65.6815 19.2595C64.3683 20.7276 63.0175 22.135 61.4525 23.3046C60.8786 23.7099 60.2729 24.1181 59.6209 24.3698C59.279 24.4971 58.9052 24.6272 58.5141 24.5662C57.9955 24.5167 57.6799 24.2239 57.5411 23.7545C57.4601 23.569 57.4428 23.3778 57.4255 23.1866C57.4082 22.9954 57.4808 22.7318 57.3099 22.6187C57.0782 22.5432 56.939 22.7807 56.7564 22.8936C56.0608 23.3742 55.3682 23.8866 54.6378 24.3382C54.3017 24.5292 53.9655 24.7203 53.6264 24.8794C53.412 24.9952 53.1628 25.082 52.905 25.0732C52.5834 25.0701 52.4386 24.8904 52.4417 24.5688C52.4244 24.3776 52.5056 24.2096 52.5897 24.0735C52.7782 23.6709 53.0362 23.3263 53.329 23.0106C54.2045 22.0319 55.2247 21.2328 56.5112 20.8916C56.885 20.7614 57.2674 20.7268 57.6643 20.8516C57.925 20.8923 58.1306 21.0344 58.2783 21.246C58.3854 21.3648 58.365 21.4952 58.2752 21.5675C58.1564 21.6747 58.026 21.6543 57.9217 21.5674C57.8899 21.5702 57.8522 21.5094 57.8494 21.4775C57.6293 21.1761 57.3367 21.1383 57.018 21.1671C56.6009 21.1727 56.1952 21.3057 55.8271 21.4996C54.6564 22.0553 53.7028 22.8805 53.0301 23.9694C52.9142 24.1084 52.8329 24.2764 52.8155 24.4387C52.7719 24.6675 52.8762 24.7545 53.0964 24.7024C53.3456 24.6157 53.5919 24.497 53.8063 24.3812C54.6004 23.9239 55.3568 23.4057 56.0842 22.9223C56.3857 22.7022 56.6871 22.4822 56.9943 22.3259C57.4203 22.0625 57.6578 22.2017 57.7329 22.6769C57.7559 22.9318 57.7761 23.1549 57.7991 23.4099C57.8915 24.0763 58.2332 24.3024 58.8706 24.2448C59.2502 24.1784 59.6211 24.0163 59.9573 23.8253C60.7252 23.4346 61.3831 22.8932 62.0411 22.3517C63.8265 20.7766 65.4035 19.0276 66.9428 17.2176C69.2069 14.539 71.3377 11.8081 73.3614 8.95834C73.3875 8.89172 73.4165 8.85697 73.4426 8.79035C73.3992 8.66575 73.3065 8.70626 73.2456 8.74389C72.7415 8.85372 72.1997 8.90269 71.6926 8.98065C68.1752 9.52348 64.7127 10.3184 61.308 11.3972C61.1544 11.4754 60.998 11.5217 60.8067 11.5389C60.714 11.5795 60.6184 11.5881 60.5228 11.5967C60.2939 11.5532 60.1521 11.4053 60.1985 11.2084C60.245 11.0114 60.3986 10.9332 60.6332 11.0405C60.7983 11.0899 60.9258 11.0784 61.0822 11.0321C62.1804 10.74 63.3104 10.4451 64.4434 10.1821C65.4169 9.93343 66.3905 9.68479 67.4017 9.497C68.381 9.31209 69.3604 9.12719 70.3397 8.94228C70.7511 8.87296 71.1626 8.80365 71.574 8.73433C72.2056 8.61298 72.8402 8.5235 73.4457 8.46877C73.6369 8.45149 73.7876 8.34147 73.9036 8.20247C74.1848 7.75935 74.4371 7.35099 74.6865 6.91075C75.7566 4.88621 76.9252 2.88489 78.198 0.97054C78.3111 0.799668 78.4589 0.657785 78.572 0.486912C78.6618 0.41453 78.7546 0.374018 78.8559 0.429118C78.9573 0.484216 78.966 0.579827 78.9427 0.678316C78.8934 0.843428 78.8412 0.976669 78.789 1.10991C78.2437 2.18736 77.6261 3.17497 76.9795 4.19732C76.1937 5.45717 75.3732 6.68803 74.5527 7.91889C74.4657 8.02314 74.3759 8.09552 74.425 8.28386Z" fill="#93001D"></path><path d="M73.7435 24.25C73.6916 23.6764 73.8049 23.152 73.9848 22.6538C74.2894 21.7588 74.6983 20.9507 75.1739 20.1687C75.4784 19.6271 75.8176 19.1145 76.1568 18.6019C76.2119 18.5005 76.2989 18.3962 76.3887 18.3239C76.5423 18.2457 76.6727 18.2661 76.7798 18.3849C76.8551 18.5066 76.8347 18.637 76.7159 18.7441C75.5884 19.7778 74.9068 21.1246 74.3586 22.5237C74.1178 23.0595 73.9784 23.6504 74.0332 24.256C74.1255 24.9224 74.4673 25.1485 75.125 24.9606C75.6263 24.8189 76.0871 24.5844 76.5131 24.321C77.3071 23.8637 78.0983 23.3745 78.8866 22.8534C80.6805 21.7273 82.5179 20.7259 84.3899 19.7534C84.5435 19.6753 84.6971 19.5971 84.8826 19.5161C84.9753 19.4756 85.126 19.3656 85.2041 19.5192C85.2504 19.6756 85.0592 19.6929 84.9693 19.7653C84.9375 19.7682 84.9085 19.8029 84.8766 19.8058C82.9408 20.784 81.0774 21.8521 79.2487 22.9492C78.275 23.5513 77.3388 24.2142 76.3275 24.7555C75.9913 24.9465 75.6232 25.1404 75.2147 25.2416C74.3396 25.5135 73.827 25.1743 73.7435 24.25ZM77.9365 16.963C78.0003 16.9572 78.0959 16.9486 78.1596 16.9428C78.3508 16.9256 78.487 17.0096 78.5014 17.169C78.5187 17.3602 78.3651 17.4384 78.2086 17.4846C78.1449 17.4904 78.0492 17.499 77.9536 17.5077C77.7334 17.5597 77.4813 17.6146 77.2669 17.7304C77.0496 17.8143 76.8873 17.7968 76.8411 17.6404C76.76 17.4549 76.8441 17.3188 76.9948 17.2088C77.302 17.0525 77.6207 17.0237 77.9365 16.963Z" fill="#93001D"></path><path d="M89.0218 16.7965C89.4998 16.7533 89.9547 16.8085 90.3891 16.9942C91.1915 17.3394 91.6112 18.0726 91.4716 19.017C91.4338 19.3096 91.3323 19.6079 91.1988 19.9091C91.1205 20.109 91.19 20.167 91.3812 20.1497C91.8564 20.0746 92.3316 19.9995 92.8039 19.8926C94.2555 19.6007 95.7042 19.277 97.1268 19.0199C98.3583 18.7801 99.5897 18.5403 100.789 18.3033C101.137 18.2398 101.522 18.2371 101.864 18.1098C101.896 18.1069 101.96 18.1011 102.024 18.0954C102.09 18.1215 102.189 18.1447 102.194 18.2085C102.203 18.3041 102.11 18.3446 102.047 18.3503C101.731 18.411 101.383 18.4746 101.067 18.5352C100.056 18.723 99.0767 18.9079 98.0655 19.0957C97.0862 19.2806 96.075 19.4684 95.0985 19.6852C93.928 19.8874 92.795 20.1504 91.6563 20.3497C91.1174 20.4306 90.7552 20.6882 90.4391 21.1024C89.5723 22.1768 88.4536 22.9526 87.0715 23.3024C86.0661 23.554 85.2987 22.8843 85.4006 21.8791C85.4152 21.685 85.4298 21.4909 85.4762 21.2939C85.4937 21.1317 85.4503 21.0071 85.2852 20.9577C85.1867 20.9345 85.1201 20.9084 85.0187 20.8533C84.5466 20.6068 84.4164 20.233 84.5963 19.7348C84.6514 19.6334 84.7036 19.5002 84.7587 19.3988C85.8517 17.9826 87.2833 17.1143 89.0218 16.7965ZM87.6726 20.7098C88.5707 20.6929 89.3559 20.4934 90.1208 20.4243C90.341 20.3722 90.4627 20.297 90.5729 20.0942C90.8252 19.6859 90.979 19.2543 91.0024 18.8023C91.0375 18.1244 90.696 17.5448 90.0674 17.3446C89.6039 17.1937 89.1201 17.1732 88.6159 17.283C87.6685 17.465 86.8426 17.9252 86.0919 18.5072C85.7006 18.7996 85.3441 19.121 85.0947 19.5612C84.9816 19.7321 84.8976 19.8682 84.883 20.0623C84.877 20.352 85.0913 20.5897 85.4186 20.6565C85.7141 20.7262 85.7258 20.5002 85.807 20.3322C85.8911 20.1961 85.9433 20.0628 86.0593 19.9238C86.1144 19.8225 86.239 19.7791 86.3751 19.8632C86.5112 19.9473 86.459 20.0805 86.372 20.1847C86.2532 20.2919 86.1691 20.428 86.1169 20.5612C86.0618 20.6626 86.1023 20.7553 86.2327 20.7757C86.363 20.796 86.4934 20.8164 86.6209 20.8049C87.0352 20.7674 87.4176 20.7329 87.6726 20.7098ZM90.1496 20.743C89.6021 20.7282 89.0979 20.838 88.5909 20.916C87.768 21.0546 86.9423 21.1614 86.1021 21.1088C85.9718 21.0885 85.8819 21.1608 85.8326 21.3259C85.7629 21.6214 85.7251 21.914 85.7858 22.2298C85.8666 22.7687 86.3126 23.0819 86.8457 22.9373C88.2336 22.6512 89.251 21.8202 90.1496 20.743Z" fill="#93001D"></path><path d="M108.678 19.229C109.217 19.1481 109.84 18.9312 110.431 18.7171C112.613 17.9737 114.804 17.3258 117.009 16.8374C117.953 16.6235 118.898 16.4096 119.86 16.3869C120.019 16.3725 120.175 16.3262 120.312 16.4103C120.41 16.4335 120.48 16.4915 120.456 16.59C120.43 16.6566 120.337 16.6971 120.271 16.671C119.946 16.6361 119.596 16.6678 119.277 16.6966C118.069 16.8379 116.91 17.1676 115.745 17.4335C113.543 17.9539 111.425 18.6915 109.307 19.4292C109.057 19.516 108.773 19.5738 108.519 19.5968C107.884 19.6863 107.499 19.3355 107.47 18.6634C107.47 18.3099 107.537 17.9826 107.601 17.6234C107.72 17.1628 107.839 16.7022 107.958 16.2416C108.008 16.0765 108.115 15.8419 107.909 15.6998C107.738 15.5868 107.527 15.7344 107.373 15.8126C106.675 16.2612 106.052 16.8317 105.463 17.4311C104.788 18.1347 104.179 18.8645 103.573 19.6261C103.254 20.0084 102.901 20.3616 102.512 20.6859C102.364 20.8278 102.185 20.9726 101.999 21.0536C101.562 21.1895 101.258 21.0242 101.153 20.5838C101.104 20.3955 101.122 20.2332 101.136 20.0391C101.203 19.3583 101.401 18.6979 101.699 18.0925C101.943 17.5886 102.25 17.0788 102.494 16.5749C102.523 16.5401 102.52 16.5082 102.552 16.5054C102.636 16.3692 102.758 16.294 102.926 16.3752C103.094 16.4564 103.108 16.6157 103.027 16.7837C102.966 16.8214 102.94 16.888 102.882 16.9575C102.433 17.6728 101.986 18.4201 101.774 19.2746C101.702 19.5382 101.629 19.8018 101.623 20.0915C101.637 20.2509 101.591 20.4479 101.724 20.5001C101.863 20.616 102.008 20.4423 102.095 20.338C102.336 20.1556 102.539 19.9124 102.742 19.6691C103.295 19.0407 103.846 18.3805 104.4 17.7521C105.04 17.0194 105.719 16.3477 106.536 15.7918C106.808 15.6066 107.081 15.4213 107.391 15.2969C107.547 15.2506 107.672 15.2072 107.834 15.2247C108.156 15.2277 108.332 15.4046 108.358 15.6914C108.407 15.8797 108.361 16.0767 108.312 16.2418C108.242 16.5373 108.143 16.8675 108.074 17.163C107.92 17.5946 107.833 18.0523 107.812 18.5361C107.8 19.1155 108.009 19.2895 108.678 19.229Z" fill="#93001D"></path><path d="M0.679532 38.7579C0.561246 37.8046 0.703682 36.8921 0.877988 35.9767C1.3485 33.7172 2.12025 31.5911 3.05423 29.4825C4.77437 25.4071 7.03323 21.6043 9.35871 17.8276C11.2637 14.7316 13.273 11.7225 15.3808 8.73664C16.2941 7.46527 17.1755 6.19678 17.9845 4.83844C18.0396 4.73707 18.1266 4.63282 18.2164 4.56043C18.3034 4.45618 18.399 4.44754 18.5351 4.53163C18.6365 4.58673 18.6799 4.71133 18.6595 4.84169C18.6044 4.94306 18.5493 5.04443 18.4942 5.1458C17.3287 6.82554 16.1632 8.50527 14.931 10.1589C13.2437 12.4641 11.6577 14.8245 10.1094 17.2457C8.64512 19.5308 7.2185 21.8767 5.89325 24.2778C4.4317 26.9482 3.10339 29.6708 2.11394 32.5877C1.58005 34.1461 1.11567 35.7625 0.975741 37.4137C0.911633 38.1264 0.940253 38.7986 1.1311 39.4882C1.14551 39.6475 1.22365 39.8011 1.30179 39.9547C1.61436 40.5691 2.08359 40.7837 2.73846 40.5639C3.33247 40.3817 3.85122 40.0777 4.33521 39.7448C5.69159 38.7547 6.94084 37.6457 8.18721 36.5049C11.9234 33.0506 15.7639 29.6832 19.7839 26.5245C20.2621 26.1278 20.7751 25.7602 21.2562 25.3954C21.3142 25.3259 21.4069 25.2854 21.4678 25.2477C21.5258 25.1782 21.6214 25.1696 21.6938 25.2594C21.7314 25.3203 21.6734 25.3898 21.6126 25.4274C21.5864 25.4941 21.5256 25.5317 21.4647 25.5693C16.868 29.1014 12.4566 32.906 8.18702 36.8584C7.06238 37.9239 5.93773 38.9895 4.6712 39.9072C4.06836 40.3473 3.43078 40.7583 2.64555 40.9578C1.79657 41.1631 1.23768 40.6674 0.968505 40.1776C0.765947 39.714 0.690869 39.2388 0.679532 38.7579Z" stroke="#93001D" stroke-width="0.6" mask="url(#path-1-outside-1_470_308)"></path><path d="M25.6227 22.5267C26.1008 22.4835 26.5556 22.5388 26.9901 22.7244C27.7924 23.0696 28.2121 23.8028 28.0725 24.7472C28.0347 25.0398 27.9332 25.3381 27.7998 25.6394C27.7214 25.8392 27.7909 25.8972 27.9821 25.8799C28.4573 25.8048 28.9325 25.7298 29.4048 25.6228C30.8564 25.331 32.3051 25.0072 33.7278 24.7501C34.9592 24.5103 36.1906 24.2705 37.3901 24.0335C37.7378 23.97 38.1231 23.9673 38.4651 23.84C38.4969 23.8371 38.5607 23.8314 38.6244 23.8256C38.6911 23.8517 38.7895 23.8749 38.7953 23.9387C38.8039 24.0343 38.7112 24.0748 38.6475 24.0806C38.3317 24.1412 37.984 24.2048 37.6681 24.2655C36.6569 24.4532 35.6776 24.6382 34.6664 24.8259C33.6871 25.0108 32.6759 25.1986 31.6994 25.4154C30.5289 25.6176 29.396 25.8806 28.2573 26.08C27.7184 26.1608 27.3561 26.4185 27.0401 26.8326C26.1733 27.907 25.0546 28.6828 23.6724 29.0327C22.667 29.2842 21.8996 28.6145 22.0015 27.6093C22.0161 27.4152 22.0307 27.2211 22.0772 27.0241C22.0946 26.8619 22.0512 26.7373 21.8861 26.6879C21.7876 26.6647 21.721 26.6386 21.6197 26.5835C21.1475 26.337 21.0174 25.9632 21.1973 25.465C21.2524 25.3636 21.3046 25.2304 21.3597 25.129C22.4526 23.7129 23.8843 22.8445 25.6227 22.5267ZM24.2735 26.44C25.1716 26.4231 25.9569 26.2236 26.7217 26.1545C26.942 26.1024 27.0637 26.0272 27.1739 25.8244C27.4261 25.4161 27.5799 24.9845 27.6033 24.5325C27.6384 23.8546 27.2969 23.275 26.6683 23.0748C26.2048 22.9239 25.721 22.9034 25.2169 23.0132C24.2694 23.1952 23.4435 23.6554 22.6928 24.2374C22.3016 24.5298 21.945 24.8512 21.6957 25.2914C21.5826 25.4623 21.4985 25.5984 21.4839 25.7925C21.478 26.0822 21.6922 26.3199 22.0196 26.3867C22.315 26.4564 22.3267 26.2304 22.4079 26.0624C22.492 25.9263 22.5443 25.7931 22.6602 25.6541C22.7153 25.5527 22.8399 25.5093 22.976 25.5934C23.1122 25.6775 23.0599 25.8107 22.973 25.915C22.8541 26.0221 22.77 26.1582 22.7178 26.2915C22.6627 26.3928 22.7032 26.4856 22.8336 26.5059C22.964 26.5263 23.0943 26.5466 23.2218 26.5351C23.6361 26.4976 24.0185 26.4631 24.2735 26.44ZM26.7506 26.4732C26.203 26.4584 25.6988 26.5682 25.1918 26.6462C24.3689 26.7848 23.5432 26.8916 22.7031 26.839C22.5727 26.8187 22.4828 26.891 22.4335 27.0562C22.3638 27.3516 22.326 27.6442 22.3867 27.96C22.4675 28.499 22.9135 28.8121 23.4467 28.6675C24.8345 28.3814 25.8519 27.5505 26.7506 26.4732Z" stroke="#93001D" stroke-width="0.6" mask="url(#path-1-outside-1_470_308)"></path><path d="M43.4299 20.853C42.9518 20.8962 42.4824 21.035 42.0506 21.2347C40.4481 21.99 39.167 23.1018 38.1725 24.5412C38.0015 24.7816 37.8941 25.0162 37.7868 25.2508C37.6766 25.4535 37.6012 25.6853 37.5924 25.9431C37.5718 26.4269 37.7513 26.6356 38.2641 26.6214C39.0638 26.5812 39.8461 26.3499 40.6256 26.0866C42.4047 25.5081 44.21 24.863 45.9891 24.2845C47.9537 23.625 49.9617 23.0901 51.9755 22.6189C52.4797 22.5091 52.9867 22.4311 53.4909 22.3213C53.714 22.3011 53.9399 22.3128 54.1369 22.3593C54.2354 22.3825 54.3368 22.4376 54.3135 22.5361C54.2932 22.6664 54.1976 22.6751 54.0991 22.6519C53.3227 22.5935 52.5983 22.7554 51.8768 22.9491C48.1361 23.8655 44.4794 24.9993 40.837 26.2924C40.0256 26.5586 39.2172 26.8565 38.3219 26.9053C38.2263 26.914 38.0988 26.9255 38.0003 26.9023C37.5484 26.8788 37.2675 26.6151 37.2243 26.137C37.1955 25.8183 37.2971 25.52 37.4305 25.2187C37.6945 24.5844 38.0656 24.0689 38.5033 23.5795C39.4367 22.5312 40.4773 21.6018 41.7379 20.9738C42.3841 20.6583 43.0679 20.4037 43.8067 20.4012C44.2558 20.3927 44.6816 20.4828 45.003 20.8393C45.2173 21.077 45.3098 21.3899 45.243 21.7173C45.1966 21.9142 45.0777 22.0214 44.9155 22.0039C44.7185 21.9574 44.6751 21.8328 44.6926 21.6706C44.6697 21.0622 44.4583 20.8564 43.847 20.8474C43.6877 20.8618 43.5602 20.8733 43.4299 20.853Z" stroke="#93001D" stroke-width="0.6" mask="url(#path-1-outside-1_470_308)"></path><path d="M74.425 8.28386C74.7437 8.25506 75.0653 8.25812 75.3493 8.20033C75.7578 8.09914 76.204 8.05881 76.6183 8.02137C77.9192 7.83952 79.2259 7.72142 80.5268 7.53958C81.4481 7.42418 82.3695 7.30877 83.2647 7.25999C84.7018 7.16223 86.1069 7.06736 87.5179 7.03623C88.642 7.03102 89.8008 7.0548 90.8871 7.34219C91.0174 7.36253 91.1188 7.41763 91.2492 7.43798C91.3158 7.46409 91.3534 7.52495 91.3273 7.59157C91.3302 7.62344 91.2693 7.66107 91.2056 7.66683C91.1071 7.6436 91.0405 7.6175 90.9739 7.59138C89.9223 7.33299 88.8591 7.30057 87.7669 7.30289C85.003 7.29566 82.2361 7.61 79.4662 7.89248C77.9712 8.05973 76.4791 8.25886 74.987 8.45798C74.7349 8.5129 74.5147 8.56493 74.2597 8.58798C74.0366 8.60814 73.9554 8.77613 73.8742 8.94412C73.4914 9.68559 73.1115 10.4589 72.7287 11.2004C71.18 14.3285 69.7674 17.5407 68.3519 20.721C67.0409 23.6349 65.7327 26.5806 64.4912 29.5524C63.8849 31.0209 63.2439 32.4605 62.7709 33.9813C62.7738 34.0131 62.7477 34.0797 62.7187 34.1145C62.6926 34.1811 62.6288 34.1869 62.5622 34.1608C62.5303 34.1636 62.5246 34.0999 62.5217 34.068C62.4783 33.9434 62.5624 33.8073 62.5856 33.7088C62.9947 32.5473 63.4704 31.4118 63.9462 30.2764C65.237 27.1395 66.6264 24.0258 68.0157 20.9121C69.4863 17.6304 70.9569 14.3487 72.5288 11.1221C72.668 10.8846 72.7782 10.6818 72.8508 10.4182C72.6972 10.4964 72.6449 10.6296 72.558 10.7339C71.4389 12.2166 70.3198 13.6994 69.166 15.1531C68.0412 16.5722 66.8787 17.9303 65.6815 19.2595C64.3683 20.7276 63.0175 22.135 61.4525 23.3046C60.8786 23.7099 60.2729 24.1181 59.6209 24.3698C59.279 24.4971 58.9052 24.6272 58.5141 24.5662C57.9955 24.5167 57.6799 24.2239 57.5411 23.7545C57.4601 23.569 57.4428 23.3778 57.4255 23.1866C57.4082 22.9954 57.4808 22.7318 57.3099 22.6187C57.0782 22.5432 56.939 22.7807 56.7564 22.8936C56.0608 23.3742 55.3682 23.8866 54.6378 24.3382C54.3017 24.5292 53.9655 24.7203 53.6264 24.8794C53.412 24.9952 53.1628 25.082 52.905 25.0732C52.5834 25.0701 52.4386 24.8904 52.4417 24.5688C52.4244 24.3776 52.5056 24.2096 52.5897 24.0735C52.7782 23.6709 53.0362 23.3263 53.329 23.0106C54.2045 22.0319 55.2247 21.2328 56.5112 20.8916C56.885 20.7614 57.2674 20.7268 57.6643 20.8516C57.925 20.8923 58.1306 21.0344 58.2783 21.246C58.3854 21.3648 58.365 21.4952 58.2752 21.5675C58.1564 21.6747 58.026 21.6543 57.9217 21.5674C57.8899 21.5702 57.8522 21.5094 57.8494 21.4775C57.6293 21.1761 57.3367 21.1383 57.018 21.1671C56.6009 21.1727 56.1952 21.3057 55.8271 21.4996C54.6564 22.0553 53.7028 22.8805 53.0301 23.9694C52.9142 24.1084 52.8329 24.2764 52.8155 24.4387C52.7719 24.6675 52.8762 24.7545 53.0964 24.7024C53.3456 24.6157 53.5919 24.497 53.8063 24.3812C54.6004 23.9239 55.3568 23.4057 56.0842 22.9223C56.3857 22.7022 56.6871 22.4822 56.9943 22.3259C57.4203 22.0625 57.6578 22.2017 57.7329 22.6769C57.7559 22.9318 57.7761 23.1549 57.7991 23.4099C57.8915 24.0763 58.2332 24.3024 58.8706 24.2448C59.2502 24.1784 59.6211 24.0163 59.9573 23.8253C60.7252 23.4346 61.3831 22.8932 62.0411 22.3517C63.8265 20.7766 65.4035 19.0276 66.9428 17.2176C69.2069 14.539 71.3377 11.8081 73.3614 8.95834C73.3875 8.89172 73.4165 8.85697 73.4426 8.79035C73.3992 8.66575 73.3065 8.70626 73.2456 8.74389C72.7415 8.85372 72.1997 8.90269 71.6926 8.98065C68.1752 9.52348 64.7127 10.3184 61.308 11.3972C61.1544 11.4754 60.998 11.5217 60.8067 11.5389C60.714 11.5795 60.6184 11.5881 60.5228 11.5967C60.2939 11.5532 60.1521 11.4053 60.1985 11.2084C60.245 11.0114 60.3986 10.9332 60.6332 11.0405C60.7983 11.0899 60.9258 11.0784 61.0822 11.0321C62.1804 10.74 63.3104 10.4451 64.4434 10.1821C65.4169 9.93343 66.3905 9.68479 67.4017 9.497C68.381 9.31209 69.3604 9.12719 70.3397 8.94228C70.7511 8.87296 71.1626 8.80365 71.574 8.73433C72.2056 8.61298 72.8402 8.5235 73.4457 8.46877C73.6369 8.45149 73.7876 8.34147 73.9036 8.20247C74.1848 7.75935 74.4371 7.35099 74.6865 6.91075C75.7566 4.88621 76.9252 2.88489 78.198 0.97054C78.3111 0.799668 78.4589 0.657785 78.572 0.486912C78.6618 0.41453 78.7546 0.374018 78.8559 0.429118C78.9573 0.484216 78.966 0.579827 78.9427 0.678316C78.8934 0.843428 78.8412 0.976669 78.789 1.10991C78.2437 2.18736 77.6261 3.17497 76.9795 4.19732C76.1937 5.45717 75.3732 6.68803 74.5527 7.91889C74.4657 8.02314 74.3759 8.09552 74.425 8.28386Z" stroke="#93001D" stroke-width="0.6" mask="url(#path-1-outside-1_470_308)"></path><path d="M73.7435 24.25C73.6916 23.6764 73.8049 23.152 73.9848 22.6538C74.2894 21.7588 74.6983 20.9507 75.1739 20.1687C75.4784 19.6271 75.8176 19.1145 76.1568 18.6019C76.2119 18.5005 76.2989 18.3962 76.3887 18.3239C76.5423 18.2457 76.6727 18.2661 76.7798 18.3849C76.8551 18.5066 76.8347 18.637 76.7159 18.7441C75.5884 19.7778 74.9068 21.1246 74.3586 22.5237C74.1178 23.0595 73.9784 23.6504 74.0332 24.256C74.1255 24.9224 74.4673 25.1485 75.125 24.9606C75.6263 24.8189 76.0871 24.5844 76.5131 24.321C77.3071 23.8637 78.0983 23.3745 78.8866 22.8534C80.6805 21.7273 82.5179 20.7259 84.3899 19.7534C84.5435 19.6753 84.6971 19.5971 84.8826 19.5161C84.9753 19.4756 85.126 19.3656 85.2041 19.5192C85.2504 19.6756 85.0592 19.6929 84.9693 19.7653C84.9375 19.7682 84.9085 19.8029 84.8766 19.8058C82.9408 20.784 81.0774 21.8521 79.2487 22.9492C78.275 23.5513 77.3388 24.2142 76.3275 24.7555C75.9913 24.9465 75.6232 25.1404 75.2147 25.2416C74.3396 25.5135 73.827 25.1743 73.7435 24.25ZM77.9365 16.963C78.0003 16.9572 78.0959 16.9486 78.1596 16.9428C78.3508 16.9256 78.487 17.0096 78.5014 17.169C78.5187 17.3602 78.3651 17.4384 78.2086 17.4846C78.1449 17.4904 78.0492 17.499 77.9536 17.5077C77.7334 17.5597 77.4813 17.6146 77.2669 17.7304C77.0496 17.8143 76.8873 17.7968 76.8411 17.6404C76.76 17.4549 76.8441 17.3188 76.9948 17.2088C77.302 17.0525 77.6207 17.0237 77.9365 16.963Z" stroke="#93001D" stroke-width="0.6" mask="url(#path-1-outside-1_470_308)"></path><path d="M89.0218 16.7965C89.4998 16.7533 89.9547 16.8085 90.3891 16.9942C91.1915 17.3394 91.6112 18.0726 91.4716 19.017C91.4338 19.3096 91.3323 19.6079 91.1988 19.9091C91.1205 20.109 91.19 20.167 91.3812 20.1497C91.8564 20.0746 92.3316 19.9995 92.8039 19.8926C94.2555 19.6007 95.7042 19.277 97.1268 19.0199C98.3583 18.7801 99.5897 18.5403 100.789 18.3033C101.137 18.2398 101.522 18.2371 101.864 18.1098C101.896 18.1069 101.96 18.1011 102.024 18.0954C102.09 18.1215 102.189 18.1447 102.194 18.2085C102.203 18.3041 102.11 18.3446 102.047 18.3503C101.731 18.411 101.383 18.4746 101.067 18.5352C100.056 18.723 99.0767 18.9079 98.0655 19.0957C97.0862 19.2806 96.075 19.4684 95.0985 19.6852C93.928 19.8874 92.795 20.1504 91.6563 20.3497C91.1174 20.4306 90.7552 20.6882 90.4391 21.1024C89.5723 22.1768 88.4536 22.9526 87.0715 23.3024C86.0661 23.554 85.2987 22.8843 85.4006 21.8791C85.4152 21.685 85.4298 21.4909 85.4762 21.2939C85.4937 21.1317 85.4503 21.0071 85.2852 20.9577C85.1867 20.9345 85.1201 20.9084 85.0187 20.8533C84.5466 20.6068 84.4164 20.233 84.5963 19.7348C84.6514 19.6334 84.7036 19.5002 84.7587 19.3988C85.8517 17.9826 87.2833 17.1143 89.0218 16.7965ZM87.6726 20.7098C88.5707 20.6929 89.3559 20.4934 90.1208 20.4243C90.341 20.3722 90.4627 20.297 90.5729 20.0942C90.8252 19.6859 90.979 19.2543 91.0024 18.8023C91.0375 18.1244 90.696 17.5448 90.0674 17.3446C89.6039 17.1937 89.1201 17.1732 88.6159 17.283C87.6685 17.465 86.8426 17.9252 86.0919 18.5072C85.7006 18.7996 85.3441 19.121 85.0947 19.5612C84.9816 19.7321 84.8976 19.8682 84.883 20.0623C84.877 20.352 85.0913 20.5897 85.4186 20.6565C85.7141 20.7262 85.7258 20.5002 85.807 20.3322C85.8911 20.1961 85.9433 20.0628 86.0593 19.9238C86.1144 19.8225 86.239 19.7791 86.3751 19.8632C86.5112 19.9473 86.459 20.0805 86.372 20.1847C86.2532 20.2919 86.1691 20.428 86.1169 20.5612C86.0618 20.6626 86.1023 20.7553 86.2327 20.7757C86.363 20.796 86.4934 20.8164 86.6209 20.8049C87.0352 20.7674 87.4176 20.7329 87.6726 20.7098ZM90.1496 20.743C89.6021 20.7282 89.0979 20.838 88.5909 20.916C87.768 21.0546 86.9423 21.1614 86.1021 21.1088C85.9718 21.0885 85.8819 21.1608 85.8326 21.3259C85.7629 21.6214 85.7251 21.914 85.7858 22.2298C85.8666 22.7687 86.3126 23.0819 86.8457 22.9373C88.2336 22.6512 89.251 21.8202 90.1496 20.743Z" stroke="#93001D" stroke-width="0.6" mask="url(#path-1-outside-1_470_308)"></path><path d="M108.678 19.229C109.217 19.1481 109.84 18.9312 110.431 18.7171C112.613 17.9737 114.804 17.3258 117.009 16.8374C117.953 16.6235 118.898 16.4096 119.86 16.3869C120.019 16.3725 120.175 16.3262 120.312 16.4103C120.41 16.4335 120.48 16.4915 120.456 16.59C120.43 16.6566 120.337 16.6971 120.271 16.671C119.946 16.6361 119.596 16.6678 119.277 16.6966C118.069 16.8379 116.91 17.1676 115.745 17.4335C113.543 17.9539 111.425 18.6915 109.307 19.4292C109.057 19.516 108.773 19.5738 108.519 19.5968C107.884 19.6863 107.499 19.3355 107.47 18.6634C107.47 18.3099 107.537 17.9826 107.601 17.6234C107.72 17.1628 107.839 16.7022 107.958 16.2416C108.008 16.0765 108.115 15.8419 107.909 15.6998C107.738 15.5868 107.527 15.7344 107.373 15.8126C106.675 16.2612 106.052 16.8317 105.463 17.4311C104.788 18.1347 104.179 18.8645 103.573 19.6261C103.254 20.0084 102.901 20.3616 102.512 20.6859C102.364 20.8278 102.185 20.9726 101.999 21.0536C101.562 21.1895 101.258 21.0242 101.153 20.5838C101.104 20.3955 101.122 20.2332 101.136 20.0391C101.203 19.3583 101.401 18.6979 101.699 18.0925C101.943 17.5886 102.25 17.0788 102.494 16.5749C102.523 16.5401 102.52 16.5082 102.552 16.5054C102.636 16.3692 102.758 16.294 102.926 16.3752C103.094 16.4564 103.108 16.6157 103.027 16.7837C102.966 16.8214 102.94 16.888 102.882 16.9575C102.433 17.6728 101.986 18.4201 101.774 19.2746C101.702 19.5382 101.629 19.8018 101.623 20.0915C101.637 20.2509 101.591 20.4479 101.724 20.5001C101.863 20.616 102.008 20.4423 102.095 20.338C102.336 20.1556 102.539 19.9124 102.742 19.6691C103.295 19.0407 103.846 18.3805 104.4 17.7521C105.04 17.0194 105.719 16.3477 106.536 15.7918C106.808 15.6066 107.081 15.4213 107.391 15.2969C107.547 15.2506 107.672 15.2072 107.834 15.2247C108.156 15.2277 108.332 15.4046 108.358 15.6914C108.407 15.8797 108.361 16.0767 108.312 16.2418C108.242 16.5373 108.143 16.8675 108.074 17.163C107.92 17.5946 107.833 18.0523 107.812 18.5361C107.8 19.1155 108.009 19.2895 108.678 19.229Z" stroke="#93001D" stroke-width="0.6" mask="url(#path-1-outside-1_470_308)"></path></svg> 