<?xml version="1.0" encoding="UTF-8"?> <svg xmlns="http://www.w3.org/2000/svg" width="277" height="78" viewBox="0 0 277 78" fill="none"><path d="M7.73241 3.30408V21.4521C9.08441 21.6254 10.9044 21.7121 13.1924 21.7121C16.0004 21.7121 18.2884 20.8627 20.0564 19.1641C21.8591 17.4654 22.7604 14.8654 22.7604 11.3641C22.7604 7.93208 21.9111 5.43608 20.2124 3.87608C18.5137 2.28141 16.3817 1.48408 13.8164 1.48408C11.9444 1.48408 10.2284 1.60541 8.66841 1.84808C8.04441 1.95208 7.73241 2.43741 7.73241 3.30408ZM10.5404 35.9081V37.0001C9.46574 36.9307 7.85374 36.8961 5.70441 36.8961C3.52041 36.8961 1.89107 36.9307 0.816406 37.0001V35.9081C0.98974 35.8387 1.61374 35.7867 2.68841 35.7521C3.34707 35.7174 3.67641 35.2321 3.67641 34.2961V3.30408C3.67641 2.36808 3.34707 1.88275 2.68841 1.84808L0.816406 1.69208V0.600078H13.8164C17.6644 0.600078 20.7844 1.48408 23.1764 3.25208C25.5684 4.98541 26.7817 7.68941 26.8164 11.3641C26.8511 17.1534 24.1124 20.6721 18.6004 21.9201L23.0204 34.2961C23.3324 35.2321 23.8177 35.7174 24.4764 35.7521L26.4524 35.9081L26.8164 37.0001C25.7417 36.9307 24.1124 36.8961 21.9284 36.8961C19.7791 36.8961 18.1671 36.9307 17.0924 37.0001L16.7284 35.9081C16.8324 35.8387 17.4217 35.7867 18.4964 35.7521C19.1204 35.7174 19.2764 35.2321 18.9644 34.2961L14.7004 22.3881C14.3884 22.4227 13.8857 22.4401 13.1924 22.4401L7.73241 22.7001V34.2961C7.73241 35.2321 8.04441 35.7174 8.66841 35.7521L10.5404 35.9081Z" fill="#EAE1D9"></path><path d="M49.0908 19.9493H57.294V20.672C56.1612 20.7631 55.3213 21.017 54.7744 21.4337C54.2406 21.8373 53.4007 23.0743 52.2549 25.1446C51.1091 27.2149 49.82 29.1485 48.3877 30.9454C49.5466 32.2996 50.5817 33.2501 51.4932 33.797C52.4046 34.3308 53.3226 34.5977 54.2471 34.5977C55.1455 34.5977 55.9072 34.3569 56.5322 33.8751C57.1572 33.3803 57.6 32.6576 57.8604 31.7071L58.583 32.2345C58.1013 34.0704 57.3265 35.4246 56.2588 36.297C55.1911 37.1694 53.9476 37.6055 52.5283 37.6055C51.4606 37.6055 50.3734 37.3191 49.2666 36.7462C48.1729 36.1602 46.975 35.1772 45.6729 33.797C44.0583 35.2292 42.6 36.2253 41.2979 36.7852C40.0088 37.3321 38.6286 37.6055 37.1572 37.6055C35.0088 37.6055 33.3031 37.0326 32.0401 35.8868C30.777 34.741 30.1455 33.3738 30.1455 31.7852C30.1455 30.2097 30.7119 28.6407 31.8447 27.0782C32.9776 25.5027 35.1065 23.8751 38.2315 22.1954C37.6195 20.8412 37.2028 19.7345 36.9815 18.8751C36.7601 18.0027 36.6494 17.1694 36.6494 16.3751C36.6494 14.1485 37.4697 12.4493 39.1104 11.2774C40.3864 10.366 41.8382 9.91024 43.4658 9.91024C45.0153 9.91024 46.2783 10.3725 47.2549 11.297C48.2315 12.2084 48.7197 13.3347 48.7197 14.6759C48.7197 16.0561 48.2445 17.267 47.294 18.3087C46.3565 19.3503 44.6898 20.4897 42.294 21.7266C43.9476 24.6694 45.6729 27.3647 47.4697 29.8126C49.7614 27.0782 50.9072 24.7735 50.9072 22.8985C50.9072 22.2996 50.7119 21.7657 50.3213 21.297C50.0349 20.9454 49.6247 20.7371 49.0908 20.672V19.9493ZM41.6299 20.4571C43.2445 19.6889 44.4489 18.8165 45.2432 17.8399C46.0505 16.8634 46.4541 15.7761 46.4541 14.5782C46.4541 13.6407 46.1612 12.866 45.5752 12.254C45.0023 11.642 44.2862 11.336 43.4268 11.336C42.294 11.336 41.4346 11.7332 40.8487 12.5274C40.2757 13.3087 39.9893 14.0769 39.9893 14.8321C39.9893 15.4701 40.1 16.1863 40.3213 16.9805C40.5427 17.7618 40.9789 18.9207 41.6299 20.4571ZM44.6572 32.6641C42.9385 30.3204 41.7471 28.6082 41.083 27.5274C40.419 26.4467 39.6898 25.1055 38.8955 23.504C37.333 24.4024 36.1546 25.392 35.3604 26.4727C34.5791 27.5535 34.1885 28.7253 34.1885 29.9884C34.1885 31.3816 34.6377 32.6055 35.5362 33.6602C36.4346 34.7149 37.6455 35.2423 39.169 35.2423C39.9893 35.2423 40.777 35.0795 41.5322 34.754C42.3005 34.4285 43.3421 33.7319 44.6572 32.6641Z" fill="#EAE1D9"></path><path d="M71.0815 37.0001C70.0068 36.9307 68.3948 36.8961 66.2455 36.8961C64.0615 36.8961 62.4322 36.9307 61.3575 37.0001V35.9081C61.5308 35.8387 62.1548 35.7867 63.2295 35.7521C63.8882 35.7174 64.2175 35.2321 64.2175 34.2961V3.30408C64.2175 2.36808 63.8882 1.88275 63.2295 1.84808L61.3575 1.69208V0.600078C63.5068 0.669412 65.1362 0.704079 66.2455 0.704079C67.3202 0.704079 68.9322 0.669412 71.0815 0.600078V1.69208C70.9428 1.76141 70.3188 1.81341 69.2095 1.84808C68.5855 1.88275 68.2735 2.36808 68.2735 3.30408V34.2961C68.2735 35.2321 68.5855 35.7174 69.2095 35.7521L71.0815 35.9081V37.0001Z" fill="#EAE1D9"></path><path d="M88.2634 1.84808L86.3394 1.69208L86.0794 0.600078C88.2981 0.669412 89.9274 0.704079 90.9674 0.704079C92.1114 0.704079 93.7234 0.669412 95.8034 0.600078L96.0634 1.69208C95.9248 1.76141 95.3181 1.81341 94.2434 1.84808C93.6194 1.88275 93.4114 2.36808 93.6194 3.30408L100.899 34.4001L108.439 2.21208C108.335 2.07341 108.075 1.96941 107.659 1.90008C107.278 1.79608 106.914 1.74408 106.567 1.74408L106.047 1.69208L105.787 0.600078C108.006 0.669412 109.635 0.704079 110.675 0.704079C111.75 0.704079 113.362 0.669412 115.511 0.600078L115.771 1.69208C115.633 1.76141 115.026 1.81341 113.951 1.84808C113.327 1.88275 113.119 2.36808 113.327 3.30408L120.607 34.4001L127.835 3.30408C127.905 3.13074 127.939 2.94008 127.939 2.73208C127.939 2.52408 127.887 2.33341 127.783 2.16008C127.679 1.95208 127.506 1.84808 127.263 1.84808L125.391 1.69208L125.651 0.600078C127.801 0.669412 128.962 0.704079 129.135 0.704079C129.343 0.704079 130.522 0.669412 132.671 0.600078L132.411 1.69208C132.238 1.76141 131.597 1.81341 130.487 1.84808C129.829 1.88275 129.395 2.36808 129.187 3.30408L121.335 37.0001C120.885 36.9307 120.191 36.8961 119.255 36.8961C118.319 36.8961 117.609 36.9307 117.123 37.0001L109.375 3.87608L101.627 37.0001C100.171 36.8961 98.7674 36.8961 97.4154 37.0001L89.5634 3.30408C89.3554 2.36808 88.9221 1.88275 88.2634 1.84808Z" fill="#EAE1D9"></path><path d="M136.973 3.30408C136.973 2.36808 136.643 1.88275 135.985 1.84808L134.113 1.69208V0.600078C135.083 0.669412 138.359 0.704079 143.941 0.704079C149.522 0.704079 152.798 0.669412 153.769 0.600078L155.329 6.73608H154.029L152.261 2.99208C152.018 2.43741 151.654 2.10808 151.169 2.00408C150.683 1.86541 149.782 1.79608 148.465 1.79608C144.686 1.83074 142.623 1.84808 142.277 1.84808C141.445 1.91741 141.029 2.40275 141.029 3.30408V15.7841H149.453L150.337 20.7241H149.141L148.049 18.1761C147.737 17.6214 147.407 17.2921 147.061 17.1881C146.749 17.0494 146.142 16.9801 145.241 16.9801H141.029V34.2961C141.029 35.2321 141.341 35.7174 141.965 35.7521L149.141 35.8041C150.389 35.8041 151.255 35.7347 151.741 35.5961C152.261 35.4574 152.642 35.1281 152.885 34.6081L154.705 30.8641H155.953L154.445 36.9481C142.901 36.8787 136.123 36.8961 134.113 37.0001V35.9081C134.286 35.8387 134.91 35.7867 135.985 35.7521C136.643 35.7174 136.973 35.2321 136.973 34.2961V3.30408Z" fill="#EAE1D9"></path><path d="M163.994 3.30408V34.2961C163.994 35.1974 164.306 35.6827 164.93 35.7521C167.218 36.0987 168.934 36.2721 170.078 36.2721C172.643 36.2721 174.775 34.8681 176.474 32.0601C178.173 29.2174 179.022 24.7627 179.022 18.6961C179.022 12.6641 178.173 8.26141 176.474 5.48808C174.775 2.71475 172.643 1.32808 170.078 1.32808C168.379 1.32808 166.663 1.50141 164.93 1.84808C164.306 1.98674 163.994 2.47208 163.994 3.30408ZM170.078 37.0001H157.078V35.9081C157.251 35.8387 157.875 35.7867 158.95 35.7521C159.609 35.7174 159.938 35.2321 159.938 34.2961V3.30408C159.938 2.36808 159.609 1.88275 158.95 1.84808L157.078 1.69208V0.600078C157.806 0.634744 158.898 0.652077 160.354 0.652077C161.845 0.652077 163.231 0.652077 164.514 0.652077C165.831 0.652077 167.079 0.652077 168.258 0.652077C169.437 0.617411 170.043 0.600078 170.078 0.600078C173.995 0.600078 177.133 2.03874 179.49 4.91608C181.882 7.75874 183.078 12.3867 183.078 18.8001C183.078 25.2134 181.882 29.8587 179.49 32.7361C177.133 35.5787 173.995 37.0001 170.078 37.0001Z" fill="#EAE1D9"></path><path d="M191.682 3.30408V34.2961C191.682 35.1974 191.994 35.6827 192.618 35.7521C194.906 36.0987 196.622 36.2721 197.766 36.2721C200.331 36.2721 202.463 34.8681 204.162 32.0601C205.861 29.2174 206.71 24.7627 206.71 18.6961C206.71 12.6641 205.861 8.26141 204.162 5.48808C202.463 2.71475 200.331 1.32808 197.766 1.32808C196.067 1.32808 194.351 1.50141 192.618 1.84808C191.994 1.98674 191.682 2.47208 191.682 3.30408ZM197.766 37.0001H184.766V35.9081C184.939 35.8387 185.563 35.7867 186.638 35.7521C187.297 35.7174 187.626 35.2321 187.626 34.2961V3.30408C187.626 2.36808 187.297 1.88275 186.638 1.84808L184.766 1.69208V0.600078C185.494 0.634744 186.586 0.652077 188.042 0.652077C189.533 0.652077 190.919 0.652077 192.202 0.652077C193.519 0.652077 194.767 0.652077 195.946 0.652077C197.125 0.617411 197.731 0.600078 197.766 0.600078C201.683 0.600078 204.821 2.03874 207.178 4.91608C209.57 7.75874 210.766 12.3867 210.766 18.8001C210.766 25.2134 209.57 29.8587 207.178 32.7361C204.821 35.5787 201.683 37.0001 197.766 37.0001Z" fill="#EAE1D9"></path><path d="M222.178 37.0001C221.103 36.9307 219.491 36.8961 217.342 36.8961C215.158 36.8961 213.529 36.9307 212.454 37.0001V35.9081C212.627 35.8387 213.251 35.7867 214.326 35.7521C214.985 35.7174 215.314 35.2321 215.314 34.2961V3.30408C215.314 2.36808 214.985 1.88275 214.326 1.84808L212.454 1.69208V0.600078C214.603 0.669412 216.233 0.704079 217.342 0.704079C218.417 0.704079 220.029 0.669412 222.178 0.600078V1.69208C222.039 1.76141 221.415 1.81341 220.306 1.84808C219.682 1.88275 219.37 2.36808 219.37 3.30408V34.2961C219.37 35.2321 219.682 35.7174 220.306 35.7521L222.178 35.9081V37.0001Z" fill="#EAE1D9"></path><path d="M231.166 37.0001C230.091 36.9307 228.93 36.8961 227.682 36.8961C226.399 36.8961 225.221 36.9307 224.146 37.0001V35.9081C224.319 35.8387 224.943 35.7867 226.018 35.7521C226.677 35.7174 227.006 35.2321 227.006 34.2961V3.30408C227.006 2.36808 226.677 1.88275 226.018 1.84808L224.146 1.69208V0.600078C225.463 0.669412 226.243 0.704079 226.486 0.704079C228.531 0.704079 230.005 0.669412 230.906 0.600078H231.166L244.478 28.5241V3.30408C244.478 2.36808 244.149 1.88275 243.49 1.84808L241.618 1.69208V0.600078C243.837 0.669412 245.015 0.704079 245.154 0.704079C245.327 0.704079 246.489 0.669412 248.638 0.600078V1.69208C248.499 1.76141 247.875 1.81341 246.766 1.84808C246.142 1.88275 245.83 2.36808 245.83 3.30408V37.0001H243.802C243.559 35.6134 242.97 33.9147 242.034 31.9041L228.358 3.40808V34.2961C228.358 35.2321 228.67 35.7174 229.294 35.7521L231.166 35.9081V37.0001Z" fill="#EAE1D9"></path><path d="M263.424 37.5201C259.715 37.5201 256.612 35.8561 254.116 32.5281C251.655 29.1654 250.424 24.6241 250.424 18.9041C250.424 12.4561 251.62 7.70674 254.012 4.65608C256.404 1.60541 259.542 0.0800781 263.424 0.0800781C265.886 0.0800781 268.087 0.513411 270.028 1.38008C272.004 2.24674 273.495 3.46008 274.5 5.02008L272.628 8.60808H271.692C271.172 5.86941 270.15 3.89341 268.624 2.68008C267.099 1.43208 265.366 0.808078 263.424 0.808078C262.176 0.808078 261.05 1.06808 260.044 1.58808C259.074 2.07341 258.138 2.94008 257.236 4.18808C256.37 5.43608 255.694 7.29074 255.208 9.75208C254.723 12.2134 254.48 15.2294 254.48 18.8001C254.48 24.4507 255.503 28.6974 257.548 31.5401C259.594 34.3481 261.986 35.7521 264.724 35.7521C266.908 35.7521 268.711 34.9374 270.132 33.3081V21.5041C270.132 20.5681 269.803 20.0827 269.144 20.0481C268.936 20.0481 268.711 20.0481 268.468 20.0481C268.226 20.0134 268.052 19.9961 267.948 19.9961H264.88C263.979 19.9961 263.355 20.0654 263.008 20.2041C262.696 20.3081 262.384 20.6374 262.072 21.1921L260.772 25.1961H259.576L260.668 18.8001H269.248C269.803 18.8001 270.531 18.7827 271.432 18.7481C272.334 18.7134 272.923 18.6961 273.2 18.6961C273.859 18.6961 274.188 18.7654 274.188 18.9041V34.2961C274.188 35.2321 274.5 35.7174 275.124 35.7521L276.996 35.9081V37.0001L270.132 36.8961V35.0761C268.503 36.7054 266.267 37.5201 263.424 37.5201Z" fill="#EAE1D9"></path><path d="M28.5239 76.4281C31.1586 76.4281 33.2733 75.6134 34.8679 73.9841C36.4626 72.3201 37.2599 70.2401 37.2599 67.7441C37.2599 66.0454 36.5493 64.5374 35.1279 63.2201C33.7413 61.9027 32.0426 60.8107 30.0319 59.9441C28.0213 59.0427 26.0106 58.1241 23.9999 57.1881C21.9893 56.2521 20.2733 55.0561 18.8519 53.6001C17.4653 52.1441 16.7719 50.4454 16.7719 48.5041C16.7719 46.0774 17.5693 44.0667 19.1639 42.4721C20.7933 40.8774 23.4106 40.0801 27.0159 40.0801C27.7093 40.0801 28.4199 40.1147 29.1479 40.1841C29.8759 40.2534 30.4826 40.3227 30.9679 40.3921C31.4533 40.4267 32.1293 40.5481 32.9959 40.7561C33.8626 40.9294 34.4346 41.0507 34.7119 41.1201C35.0239 41.1894 35.6999 41.3627 36.7399 41.6401C37.7799 41.8827 38.3866 42.0214 38.5599 42.0561L36.4799 47.1521C34.6773 45.0374 33.0306 43.4774 31.5399 42.4721C30.0493 41.4667 28.4373 40.9641 26.7039 40.9641C22.6479 40.9641 20.6199 43.1134 20.6199 47.4121C20.6199 48.9027 21.1226 50.2374 22.1279 51.4161C23.1679 52.5601 24.4333 53.4961 25.9239 54.2241C27.4493 54.9174 29.0959 55.6974 30.8639 56.5641C32.6666 57.4307 34.3133 58.2801 35.8039 59.1121C37.3293 59.9094 38.5946 61.0187 39.5999 62.4401C40.6399 63.8614 41.1599 65.4734 41.1599 67.2761C41.1599 69.3214 40.8306 71.0547 40.1719 72.4761C39.5133 73.8627 38.5426 74.9201 37.2599 75.6481C36.0119 76.3414 34.6946 76.8267 33.3079 77.1041C31.9213 77.3814 30.2919 77.5201 28.4199 77.5201C22.1799 77.5201 17.4133 75.8907 14.1199 72.6321L16.9799 68.3161C17.9506 70.5694 19.4759 72.4934 21.5559 74.0881C23.6706 75.6481 25.9933 76.4281 28.5239 76.4281Z" fill="#EAE1D9"></path><path d="M52.2042 77.0001C51.1296 76.9307 49.5176 76.8961 47.3682 76.8961C45.1842 76.8961 43.5549 76.9307 42.4802 77.0001V75.9081C42.6536 75.8387 43.2776 75.7867 44.3522 75.7521C45.0109 75.7174 45.3402 75.2321 45.3402 74.2961V43.3041C45.3402 42.3681 45.0109 41.8827 44.3522 41.8481L42.4802 41.6921V40.6001C44.6296 40.6694 46.2589 40.7041 47.3682 40.7041C48.4429 40.7041 50.0549 40.6694 52.2042 40.6001V41.6921C52.0656 41.7614 51.4416 41.8134 50.3322 41.8481C49.7082 41.8827 49.3962 42.3681 49.3962 43.3041V58.2281H61.5642V43.3041C61.5642 42.3681 61.2522 41.8827 60.6282 41.8481L58.7562 41.6921V40.6001C60.9056 40.6694 62.5349 40.7041 63.6442 40.7041C64.7189 40.7041 66.3309 40.6694 68.4802 40.6001V41.6921C68.3416 41.7614 67.7176 41.8134 66.6082 41.8481C65.9496 41.8827 65.6202 42.3681 65.6202 43.3041V74.2961C65.6202 75.2321 65.9496 75.7174 66.6082 75.7521L68.4802 75.9081V77.0001C67.4056 76.9307 65.7936 76.8961 63.6442 76.8961C61.4602 76.8961 59.8309 76.9307 58.7562 77.0001V75.9081C58.8949 75.8387 59.5189 75.7867 60.6282 75.7521C61.2522 75.7174 61.5642 75.2321 61.5642 74.2961V59.3721H49.3962V74.2961C49.3962 75.2321 49.7082 75.7174 50.3322 75.7521L52.2042 75.9081V77.0001Z" fill="#EAE1D9"></path><path d="M83.5383 77.5201C74.8716 77.5201 70.5383 71.2801 70.5383 58.8001C70.5383 46.3201 74.8716 40.0801 83.5383 40.0801C87.4556 40.0801 90.593 41.5534 92.9503 44.5001C95.3423 47.4467 96.5383 52.2134 96.5383 58.8001C96.5383 65.3867 95.3423 70.1534 92.9503 73.1001C90.593 76.0467 87.4556 77.5201 83.5383 77.5201ZM83.5383 40.8081C80.9383 40.8081 78.789 42.2121 77.0903 45.0201C75.4263 47.7934 74.5943 52.3521 74.5943 58.6961C74.5943 65.0747 75.4263 69.6854 77.0903 72.5281C78.789 75.3707 80.9383 76.7921 83.5383 76.7921C86.1036 76.7921 88.2356 75.3361 89.9343 72.4241C91.633 69.5121 92.4823 64.9361 92.4823 58.6961C92.4823 52.4907 91.633 47.9667 89.9343 45.1241C88.2356 42.2467 86.1036 40.8081 83.5383 40.8081Z" fill="#EAE1D9"></path><path d="M97.3159 41.8481L95.3919 41.6921L95.1319 40.6001C97.3505 40.6694 98.9799 40.7041 100.02 40.7041C101.164 40.7041 102.776 40.6694 104.856 40.6001L105.116 41.6921C104.977 41.7614 104.371 41.8134 103.296 41.8481C102.672 41.8827 102.464 42.3681 102.672 43.3041L109.952 74.4001L117.492 42.2121C117.388 42.0734 117.128 41.9694 116.712 41.9001C116.331 41.7961 115.967 41.7441 115.62 41.7441L115.1 41.6921L114.84 40.6001C117.059 40.6694 118.688 40.7041 119.728 40.7041C120.803 40.7041 122.415 40.6694 124.564 40.6001L124.824 41.6921C124.685 41.7614 124.079 41.8134 123.004 41.8481C122.38 41.8827 122.172 42.3681 122.38 43.3041L129.66 74.4001L136.888 43.3041C136.957 43.1307 136.992 42.9401 136.992 42.7321C136.992 42.5241 136.94 42.3334 136.836 42.1601C136.732 41.9521 136.559 41.8481 136.316 41.8481L134.444 41.6921L134.704 40.6001C136.853 40.6694 138.015 40.7041 138.188 40.7041C138.396 40.7041 139.575 40.6694 141.724 40.6001L141.464 41.6921C141.291 41.7614 140.649 41.8134 139.54 41.8481C138.881 41.8827 138.448 42.3681 138.24 43.3041L130.388 77.0001C129.937 76.9307 129.244 76.8961 128.308 76.8961C127.372 76.8961 126.661 76.9307 126.176 77.0001L118.428 43.8761L110.68 77.0001C109.224 76.8961 107.82 76.8961 106.468 77.0001L98.6159 43.3041C98.4079 42.3681 97.9745 41.8827 97.3159 41.8481Z" fill="#EAE1D9"></path><path d="M173.533 74.2441C174.331 74.2441 174.989 73.9321 175.509 73.3081C176.064 72.6494 176.411 72.0081 176.549 71.3841L176.705 70.4481H178.005L177.693 77.0001C177.277 76.9654 174.227 76.9481 168.541 76.9481C162.856 76.9481 159.459 76.9654 158.349 77.0001C158.8 76.4801 159.389 75.7694 160.117 74.8681C160.845 73.9667 162.128 72.2681 163.965 69.7721C165.837 67.2761 167.484 64.9361 168.905 62.7521C170.361 60.5681 171.661 58.2627 172.805 55.8361C173.984 53.3747 174.573 51.4161 174.573 49.9601C174.573 47.1867 174.14 45.1414 173.273 43.8241C172.441 42.4721 170.725 41.7961 168.125 41.7961C166.461 41.7961 165.075 42.1254 163.965 42.7841C162.891 43.4427 162.163 44.2401 161.781 45.1761C161.435 46.1121 161.192 47.0481 161.053 47.9841C160.949 48.9201 160.949 49.7174 161.053 50.3761L161.209 51.3641H159.961L157.361 46.4761C159.961 42.5587 163.653 40.6001 168.437 40.6001C175.232 40.6001 178.629 43.7201 178.629 49.9601C178.629 52.2827 177.711 54.8307 175.873 57.6041C174.071 60.3774 170.067 65.4041 163.861 72.6841C163.619 72.9614 163.532 73.2734 163.601 73.6201C163.671 73.9321 163.896 74.1054 164.277 74.1401H164.641C164.884 74.1401 165.231 74.1574 165.681 74.1921C166.167 74.1921 166.739 74.2094 167.397 74.2441C168.091 74.2441 168.975 74.2441 170.049 74.2441C171.124 74.2441 172.285 74.2441 173.533 74.2441Z" fill="#EAE1D9"></path><path d="M195.748 40.1841C203.444 40.1841 207.292 46.4241 207.292 58.9041C207.292 71.3841 203.444 77.6241 195.748 77.6241C192.247 77.6241 189.439 76.1507 187.324 73.2041C185.21 70.2574 184.152 65.4907 184.152 58.9041C184.152 52.3174 185.21 47.5507 187.324 44.6041C189.439 41.6574 192.247 40.1841 195.748 40.1841ZM195.748 76.8961C198.002 76.8961 199.804 75.4921 201.156 72.6841C202.543 69.8414 203.236 65.2307 203.236 58.8521C203.236 46.9267 200.74 40.9641 195.748 40.9641C193.495 40.9641 191.675 42.3854 190.288 45.2281C188.902 48.0361 188.208 52.5774 188.208 58.8521C188.208 65.1267 188.902 69.7027 190.288 72.5801C191.71 75.4574 193.53 76.8961 195.748 76.8961Z" fill="#EAE1D9"></path><path d="M228.401 74.2441C229.199 74.2441 229.857 73.9321 230.377 73.3081C230.932 72.6494 231.279 72.0081 231.417 71.3841L231.573 70.4481H232.873L232.561 77.0001C232.145 76.9654 229.095 76.9481 223.409 76.9481C217.724 76.9481 214.327 76.9654 213.217 77.0001C213.668 76.4801 214.257 75.7694 214.985 74.8681C215.713 73.9667 216.996 72.2681 218.833 69.7721C220.705 67.2761 222.352 64.9361 223.773 62.7521C225.229 60.5681 226.529 58.2627 227.673 55.8361C228.852 53.3747 229.441 51.4161 229.441 49.9601C229.441 47.1867 229.008 45.1414 228.141 43.8241C227.309 42.4721 225.593 41.7961 222.993 41.7961C221.329 41.7961 219.943 42.1254 218.833 42.7841C217.759 43.4427 217.031 44.2401 216.649 45.1761C216.303 46.1121 216.06 47.0481 215.921 47.9841C215.817 48.9201 215.817 49.7174 215.921 50.3761L216.077 51.3641H214.829L212.229 46.4761C214.829 42.5587 218.521 40.6001 223.305 40.6001C230.1 40.6001 233.497 43.7201 233.497 49.9601C233.497 52.2827 232.579 54.8307 230.741 57.6041C228.939 60.3774 224.935 65.4041 218.729 72.6841C218.487 72.9614 218.4 73.2734 218.469 73.6201C218.539 73.9321 218.764 74.1054 219.145 74.1401H219.509C219.752 74.1401 220.099 74.1574 220.549 74.1921C221.035 74.1921 221.607 74.2094 222.265 74.2441C222.959 74.2441 223.843 74.2441 224.917 74.2441C225.992 74.2441 227.153 74.2441 228.401 74.2441Z" fill="#EAE1D9"></path><path d="M242.088 55.0561C244.619 53.5654 247.254 52.8201 249.992 52.8201C250.824 52.8201 251.622 52.8721 252.384 52.9761C253.182 53.0454 254.204 53.3227 255.452 53.8081C256.735 54.2934 257.827 54.9521 258.728 55.7841C259.63 56.5814 260.427 57.8121 261.12 59.4761C261.814 61.1054 262.16 63.0467 262.16 65.3001C262.16 69.3561 260.982 72.4067 258.624 74.4521C256.267 76.4974 253.476 77.5201 250.252 77.5201C245.399 77.5201 241.551 75.3881 238.708 71.1241L241.308 66.2361H242.556C242.522 66.3747 242.487 66.5654 242.452 66.8081C242.452 67.0507 242.452 67.5187 242.452 68.2121C242.487 68.9054 242.556 69.5814 242.66 70.2401C242.764 70.8641 242.972 71.5747 243.284 72.3721C243.631 73.1347 244.047 73.7934 244.532 74.3481C245.052 74.9028 245.78 75.3707 246.716 75.7521C247.652 76.1334 248.727 76.3241 249.94 76.3241C252.679 76.3241 254.724 75.3534 256.076 73.4121C257.428 71.4707 258.104 68.7667 258.104 65.3001C258.104 63.2201 257.879 61.4001 257.428 59.8401C256.978 58.2801 256.423 57.1014 255.764 56.3041C255.14 55.5067 254.378 54.8827 253.476 54.4321C252.61 53.9467 251.864 53.6521 251.24 53.5481C250.616 53.4441 249.958 53.3921 249.264 53.3921C248.328 53.3921 247.219 53.7387 245.936 54.4321C244.654 55.1254 243.51 55.8187 242.504 56.5121C241.499 57.1707 240.892 57.5001 240.684 57.5001L241.984 40.6001C243.059 40.6347 245.728 40.6521 249.992 40.6521C254.291 40.6521 256.648 40.6347 257.064 40.6001V46.6321H255.764C255.73 46.3547 255.66 46.0081 255.556 45.5921C255.452 45.1414 255.123 44.5694 254.568 43.8761C254.048 43.1481 253.39 42.7841 252.592 42.7841L244.064 42.8881L242.088 55.0561Z" fill="#EAE1D9"></path></svg> 