<svg width="463" height="46" viewBox="0 0 463 46" fill="none" xmlns="http://www.w3.org/2000/svg">
<path d="M26.16 19.2C26.16 19.0933 26.2533 18.9333 26.44 18.72C26.6533 18.48 26.9067 18.24 27.2 18C27.8133 17.4933 28.56 17.08 29.44 16.76C30.32 16.4133 31.24 16.24 32.2 16.24C34.92 16.24 37.04 16.9333 38.56 18.32C40.1067 19.68 40.88 21.4667 40.88 23.68C40.88 25.44 40.52 27.0133 39.8 28.4C39.1067 29.76 38.1333 30.9067 36.88 31.84C35.6533 32.7733 34.24 33.48 32.64 33.96C31.0667 34.4667 29.4133 34.72 27.68 34.72C26.72 34.72 25.5067 34.6133 24.04 34.4C22.6 34.1867 21.08 33.8533 19.48 33.4C17.9067 32.9733 16.4267 32.4533 15.04 31.84C12.4 33.7867 9.60001 34.76 6.64001 34.76C6.05335 34.76 5.45335 34.72 4.84001 34.64C3.45335 34.48 2.38668 34.1067 1.64001 33.52C1.08001 33.12 0.666679 32.6667 0.400012 32.16C0.133346 31.6533 1.2219e-05 31.1467 1.2219e-05 30.64C1.2219e-05 30.4267 0.0133456 30.2267 0.0400123 30.04C0.066679 29.8267 0.120012 29.6267 0.200012 29.44C0.466679 28.72 0.960012 28.1067 1.68001 27.6C2.56001 27.0133 3.65335 26.72 4.96001 26.72C6.02668 26.72 7.18668 26.9333 8.44001 27.36C8.81335 27.4933 9.21335 27.6667 9.64001 27.88C10.0667 28.0933 10.5067 28.3333 10.96 28.6C11.4133 28.8667 11.9067 29.1467 12.44 29.44C13 29.7333 13.6 30.0267 14.24 30.32C15.5733 29.04 16.7867 27.4533 17.88 25.56C18.9733 23.6667 20.08 21.6533 21.2 19.52C22.32 17.3867 23.52 15.2133 24.8 13C26.08 10.7867 27.5733 8.74666 29.28 6.87999L31.64 4.31999C29.5333 3.65333 27.52 3.14666 25.6 2.79999C23.68 2.45333 21.6533 2.22666 19.52 2.12C17.6 2.04 15.8933 2.25333 14.4 2.76C12.88 3.26666 11.5867 3.94666 10.52 4.8C9.45335 5.65333 8.61335 6.62666 8.00001 7.72C7.30668 8.94666 6.96001 10.1467 6.96001 11.32C6.96001 12.2267 7.18668 13.04 7.64001 13.76C8.09335 14.48 8.80001 14.9867 9.76001 15.28C10.32 15.4667 10.8933 15.56 11.48 15.56C12.6267 15.56 13.64 15.28 14.52 14.72C15.4 14.1333 16.0933 13.4667 16.6 12.72C17.1333 11.9467 17.4 11.2933 17.4 10.76V10.68C17.5867 10.5467 17.7333 10.48 17.84 10.48C18.08 10.48 18.2 10.6533 18.2 11C18.0667 12.12 17.6667 13.1067 17 13.96C16.3333 14.8133 15.52 15.48 14.56 15.96C13.6 16.4133 12.5867 16.64 11.52 16.64C10.8 16.64 10.08 16.52 9.36001 16.28C8.00001 15.8 6.96001 15.04 6.24001 14C5.36001 12.8 4.92001 11.44 4.92001 9.92C4.92001 8.82666 5.16001 7.72 5.64001 6.6C6.14668 5.29333 7.00001 4.10666 8.20001 3.04C9.21335 2.13333 10.4933 1.4 12.04 0.839996C13.5867 0.279996 15.3733 -4.76837e-06 17.4 -4.76837e-06C17.6933 -4.76837e-06 17.9867 0.0133284 18.28 0.0399947C18.6 0.0399947 18.92 0.0533279 19.24 0.0799942C20.44 0.186661 21.6667 0.386662 22.92 0.679996C24.2 0.973329 25.4267 1.30666 26.6 1.68C27.24 1.86666 27.92 2.09333 28.64 2.36C29.3867 2.6 30.08 2.84 30.72 3.08C31.3867 3.29333 31.9067 3.45333 32.28 3.55999C32.6267 3.26666 33.0267 2.97333 33.48 2.68C33.96 2.38666 34.3733 2.17333 34.72 2.04C34.9067 1.95999 35.0667 1.90666 35.2 1.87999C35.3333 1.85333 35.44 1.84 35.52 1.84C35.68 1.84 35.76 1.89333 35.76 2C35.76 2.18666 35.5467 2.39999 35.12 2.63999C34.8533 2.82666 34.5733 3.08 34.28 3.39999C34.0133 3.69333 33.8533 3.89333 33.8 4C34.3333 4.16 35.0533 4.37333 35.96 4.64C36.8933 4.90666 37.8533 5.15999 38.84 5.39999C39.8267 5.61333 40.7067 5.77333 41.48 5.88C41.9333 5.96 42.3867 6.02666 42.84 6.08C43.2933 6.13333 43.7333 6.15999 44.16 6.15999C44.8533 6.15999 45.4267 6.06666 45.88 5.88C46.3333 5.69333 46.56 5.38666 46.56 4.96C46.56 4.56 46.7067 4.36 47 4.36C47.1333 4.36 47.2267 4.48 47.28 4.72C47.36 4.93333 47.4 5.09333 47.4 5.2C47.4 5.86666 47.0667 6.4 46.4 6.8C45.76 7.17333 44.9333 7.36 43.92 7.36C43.76 7.36 43.5867 7.36 43.4 7.36C43.24 7.33333 43.0667 7.30666 42.88 7.28C41.3867 7.09333 40.08 6.88 38.96 6.64C37.8667 6.37333 36.9333 6.13333 36.16 5.92C35.5733 5.76 35 5.57333 34.44 5.36C33.88 5.14666 33.4933 5 33.28 4.92C32.1333 6.49333 30.9467 8.32 29.72 10.4C28.52 12.4533 27.3467 14.4667 26.2 16.44C24.6 19.1867 23.0933 21.6933 21.68 23.96C20.2933 26.2 18.88 28.1067 17.44 29.68C17.1733 29.9467 16.92 30.2 16.68 30.44C16.44 30.6533 16.1867 30.88 15.92 31.12C17.6533 31.8667 19.4933 32.4667 21.44 32.92C23.3867 33.3467 25.24 33.56 27 33.56C28.4133 33.56 29.8 33.3333 31.16 32.88C32.52 32.4 33.7467 31.72 34.84 30.84C35.9333 29.96 36.8 28.92 37.44 27.72C38.08 26.4933 38.4 25.1467 38.4 23.68C38.4 22.4 38.1733 21.36 37.72 20.56C37.2933 19.7333 36.7333 19.0933 36.04 18.64C35.3733 18.1867 34.6667 17.88 33.92 17.72C33.2 17.5333 32.5333 17.4533 31.92 17.48C31.0133 17.5067 30.1867 17.6267 29.44 17.84C28.72 18.0267 28.0267 18.3333 27.36 18.76C26.9067 19.0267 26.5867 19.2 26.4 19.28C26.24 19.3333 26.16 19.3067 26.16 19.2ZM6.28001 33.52C7.66668 33.52 8.93335 33.3067 10.08 32.88C11.2533 32.4267 12.3467 31.8267 13.36 31.08L10.6 29.72C10.1467 29.5067 9.65335 29.2933 9.12001 29.08C8.61335 28.84 8.05335 28.6133 7.44001 28.4C6.72001 28.1333 6.01335 28 5.32001 28C4.41335 28 3.68001 28.2267 3.12001 28.68C2.58668 29.1333 2.32001 29.76 2.32001 30.56C2.32001 31.3867 2.68001 32.0933 3.40001 32.68C4.12001 33.24 5.08001 33.52 6.28001 33.52ZM49.5444 26.88C48.8511 28.0533 48.1844 29.1333 47.5444 30.12C46.9044 31.1067 46.2377 31.8933 45.5444 32.48C44.8777 33.04 44.1177 33.32 43.2644 33.32C42.6244 33.32 42.0511 33.1333 41.5444 32.76C41.0377 32.36 40.7844 31.7867 40.7844 31.04C40.7844 30.5867 40.8911 30.0933 41.1044 29.56C41.2911 29.0267 41.5711 28.5733 41.9444 28.2C42.3444 27.8267 42.8244 27.6667 43.3844 27.72C43.7577 27.7467 44.0911 27.8933 44.3844 28.16C43.9044 28.6133 43.5311 29.1467 43.2644 29.76C42.9977 30.3733 42.8644 30.9067 42.8644 31.36C42.8644 31.6267 42.9177 31.88 43.0244 32.12C43.1577 32.3333 43.3844 32.44 43.7044 32.44C44.2111 32.44 44.7311 32.16 45.2644 31.6C45.8244 31.0133 46.3977 30.2667 46.9844 29.36C47.5977 28.4267 48.1977 27.4667 48.7844 26.48C49.5577 25.2267 50.3177 24.0667 51.0644 23C51.8377 21.9333 52.5577 21.1067 53.2244 20.52C54.0777 19.8 54.8911 19.44 55.6644 19.44H55.8244C56.8911 19.44 57.1844 19.9467 56.7044 20.96L55.3044 23.96C55.0644 24.44 54.7711 25.04 54.4244 25.76C54.1044 26.4533 53.7844 27.1733 53.4644 27.92C53.1711 28.64 52.9311 29.3333 52.7444 30C52.5844 30.64 52.5311 31.16 52.5844 31.56C52.6644 31.96 52.9311 32.16 53.3844 32.16C54.0511 32.16 54.7044 31.8133 55.3444 31.12C56.0111 30.4267 56.6377 29.5733 57.2244 28.56C57.8111 27.52 58.3311 26.4933 58.7844 25.48C58.8911 25.48 58.9977 25.52 59.1044 25.6C59.2111 25.6533 59.2644 25.7333 59.2644 25.84C58.7844 27.04 58.2244 28.2 57.5844 29.32C56.9711 30.44 56.2511 31.36 55.4244 32.08C54.6244 32.8 53.6911 33.16 52.6244 33.16C51.5844 33.16 50.9311 32.8 50.6644 32.08C50.4244 31.3333 50.4511 30.36 50.7444 29.16C51.0644 27.96 51.5577 26.6533 52.2244 25.24C52.8911 23.8 53.6244 22.4 54.4244 21.04C54.7177 20.56 54.7977 20.32 54.6644 20.32C54.5577 20.32 54.3711 20.4267 54.1044 20.64C53.8644 20.8267 53.6377 21.0267 53.4244 21.24C52.9177 21.72 52.3711 22.3867 51.7844 23.24C51.1977 24.0933 50.4511 25.3067 49.5444 26.88ZM67.4588 33.32C66.8454 33.32 66.2988 33.1467 65.8188 32.8C65.3654 32.4533 65.1388 31.7467 65.1388 30.68C65.1388 30.2267 65.1654 29.8 65.2188 29.4C65.2988 29 65.3921 28.5733 65.4988 28.12C65.2588 28.52 64.9254 29.0133 64.4988 29.6C64.0721 30.1867 63.5921 30.76 63.0588 31.32C62.5521 31.88 62.0188 32.3467 61.4588 32.72C60.9254 33.0933 60.4188 33.28 59.9388 33.28C59.2454 33.28 58.6854 32.9733 58.2588 32.36C57.8321 31.72 57.6188 30.8933 57.6188 29.88C57.6188 28.7867 57.8721 27.6133 58.3788 26.36C58.8854 25.1067 59.5788 23.9067 60.4588 22.76C61.3388 21.6133 62.3521 20.68 63.4988 19.96C64.6454 19.24 65.8454 18.88 67.0988 18.88C67.7121 18.88 68.2988 18.9867 68.8588 19.2C69.4188 19.3867 69.9121 19.7067 70.3388 20.16C70.5254 20.3467 70.6188 20.56 70.6188 20.8C70.6188 20.96 70.5521 21.0933 70.4188 21.2C70.2854 21.3067 70.1121 21.3333 69.8988 21.28C69.6054 20.3467 68.9788 19.88 68.0188 19.88C67.5654 19.88 67.0454 20.0267 66.4588 20.32C65.7388 20.6933 64.9654 21.2933 64.1388 22.12C63.3388 22.92 62.5788 23.84 61.8588 24.88C61.1654 25.8933 60.5921 26.92 60.1388 27.96C59.6854 29 59.4588 29.9467 59.4588 30.8C59.4588 31.68 59.7921 32.12 60.4588 32.12C61.0454 32.12 61.6454 31.84 62.2588 31.28C62.8988 30.72 63.4988 30.0267 64.0588 29.2C64.6454 28.3467 65.1788 27.5067 65.6588 26.68C66.1388 25.8533 66.5121 25.1867 66.7788 24.68C67.1788 23.96 67.5521 23.36 67.8988 22.88C68.2454 22.4 68.7388 22.16 69.3788 22.16C69.6721 22.16 69.9654 22.2 70.2588 22.28C70.5521 22.36 70.8588 22.3733 71.1788 22.32C70.3788 23.12 69.6721 24.0667 69.0588 25.16C68.4721 26.2533 68.0188 27.3333 67.6988 28.4C67.3788 29.44 67.2188 30.32 67.2188 31.04C67.2188 31.84 67.4854 32.24 68.0188 32.24C68.4454 32.24 68.8988 32 69.3788 31.52C69.8854 31.04 70.3654 30.44 70.8188 29.72C71.2988 28.9733 71.7388 28.2267 72.1388 27.48C72.5388 26.7067 72.8588 26.04 73.0988 25.48C73.2321 25.48 73.3388 25.4933 73.4188 25.52C73.5254 25.5467 73.5788 25.6533 73.5788 25.84C73.5521 25.9467 73.4988 26.0667 73.4188 26.2C73.3654 26.3067 73.2721 26.5067 73.1388 26.8C72.9254 27.2267 72.6321 27.8 72.2588 28.52C71.8854 29.24 71.4454 29.9733 70.9388 30.72C70.4321 31.44 69.8854 32.0533 69.2988 32.56C68.7121 33.0667 68.0988 33.32 67.4588 33.32ZM73.1147 25.48C73.6214 24.3867 74.168 23.36 74.7547 22.4C75.3414 21.44 76.008 20.6667 76.7547 20.08C77.528 19.4933 78.4347 19.2 79.4747 19.2C80.408 19.2 81.1014 19.4267 81.5547 19.88C82.008 20.3067 82.2347 20.8933 82.2347 21.64C82.2347 22.4667 82.0214 23.24 81.5947 23.96C81.168 24.68 80.6347 25.36 79.9947 26C79.3547 26.64 78.7147 27.2533 78.0747 27.84C77.4347 28.4267 76.9014 29 76.4747 29.56C76.048 30.12 75.8347 30.6933 75.8347 31.28C75.8347 31.76 76.0214 32.1067 76.3947 32.32C76.7947 32.5067 77.1547 32.6 77.4747 32.6C78.088 32.6 78.7147 32.3467 79.3547 31.84C79.9947 31.3333 80.608 30.7067 81.1947 29.96C81.7814 29.1867 82.3147 28.4 82.7947 27.6C83.2747 26.8 83.648 26.0933 83.9147 25.48C84.288 25.48 84.448 25.6 84.3947 25.84C83.168 28.2667 81.9414 30.16 80.7147 31.52C79.488 32.8533 78.208 33.52 76.8747 33.52C76.5014 33.52 76.0747 33.4267 75.5947 33.24C75.1414 33.08 74.7547 32.8 74.4347 32.4C74.1147 32 73.9547 31.48 73.9547 30.84C73.9547 30.0933 74.168 29.3867 74.5947 28.72C75.0214 28.0533 75.5414 27.4133 76.1547 26.8C76.7947 26.16 77.4347 25.56 78.0747 25C78.7147 24.4133 79.248 23.8533 79.6747 23.32C80.1014 22.76 80.3147 22.2133 80.3147 21.68C80.3147 21.2267 80.1947 20.8667 79.9547 20.6C79.7147 20.3067 79.288 20.16 78.6747 20.16C77.7147 20.16 76.808 20.7067 75.9547 21.8C75.1014 22.8667 74.3147 24.2133 73.5947 25.84L73.1147 25.48ZM86.2959 33.2C85.2026 33.2 84.3893 32.8133 83.8559 32.04C83.3493 31.24 83.0959 30.28 83.0959 29.16C83.0959 28.12 83.2959 27.04 83.6959 25.92C84.1226 24.6933 84.7093 23.5733 85.4559 22.56C86.2293 21.5467 87.0693 20.7333 87.976 20.12C88.9093 19.48 89.8293 19.16 90.7359 19.16C91.8293 19.16 92.6293 19.5333 93.136 20.28C93.6693 21.0267 93.9359 21.9733 93.9359 23.12C93.9359 23.92 93.8026 24.76 93.536 25.64C93.2693 26.52 92.9093 27.3867 92.4559 28.24C92.8026 28.5867 93.296 28.76 93.9359 28.76C94.6826 28.76 95.3226 28.52 95.856 28.04C96.3893 27.56 96.9093 26.7067 97.416 25.48C97.736 25.48 97.896 25.6 97.896 25.84C97.3893 27.0667 96.8026 27.9733 96.136 28.56C95.496 29.12 94.6693 29.3867 93.6559 29.36C93.0426 29.36 92.5359 29.1867 92.136 28.84C91.3893 30.0667 90.496 31.1067 89.456 31.96C88.4426 32.7867 87.3893 33.2 86.2959 33.2ZM86.8559 32.32C87.4693 32.32 88.0826 32.0667 88.6959 31.56C89.3093 31.0267 89.8693 30.4267 90.376 29.76C90.8826 29.0933 91.2426 28.52 91.456 28.04C91.0293 27.2667 90.776 26.6933 90.696 26.32C90.6426 25.92 90.616 25.6267 90.616 25.44C90.616 24.9333 90.7493 24.5467 91.016 24.28C91.2826 24.0133 91.5493 23.88 91.8159 23.88C92.1893 23.88 92.5093 24.04 92.776 24.36C92.8293 24.0667 92.8693 23.8 92.896 23.56C92.9226 23.2933 92.936 23.04 92.936 22.8C92.936 22.1067 92.8026 21.5467 92.5359 21.12C92.2959 20.6667 91.9093 20.44 91.3759 20.44C90.816 20.44 90.2293 20.68 89.6159 21.16C89.0026 21.64 88.4159 22.28 87.8559 23.08C87.3226 23.88 86.856 24.7733 86.4559 25.76C86.1093 26.5867 85.8426 27.3733 85.656 28.12C85.4693 28.84 85.3759 29.5067 85.3759 30.12C85.3759 30.7867 85.4959 31.32 85.7359 31.72C85.9759 32.12 86.3493 32.32 86.8559 32.32ZM98.4116 33.2C97.3982 33.2 96.6516 32.8667 96.1716 32.2C95.6916 31.5067 95.4516 30.6667 95.4516 29.68C95.4516 28.64 95.6916 27.52 96.1716 26.32C96.6516 25.0933 97.2916 23.9467 98.0916 22.88C98.8916 21.7867 99.7849 20.8933 100.772 20.2C101.758 19.5067 102.745 19.16 103.732 19.16C104.505 19.16 105.158 19.4133 105.692 19.92C106.225 20.4267 106.478 21.0267 106.452 21.72C107.252 19.9067 107.905 18.0933 108.412 16.28C108.945 14.44 109.212 12.5867 109.212 10.72C109.212 9.27999 108.998 8.18666 108.572 7.43999C108.145 6.66666 107.625 6.13333 107.012 5.84C106.398 5.54666 105.812 5.39999 105.252 5.39999C104.105 5.39999 102.945 5.90666 101.772 6.92C100.598 7.93333 99.5982 9.49333 98.7716 11.6C98.6916 11.7867 98.6249 11.96 98.5716 12.12C98.5449 12.2533 98.5049 12.48 98.4516 12.8C97.4382 12.8 96.9316 12.5067 96.9316 11.92C96.9316 11.5733 97.0649 11.16 97.3316 10.68C97.5982 10.1733 97.8249 9.77333 98.0116 9.47999C98.9982 7.98666 100.212 6.81333 101.652 5.95999C103.092 5.10666 104.505 4.67999 105.892 4.67999C106.852 4.67999 107.745 4.90666 108.572 5.36C109.398 5.78666 110.065 6.45333 110.572 7.36C111.078 8.26666 111.332 9.44 111.332 10.88C111.332 12.4267 111.092 14.1467 110.612 16.04C110.158 17.9067 109.532 19.8 108.732 21.72C107.958 23.6133 107.052 25.3733 106.012 27C104.998 28.6267 103.932 29.9733 102.812 31.04C102.198 31.6267 101.518 32.1333 100.772 32.56C100.052 32.9867 99.2649 33.2 98.4116 33.2ZM98.9716 32.32C99.7182 32.32 100.478 31.92 101.252 31.12C102.025 30.2933 102.745 29.32 103.412 28.2C103.705 27.72 104.025 27.1467 104.372 26.48C104.718 25.7867 105.052 25.1067 105.372 24.44C105.692 23.7467 105.905 23.1733 106.012 22.72C105.932 21.84 105.745 21.24 105.452 20.92C105.185 20.6 104.852 20.44 104.452 20.44C103.732 20.44 102.972 20.7867 102.172 21.48C101.398 22.1467 100.665 23.0133 99.9716 24.08C99.3049 25.1467 98.7582 26.2533 98.3316 27.4C97.9049 28.5467 97.6916 29.6 97.6916 30.56C97.6916 31.04 97.7849 31.4533 97.9716 31.8C98.1582 32.1467 98.4916 32.32 98.9716 32.32ZM118.123 33.32C117.509 33.32 116.963 33.1467 116.483 32.8C116.029 32.4533 115.803 31.7467 115.803 30.68C115.803 30.2267 115.829 29.8 115.883 29.4C115.963 29 116.056 28.5733 116.163 28.12C115.923 28.52 115.589 29.0133 115.163 29.6C114.736 30.1867 114.256 30.76 113.723 31.32C113.216 31.88 112.683 32.3467 112.123 32.72C111.589 33.0933 111.083 33.28 110.603 33.28C109.909 33.28 109.349 32.9733 108.923 32.36C108.496 31.72 108.283 30.8933 108.283 29.88C108.283 28.7867 108.536 27.6133 109.043 26.36C109.549 25.1067 110.243 23.9067 111.123 22.76C112.003 21.6133 113.016 20.68 114.163 19.96C115.309 19.24 116.509 18.88 117.763 18.88C118.376 18.88 118.963 18.9867 119.523 19.2C120.083 19.3867 120.576 19.7067 121.003 20.16C121.189 20.3467 121.283 20.56 121.283 20.8C121.283 20.96 121.216 21.0933 121.083 21.2C120.949 21.3067 120.776 21.3333 120.563 21.28C120.269 20.3467 119.643 19.88 118.683 19.88C118.229 19.88 117.709 20.0267 117.123 20.32C116.403 20.6933 115.629 21.2933 114.803 22.12C114.003 22.92 113.243 23.84 112.523 24.88C111.829 25.8933 111.256 26.92 110.803 27.96C110.349 29 110.123 29.9467 110.123 30.8C110.123 31.68 110.456 32.12 111.123 32.12C111.709 32.12 112.309 31.84 112.923 31.28C113.563 30.72 114.163 30.0267 114.723 29.2C115.309 28.3467 115.843 27.5067 116.323 26.68C116.803 25.8533 117.176 25.1867 117.443 24.68C117.843 23.96 118.216 23.36 118.563 22.88C118.909 22.4 119.403 22.16 120.043 22.16C120.336 22.16 120.629 22.2 120.923 22.28C121.216 22.36 121.523 22.3733 121.843 22.32C121.043 23.12 120.336 24.0667 119.723 25.16C119.136 26.2533 118.683 27.3333 118.363 28.4C118.043 29.44 117.883 30.32 117.883 31.04C117.883 31.84 118.149 32.24 118.683 32.24C119.109 32.24 119.563 32 120.043 31.52C120.549 31.04 121.029 30.44 121.483 29.72C121.963 28.9733 122.403 28.2267 122.803 27.48C123.203 26.7067 123.523 26.04 123.763 25.48C123.896 25.48 124.003 25.4933 124.083 25.52C124.189 25.5467 124.243 25.6533 124.243 25.84C124.216 25.9467 124.163 26.0667 124.083 26.2C124.029 26.3067 123.936 26.5067 123.803 26.8C123.589 27.2267 123.296 27.8 122.923 28.52C122.549 29.24 122.109 29.9733 121.603 30.72C121.096 31.44 120.549 32.0533 119.963 32.56C119.376 33.0667 118.763 33.32 118.123 33.32ZM117.499 44.12C117.179 44.12 116.912 44.08 116.699 44C116.459 43.9467 116.152 43.92 115.779 43.92C115.885 43.76 116.152 43.2933 116.579 42.52C116.979 41.7733 117.472 40.8267 118.059 39.68C118.645 38.56 119.272 37.3333 119.939 36C120.579 34.6933 121.205 33.4 121.819 32.12C122.432 30.8133 122.952 29.6133 123.379 28.52C123.832 27.4 124.125 26.5067 124.259 25.84C124.125 25.84 124.005 25.8133 123.899 25.76C123.792 25.7067 123.752 25.6133 123.779 25.48C123.779 25.48 123.859 25.24 124.019 24.76C124.179 24.28 124.339 23.7067 124.499 23.04C124.659 22.3467 124.739 21.72 124.739 21.16C124.739 20.7867 124.699 20.4667 124.619 20.2C124.539 19.9333 124.392 19.7867 124.179 19.76L126.179 19.44C126.339 19.4133 126.485 19.4 126.619 19.4C126.752 19.3733 126.872 19.36 126.979 19.36C127.219 19.36 127.379 19.4533 127.459 19.64C127.565 19.8 127.619 20.1467 127.619 20.68C127.619 21.3467 127.499 22.2 127.259 23.24C127.045 24.2533 126.792 25.1467 126.499 25.92C126.792 25.44 127.165 24.8267 127.619 24.08C128.099 23.3333 128.645 22.5733 129.259 21.8C129.872 21.0267 130.512 20.3867 131.179 19.88C131.845 19.3467 132.499 19.08 133.139 19.08C133.272 19.08 133.445 19.1067 133.659 19.16C134.405 19.3467 134.925 19.72 135.219 20.28C135.539 20.8133 135.699 21.4533 135.699 22.2C135.699 23 135.539 23.88 135.219 24.84C134.925 25.8 134.525 26.7467 134.019 27.68C133.512 28.5867 132.952 29.4133 132.339 30.16C131.592 31.0933 130.699 31.84 129.659 32.4C128.619 32.96 127.552 33.24 126.459 33.24C125.472 33.24 124.552 32.9867 123.699 32.48L119.819 42.04C119.445 42.9467 119.072 43.52 118.699 43.76C118.325 44 117.925 44.12 117.499 44.12ZM125.179 32.4C125.925 32.4 126.765 32.0533 127.699 31.36C128.632 30.6667 129.525 29.7867 130.379 28.72C131.259 27.6267 131.992 26.5333 132.579 25.44C132.979 24.6933 133.272 24.0133 133.459 23.4C133.645 22.76 133.739 22.2133 133.739 21.76C133.739 20.72 133.365 20.2 132.619 20.2C132.272 20.2 131.819 20.3867 131.259 20.76C130.725 21.1333 130.099 21.8133 129.379 22.8C128.605 23.8667 127.752 25.2133 126.819 26.84C125.912 28.44 124.979 30.1333 124.019 31.92C124.339 32.24 124.725 32.4 125.179 32.4ZM138.816 32.28C139.456 32.28 140.23 31.76 141.136 30.72C141.883 29.84 142.616 28.7867 143.336 27.56C144.056 26.3333 144.736 25.0667 145.376 23.76C146.043 22.4533 146.63 21.28 147.136 20.24C147.43 19.6533 147.95 19.36 148.696 19.36H150.896C150.31 19.84 149.71 20.56 149.096 21.52C148.51 22.48 147.856 23.7067 147.136 25.2C146.95 25.6 146.71 26.1067 146.416 26.72C146.123 27.3333 145.856 27.9867 145.616 28.68C145.403 29.3733 145.296 30.0667 145.296 30.76C145.296 31.6933 145.63 32.16 146.296 32.16C146.91 32.16 147.523 31.8533 148.136 31.24C148.75 30.6 149.35 29.7467 149.936 28.68C150.283 28.68 150.456 28.7867 150.456 29C149.87 30.0933 149.176 31.0667 148.376 31.92C147.603 32.7733 146.71 33.2 145.696 33.2C145.03 33.2 144.483 32.96 144.056 32.48C143.63 31.9733 143.416 31.2667 143.416 30.36C143.416 29.64 143.55 28.8667 143.816 28.04C143.363 28.84 142.843 29.64 142.256 30.44C141.67 31.24 141.043 31.9067 140.376 32.44C139.71 32.9467 139.043 33.2 138.376 33.2C138.083 33.2 137.723 33.1333 137.296 33C136.896 32.8667 136.536 32.6267 136.216 32.28C135.923 31.9067 135.776 31.36 135.776 30.64C135.776 29.9467 135.923 29.1333 136.216 28.2C136.51 27.2667 136.87 26.2933 137.296 25.28C137.75 24.2667 138.203 23.32 138.656 22.44C139.136 21.5333 139.536 20.8 139.856 20.24C140.176 19.6533 140.683 19.36 141.376 19.36H143.856C143.563 19.6 143.27 19.8533 142.976 20.12C142.683 20.3867 142.35 20.7867 141.976 21.32C141.63 21.8533 141.176 22.64 140.616 23.68C140.376 24.1067 140.11 24.6667 139.816 25.36C139.523 26.0267 139.23 26.72 138.936 27.44C138.643 28.16 138.403 28.84 138.216 29.48C138.03 30.0933 137.936 30.5867 137.936 30.96C137.936 31.84 138.23 32.28 138.816 32.28ZM150.794 31.36C150.794 31.6267 150.847 31.88 150.954 32.12C151.087 32.3333 151.301 32.44 151.594 32.44C152.127 32.44 152.674 32.16 153.234 31.6C153.794 31.0133 154.367 30.2667 154.954 29.36C155.567 28.4267 156.167 27.4667 156.754 26.48C157.687 24.9067 158.501 23.6 159.194 22.56C159.914 21.52 160.581 20.7467 161.194 20.24C161.594 19.8933 161.941 19.68 162.234 19.6C162.527 19.4933 162.821 19.44 163.114 19.44H163.394C164.487 19.44 164.794 19.9467 164.314 20.96L162.874 23.96C162.634 24.44 162.341 25.04 161.994 25.76C161.674 26.4533 161.354 27.1733 161.034 27.92C160.714 28.64 160.461 29.3333 160.274 30C160.087 30.64 160.021 31.16 160.074 31.56C160.127 31.96 160.367 32.16 160.794 32.16C161.141 32.16 161.554 31.8667 162.034 31.28C162.541 30.6667 163.074 29.8933 163.634 28.96C164.221 28.0267 164.807 27.04 165.394 26C166.007 24.96 166.607 23.9733 167.194 23.04C167.807 22.1067 168.381 21.36 168.914 20.8C169.047 20.6667 169.341 20.4133 169.794 20.04C170.247 19.64 170.687 19.44 171.114 19.44H171.394C171.874 19.44 172.207 19.56 172.394 19.8C172.581 20.0133 172.541 20.4 172.274 20.96L170.874 23.96C170.634 24.44 170.341 25.04 169.994 25.76C169.674 26.4533 169.354 27.1733 169.034 27.92C168.741 28.64 168.501 29.3333 168.314 30C168.154 30.64 168.101 31.16 168.154 31.56C168.234 31.96 168.501 32.16 168.954 32.16C169.621 32.16 170.274 31.8133 170.914 31.12C171.581 30.4267 172.207 29.5733 172.794 28.56C173.381 27.52 173.901 26.4933 174.354 25.48C174.461 25.48 174.567 25.52 174.674 25.6C174.781 25.6533 174.834 25.7333 174.834 25.84C174.354 27.04 173.794 28.2 173.154 29.32C172.541 30.44 171.834 31.36 171.034 32.08C170.234 32.8 169.314 33.16 168.274 33.16C167.394 33.16 166.794 32.8933 166.474 32.36C166.154 31.8267 166.047 31.12 166.154 30.24C166.287 29.3333 166.554 28.3333 166.954 27.24C167.381 26.12 167.887 24.9867 168.474 23.84C169.061 22.6933 169.661 21.6133 170.274 20.6C170.381 20.4133 170.381 20.32 170.274 20.32C170.194 20.32 170.021 20.4667 169.754 20.76C169.487 21.0533 169.327 21.2267 169.274 21.28C168.581 22.0533 167.927 22.96 167.314 24C166.727 25.0133 166.141 26.0533 165.554 27.12C164.994 28.1867 164.421 29.1867 163.834 30.12C163.247 31.0267 162.634 31.76 161.994 32.32C161.354 32.88 160.647 33.16 159.874 33.16C159.021 33.16 158.474 32.8133 158.234 32.12C158.021 31.4 158.047 30.44 158.314 29.24C158.607 28.04 159.101 26.6933 159.794 25.2C160.487 23.7067 161.314 22.1733 162.274 20.6C162.381 20.4133 162.367 20.32 162.234 20.32C162.101 20.32 161.821 20.5333 161.394 20.96C161.101 21.2533 160.807 21.5867 160.514 21.96C160.247 22.3333 159.887 22.8933 159.434 23.64C158.981 24.36 158.341 25.44 157.514 26.88C156.901 27.9467 156.261 28.9733 155.594 29.96C154.954 30.9467 154.274 31.76 153.554 32.4C152.834 33.0133 152.047 33.32 151.194 33.32C150.554 33.32 149.981 33.1333 149.474 32.76C148.967 32.36 148.714 31.7867 148.714 31.04C148.714 30.5867 148.821 30.0933 149.034 29.56C149.221 29.0267 149.501 28.5733 149.874 28.2C150.274 27.8267 150.754 27.6667 151.314 27.72C151.687 27.7467 152.021 27.8933 152.314 28.16C151.834 28.6133 151.461 29.1467 151.194 29.76C150.927 30.3733 150.794 30.9067 150.794 31.36ZM181.201 25.48C181.441 24.92 181.734 24.28 182.081 23.56C182.427 22.84 182.841 22.1467 183.321 21.48C183.827 20.7867 184.401 20.2133 185.041 19.76C185.707 19.3067 186.454 19.08 187.281 19.08C188.081 19.08 188.734 19.3067 189.241 19.76C189.774 20.1867 190.041 20.8667 190.041 21.8C190.041 22.5467 189.721 23.4267 189.081 24.44C188.441 25.4533 187.467 26.3467 186.161 27.12C187.147 27.0933 187.841 27.3467 188.241 27.88C188.667 28.3867 188.881 29.0133 188.881 29.76C188.881 29.9467 188.854 30.24 188.801 30.64C188.774 31.04 188.721 31.4533 188.641 31.88C188.587 32.28 188.521 32.5867 188.441 32.8C189.721 32.2133 190.801 31.2667 191.681 29.96C192.587 28.6267 193.401 27.1333 194.121 25.48C194.441 25.48 194.601 25.6 194.601 25.84C194.067 27.12 193.534 28.28 193.001 29.32C192.467 30.36 191.827 31.2533 191.081 32C190.361 32.72 189.414 33.28 188.241 33.68C187.707 35.1467 186.961 36.5733 186.001 37.96C185.067 39.3733 183.987 40.6533 182.761 41.8C181.534 42.9467 180.214 43.8533 178.801 44.52C177.387 45.2133 175.961 45.56 174.521 45.56C173.427 45.56 172.547 45.2667 171.881 44.68C171.214 44.12 170.881 43.3867 170.881 42.48C170.881 41.3333 171.281 40.3467 172.081 39.52C172.854 38.72 173.827 38.0267 175.001 37.44C176.174 36.8533 177.347 36.36 178.521 35.96C179.721 35.5067 180.947 35.0933 182.201 34.72C183.454 34.3733 184.641 34.0267 185.761 33.68C185.921 33.1733 186.081 32.5733 186.241 31.88C186.401 31.16 186.481 30.4933 186.481 29.88C186.481 29.2933 186.374 28.8267 186.161 28.48C185.947 28.1067 185.561 27.96 185.001 28.04C184.707 28.1467 184.401 28.3333 184.081 28.6C183.787 28.84 183.467 28.96 183.121 28.96C182.934 28.96 182.787 28.9067 182.681 28.8C182.601 28.6933 182.561 28.5867 182.561 28.48C182.561 28.2667 182.681 28.12 182.921 28.04C183.614 27.8267 184.334 27.4533 185.081 26.92C185.854 26.3867 186.507 25.76 187.041 25.04C187.601 24.32 187.881 23.5733 187.881 22.8C187.881 22.4 187.747 22.0267 187.481 21.68C187.214 21.3067 186.814 21.12 186.281 21.12C185.481 21.12 184.814 21.3333 184.281 21.76C183.747 22.1867 183.281 22.76 182.881 23.48C182.507 24.2 182.107 24.9867 181.681 25.84C181.361 25.84 181.201 25.72 181.201 25.48ZM174.121 44.8C175.401 44.8 176.761 44.3867 178.201 43.56C179.641 42.7333 181.001 41.56 182.281 40.04C183.587 38.52 184.627 36.72 185.401 34.64C184.281 34.9867 183.134 35.32 181.961 35.64C180.814 35.9867 179.734 36.3467 178.721 36.72C177.734 37.0667 176.747 37.5067 175.761 38.04C174.747 38.6 173.921 39.28 173.281 40.08C172.614 40.9067 172.281 41.88 172.281 43C172.281 43.5067 172.427 43.9333 172.721 44.28C173.014 44.6267 173.481 44.8 174.121 44.8ZM202.81 33.32C202.197 33.32 201.65 33.1467 201.17 32.8C200.717 32.4533 200.49 31.7467 200.49 30.68C200.49 30.2267 200.517 29.8 200.57 29.4C200.65 29 200.744 28.5733 200.85 28.12C200.61 28.52 200.277 29.0133 199.85 29.6C199.424 30.1867 198.944 30.76 198.41 31.32C197.904 31.88 197.37 32.3467 196.81 32.72C196.277 33.0933 195.77 33.28 195.29 33.28C194.597 33.28 194.037 32.9733 193.61 32.36C193.184 31.72 192.97 30.8933 192.97 29.88C192.97 28.7867 193.224 27.6133 193.73 26.36C194.237 25.1067 194.93 23.9067 195.81 22.76C196.69 21.6133 197.704 20.68 198.85 19.96C199.997 19.24 201.197 18.88 202.45 18.88C203.064 18.88 203.65 18.9867 204.21 19.2C204.77 19.3867 205.264 19.7067 205.69 20.16C205.877 20.3467 205.97 20.56 205.97 20.8C205.97 20.96 205.904 21.0933 205.77 21.2C205.637 21.3067 205.464 21.3333 205.25 21.28C204.957 20.3467 204.33 19.88 203.37 19.88C202.917 19.88 202.397 20.0267 201.81 20.32C201.09 20.6933 200.317 21.2933 199.49 22.12C198.69 22.92 197.93 23.84 197.21 24.88C196.517 25.8933 195.944 26.92 195.49 27.96C195.037 29 194.81 29.9467 194.81 30.8C194.81 31.68 195.144 32.12 195.81 32.12C196.397 32.12 196.997 31.84 197.61 31.28C198.25 30.72 198.85 30.0267 199.41 29.2C199.997 28.3467 200.53 27.5067 201.01 26.68C201.49 25.8533 201.864 25.1867 202.13 24.68C202.53 23.96 202.904 23.36 203.25 22.88C203.597 22.4 204.09 22.16 204.73 22.16C205.024 22.16 205.317 22.2 205.61 22.28C205.904 22.36 206.21 22.3733 206.53 22.32C205.73 23.12 205.024 24.0667 204.41 25.16C203.824 26.2533 203.37 27.3333 203.05 28.4C202.73 29.44 202.57 30.32 202.57 31.04C202.57 31.84 202.837 32.24 203.37 32.24C203.797 32.24 204.25 32 204.73 31.52C205.237 31.04 205.717 30.44 206.17 29.72C206.65 28.9733 207.09 28.2267 207.49 27.48C207.89 26.7067 208.21 26.04 208.45 25.48C208.584 25.48 208.69 25.4933 208.77 25.52C208.877 25.5467 208.93 25.6533 208.93 25.84C208.904 25.9467 208.85 26.0667 208.77 26.2C208.717 26.3067 208.624 26.5067 208.49 26.8C208.277 27.2267 207.984 27.8 207.61 28.52C207.237 29.24 206.797 29.9733 206.29 30.72C205.784 31.44 205.237 32.0533 204.65 32.56C204.064 33.0667 203.45 33.32 202.81 33.32ZM215.302 25.48C215.542 24.92 215.836 24.28 216.182 23.56C216.529 22.84 216.942 22.1467 217.422 21.48C217.929 20.7867 218.502 20.2133 219.142 19.76C219.809 19.3067 220.556 19.08 221.382 19.08C222.182 19.08 222.836 19.3067 223.342 19.76C223.876 20.1867 224.142 20.8667 224.142 21.8C224.142 22.5467 223.822 23.4267 223.182 24.44C222.542 25.4533 221.569 26.3467 220.262 27.12C221.249 27.0933 221.942 27.3467 222.342 27.88C222.769 28.3867 222.982 29.0133 222.982 29.76C222.982 29.9467 222.956 30.24 222.902 30.64C222.876 31.04 222.822 31.4533 222.742 31.88C222.689 32.28 222.622 32.5867 222.542 32.8C223.822 32.2133 224.902 31.2667 225.782 29.96C226.689 28.6267 227.502 27.1333 228.222 25.48C228.542 25.48 228.702 25.6 228.702 25.84C228.169 27.12 227.636 28.28 227.102 29.32C226.569 30.36 225.929 31.2533 225.182 32C224.462 32.72 223.516 33.28 222.342 33.68C221.809 35.1467 221.062 36.5733 220.102 37.96C219.169 39.3733 218.089 40.6533 216.862 41.8C215.636 42.9467 214.316 43.8533 212.902 44.52C211.489 45.2133 210.062 45.56 208.622 45.56C207.529 45.56 206.649 45.2667 205.982 44.68C205.316 44.12 204.982 43.3867 204.982 42.48C204.982 41.3333 205.382 40.3467 206.182 39.52C206.956 38.72 207.929 38.0267 209.102 37.44C210.276 36.8533 211.449 36.36 212.622 35.96C213.822 35.5067 215.049 35.0933 216.302 34.72C217.556 34.3733 218.742 34.0267 219.862 33.68C220.022 33.1733 220.182 32.5733 220.342 31.88C220.502 31.16 220.582 30.4933 220.582 29.88C220.582 29.2933 220.476 28.8267 220.262 28.48C220.049 28.1067 219.662 27.96 219.102 28.04C218.809 28.1467 218.502 28.3333 218.182 28.6C217.889 28.84 217.569 28.96 217.222 28.96C217.036 28.96 216.889 28.9067 216.782 28.8C216.702 28.6933 216.662 28.5867 216.662 28.48C216.662 28.2667 216.782 28.12 217.022 28.04C217.716 27.8267 218.436 27.4533 219.182 26.92C219.956 26.3867 220.609 25.76 221.142 25.04C221.702 24.32 221.982 23.5733 221.982 22.8C221.982 22.4 221.849 22.0267 221.582 21.68C221.316 21.3067 220.916 21.12 220.382 21.12C219.582 21.12 218.916 21.3333 218.382 21.76C217.849 22.1867 217.382 22.76 216.982 23.48C216.609 24.2 216.209 24.9867 215.782 25.84C215.462 25.84 215.302 25.72 215.302 25.48ZM208.222 44.8C209.502 44.8 210.862 44.3867 212.302 43.56C213.742 42.7333 215.102 41.56 216.382 40.04C217.689 38.52 218.729 36.72 219.502 34.64C218.382 34.9867 217.236 35.32 216.062 35.64C214.916 35.9867 213.836 36.3467 212.822 36.72C211.836 37.0667 210.849 37.5067 209.862 38.04C208.849 38.6 208.022 39.28 207.382 40.08C206.716 40.9067 206.382 41.88 206.382 43C206.382 43.5067 206.529 43.9333 206.822 44.28C207.116 44.6267 207.582 44.8 208.222 44.8ZM236.912 33.32C236.299 33.32 235.752 33.1467 235.272 32.8C234.819 32.4533 234.592 31.7467 234.592 30.68C234.592 30.2267 234.619 29.8 234.672 29.4C234.752 29 234.845 28.5733 234.952 28.12C234.712 28.52 234.379 29.0133 233.952 29.6C233.525 30.1867 233.045 30.76 232.512 31.32C232.005 31.88 231.472 32.3467 230.912 32.72C230.379 33.0933 229.872 33.28 229.392 33.28C228.699 33.28 228.139 32.9733 227.712 32.36C227.285 31.72 227.072 30.8933 227.072 29.88C227.072 28.7867 227.325 27.6133 227.832 26.36C228.339 25.1067 229.032 23.9067 229.912 22.76C230.792 21.6133 231.805 20.68 232.952 19.96C234.099 19.24 235.299 18.88 236.552 18.88C237.165 18.88 237.752 18.9867 238.312 19.2C238.872 19.3867 239.365 19.7067 239.792 20.16C239.979 20.3467 240.072 20.56 240.072 20.8C240.072 20.96 240.005 21.0933 239.872 21.2C239.739 21.3067 239.565 21.3333 239.352 21.28C239.059 20.3467 238.432 19.88 237.472 19.88C237.019 19.88 236.499 20.0267 235.912 20.32C235.192 20.6933 234.419 21.2933 233.592 22.12C232.792 22.92 232.032 23.84 231.312 24.88C230.619 25.8933 230.045 26.92 229.592 27.96C229.139 29 228.912 29.9467 228.912 30.8C228.912 31.68 229.245 32.12 229.912 32.12C230.499 32.12 231.099 31.84 231.712 31.28C232.352 30.72 232.952 30.0267 233.512 29.2C234.099 28.3467 234.632 27.5067 235.112 26.68C235.592 25.8533 235.965 25.1867 236.232 24.68C236.632 23.96 237.005 23.36 237.352 22.88C237.699 22.4 238.192 22.16 238.832 22.16C239.125 22.16 239.419 22.2 239.712 22.28C240.005 22.36 240.312 22.3733 240.632 22.32C239.832 23.12 239.125 24.0667 238.512 25.16C237.925 26.2533 237.472 27.3333 237.152 28.4C236.832 29.44 236.672 30.32 236.672 31.04C236.672 31.84 236.939 32.24 237.472 32.24C237.899 32.24 238.352 32 238.832 31.52C239.339 31.04 239.819 30.44 240.272 29.72C240.752 28.9733 241.192 28.2267 241.592 27.48C241.992 26.7067 242.312 26.04 242.552 25.48C242.685 25.48 242.792 25.4933 242.872 25.52C242.979 25.5467 243.032 25.6533 243.032 25.84C243.005 25.9467 242.952 26.0667 242.872 26.2C242.819 26.3067 242.725 26.5067 242.592 26.8C242.379 27.2267 242.085 27.8 241.712 28.52C241.339 29.24 240.899 29.9733 240.392 30.72C239.885 31.44 239.339 32.0533 238.752 32.56C238.165 33.0667 237.552 33.32 236.912 33.32ZM238.728 33.52C239.688 31.5733 240.608 29.6533 241.488 27.76C242.368 25.84 243.274 24.0133 244.208 22.28C244.741 21.32 245.194 20.6533 245.568 20.28C245.941 19.88 246.434 19.68 247.048 19.68C247.261 19.68 247.488 19.72 247.728 19.8C247.968 19.8533 248.208 19.88 248.448 19.88C248.608 19.88 248.728 19.8667 248.808 19.84C248.434 20.0533 247.941 20.5867 247.328 21.44C246.741 22.2667 246.141 23.2267 245.528 24.32C244.914 25.4133 244.368 26.44 243.888 27.4C244.394 26.7867 244.928 26.1733 245.488 25.56C246.048 24.9467 246.661 24.36 247.328 23.8C247.968 23.24 248.728 22.6667 249.608 22.08C250.514 21.4667 251.394 20.96 252.248 20.56C253.101 20.16 253.781 19.96 254.288 19.96C254.474 19.96 254.608 19.9733 254.688 20C254.688 20 254.541 20.2667 254.248 20.8C253.954 21.3067 253.581 21.9867 253.128 22.84C252.701 23.6667 252.261 24.56 251.808 25.52C251.354 26.4533 250.941 27.36 250.568 28.24C250.221 29.0933 249.994 29.8133 249.888 30.4C249.808 30.7467 249.768 31.0667 249.768 31.36C249.768 31.7867 249.848 32.0667 250.008 32.2C250.168 32.3333 250.341 32.4 250.528 32.4C251.034 32.4 251.554 32.1733 252.088 31.72C252.621 31.2667 253.128 30.6933 253.608 30C254.114 29.28 254.581 28.52 255.008 27.72C255.434 26.92 255.794 26.1733 256.088 25.48C256.408 25.48 256.568 25.6 256.568 25.84C256.274 26.56 255.901 27.36 255.448 28.24C255.021 29.0933 254.528 29.9067 253.968 30.68C253.434 31.4533 252.834 32.0933 252.168 32.6C251.501 33.1067 250.781 33.36 250.008 33.36C249.474 33.36 248.914 33.1733 248.328 32.8C247.768 32.4267 247.488 31.7333 247.488 30.72C247.488 30.4267 247.514 30.12 247.568 29.8C247.621 29.4533 247.714 29.08 247.848 28.68C248.061 28.1467 248.314 27.5733 248.608 26.96C248.901 26.3467 249.381 25.5067 250.048 24.44C250.234 24.1467 250.341 23.92 250.368 23.76C250.421 23.6 250.448 23.4667 250.448 23.36C250.448 23.04 250.301 22.88 250.008 22.88C249.768 22.88 249.408 23.0133 248.928 23.28C248.474 23.5467 247.901 24.0133 247.208 24.68C246.541 25.32 245.741 26.2267 244.808 27.4C243.901 28.5733 242.848 30.3067 241.648 32.6C241.461 32.9467 241.248 33.1333 241.008 33.16C240.794 33.1867 240.488 33.2133 240.088 33.24C239.821 33.2667 239.568 33.28 239.328 33.28C239.088 33.3067 238.888 33.3867 238.728 33.52ZM268.163 28.76C267.737 29.0267 267.337 29.2 266.963 29.28C266.59 29.3333 266.217 29.36 265.843 29.36C265.23 29.36 264.723 29.1867 264.323 28.84C263.577 30.0667 262.683 31.1067 261.643 31.96C260.63 32.7867 259.577 33.2 258.483 33.2C257.39 33.2 256.577 32.8133 256.043 32.04C255.537 31.24 255.283 30.28 255.283 29.16C255.283 28.12 255.483 27.04 255.883 25.92C256.31 24.6933 256.897 23.5733 257.643 22.56C258.417 21.5467 259.257 20.7333 260.163 20.12C261.097 19.48 262.017 19.16 262.923 19.16C264.017 19.16 264.817 19.5333 265.323 20.28C265.857 21.0267 266.123 21.9733 266.123 23.12C266.123 23.92 265.99 24.76 265.723 25.64C265.457 26.52 265.097 27.3867 264.643 28.24C264.99 28.5867 265.483 28.76 266.123 28.76C266.363 28.76 266.603 28.7333 266.843 28.68C267.083 28.6267 267.363 28.5067 267.683 28.32C267.843 28.32 267.963 28.3733 268.043 28.48C268.123 28.5867 268.163 28.68 268.163 28.76ZM259.043 32.32C259.657 32.32 260.27 32.0667 260.883 31.56C261.497 31.0267 262.057 30.4267 262.563 29.76C263.07 29.0933 263.43 28.52 263.643 28.04C263.217 27.2667 262.963 26.6933 262.883 26.32C262.83 25.92 262.803 25.6267 262.803 25.44C262.803 24.9333 262.937 24.5467 263.203 24.28C263.47 24.0133 263.737 23.88 264.003 23.88C264.377 23.88 264.697 24.04 264.963 24.36C265.017 24.0667 265.057 23.8 265.083 23.56C265.11 23.2933 265.123 23.04 265.123 22.8C265.123 22.1067 264.99 21.5467 264.723 21.12C264.483 20.6667 264.097 20.44 263.563 20.44C263.003 20.44 262.417 20.68 261.803 21.16C261.19 21.64 260.603 22.28 260.043 23.08C259.51 23.88 259.043 24.7733 258.643 25.76C258.297 26.5867 258.03 27.3733 257.843 28.12C257.657 28.84 257.563 29.5067 257.563 30.12C257.563 30.7867 257.683 31.32 257.923 31.72C258.163 32.12 258.537 32.32 259.043 32.32ZM275.638 26.88C274.705 28.48 273.905 29.7467 273.238 30.68C272.571 31.6133 271.945 32.2933 271.358 32.72C270.798 33.12 270.198 33.32 269.558 33.32C269.211 33.32 268.838 33.24 268.438 33.08C268.038 32.92 267.691 32.64 267.398 32.24C267.131 31.84 266.998 31.2667 266.998 30.52C266.998 29.8 267.145 29.1067 267.438 28.44C267.758 27.7467 268.171 27.1733 268.678 26.72C269.185 26.2667 269.705 26.04 270.238 26.04C270.771 26.04 271.211 26.2533 271.558 26.68C271.158 26.8933 270.771 27.2533 270.398 27.76C270.025 28.24 269.718 28.7733 269.478 29.36C269.265 29.92 269.158 30.4667 269.158 31C269.158 31.5067 269.238 31.8533 269.398 32.04C269.558 32.2267 269.785 32.32 270.078 32.32C270.638 32.32 271.318 31.7733 272.118 30.68C272.945 29.5867 273.865 28.1867 274.878 26.48C275.651 25.2267 276.411 24.0667 277.158 23C277.931 21.9333 278.651 21.1067 279.318 20.52C280.171 19.8 280.985 19.44 281.758 19.44H281.918C282.985 19.44 283.278 19.9467 282.798 20.96L281.398 23.96C281.158 24.44 280.865 25.04 280.518 25.76C280.198 26.4533 279.878 27.1733 279.558 27.92C279.265 28.64 279.025 29.3333 278.838 30C278.678 30.64 278.625 31.16 278.678 31.56C278.758 31.96 279.025 32.16 279.478 32.16C280.145 32.16 280.798 31.8133 281.438 31.12C282.105 30.4267 282.731 29.5733 283.318 28.56C283.905 27.52 284.425 26.4933 284.878 25.48C284.985 25.48 285.091 25.52 285.198 25.6C285.305 25.6533 285.358 25.7333 285.358 25.84C284.878 27.04 284.318 28.2 283.678 29.32C283.065 30.44 282.345 31.36 281.518 32.08C280.718 32.8 279.785 33.16 278.718 33.16C277.678 33.16 277.025 32.8 276.758 32.08C276.518 31.3333 276.545 30.36 276.838 29.16C277.158 27.96 277.651 26.6533 278.318 25.24C278.985 23.8 279.718 22.4 280.518 21.04C280.811 20.56 280.891 20.32 280.758 20.32C280.651 20.32 280.465 20.4267 280.198 20.64C279.958 20.8267 279.731 21.0267 279.518 21.24C279.011 21.72 278.465 22.3867 277.878 23.24C277.291 24.0933 276.545 25.3067 275.638 26.88ZM284.553 32.6C284.526 32.8667 284.366 33.0533 284.073 33.16C283.806 33.24 283.539 33.28 283.273 33.28C282.846 33.28 282.526 33.3467 282.313 33.48C282.313 32.9467 282.459 32.2 282.753 31.24C283.046 30.2533 283.393 29.2 283.793 28.08C284.219 26.9333 284.646 25.8667 285.073 24.88C285.526 23.8667 285.899 23.08 286.193 22.52C286.833 21.3467 287.366 20.6 287.793 20.28C288.246 19.96 288.766 19.8 289.353 19.8C289.886 19.8 290.259 19.8267 290.473 19.88C290.713 19.9067 290.886 19.92 290.993 19.92C290.406 20.24 289.713 20.9867 288.913 22.16C288.139 23.3333 287.406 24.64 286.713 26.08C286.926 25.8667 287.166 25.6933 287.433 25.56C287.726 25.4267 288.059 25.36 288.433 25.36C288.939 25.36 289.379 25.4533 289.753 25.64C290.126 25.8 290.646 25.88 291.313 25.88C291.819 25.88 292.153 25.72 292.313 25.4C292.739 24.44 293.179 23.5067 293.633 22.6C294.086 21.6667 294.459 20.8933 294.753 20.28C294.913 19.9333 295.126 19.7067 295.393 19.6C295.686 19.4933 296.006 19.44 296.353 19.44H298.513C298.059 19.8133 297.673 20.16 297.353 20.48C297.059 20.7733 296.766 21.1333 296.473 21.56C296.206 21.9867 295.859 22.6 295.433 23.4C295.086 24.0667 294.673 24.9333 294.193 26C293.713 27.0667 293.353 28.0133 293.113 28.84C293.006 29.1333 292.913 29.48 292.833 29.88C292.779 30.28 292.753 30.6533 292.753 31C292.753 31.4267 292.819 31.7867 292.953 32.08C293.086 32.3733 293.313 32.52 293.633 32.52C294.139 32.52 294.659 32.3067 295.193 31.88C295.726 31.4267 296.246 30.8533 296.753 30.16C297.259 29.44 297.726 28.6667 298.153 27.84C298.606 27.0133 298.993 26.2267 299.313 25.48C299.526 25.48 299.659 25.5067 299.713 25.56C299.766 25.6133 299.793 25.7067 299.793 25.84C299.473 26.64 299.073 27.4933 298.593 28.4C298.139 29.28 297.606 30.1067 296.993 30.88C296.406 31.6533 295.753 32.2933 295.033 32.8C294.339 33.28 293.593 33.52 292.793 33.52C291.993 33.52 291.419 33.28 291.073 32.8C290.753 32.32 290.593 31.72 290.593 31C290.593 30.6267 290.633 30.2267 290.713 29.8C290.819 29.3733 290.939 28.9467 291.073 28.52C291.179 28.2 291.299 27.8667 291.433 27.52C291.566 27.1467 291.713 26.7867 291.873 26.44C291.713 26.6533 291.513 26.8267 291.273 26.96C291.033 27.0667 290.726 27.12 290.353 27.12C289.979 27.12 289.673 27.0667 289.433 26.96C289.193 26.8533 288.939 26.7467 288.673 26.64C288.406 26.5333 288.059 26.48 287.633 26.48C287.366 26.48 287.086 26.5333 286.793 26.64C286.526 26.7467 286.313 26.9867 286.153 27.36C285.753 28.2933 285.406 29.2133 285.113 30.12C284.846 31.0267 284.659 31.8533 284.553 32.6ZM302.206 33.36C301.219 33.36 300.326 33.04 299.526 32.4C298.752 31.76 298.366 30.7867 298.366 29.48C298.366 28.3867 298.606 27.2267 299.086 26C299.592 24.7733 300.246 23.6267 301.046 22.56C301.872 21.4667 302.779 20.5867 303.766 19.92C304.779 19.2267 305.792 18.88 306.806 18.88C307.312 18.88 307.806 19.0267 308.286 19.32C308.766 19.6133 309.006 20.12 309.006 20.84C309.006 21.5067 308.752 22.24 308.246 23.04C307.739 23.84 307.019 24.5867 306.086 25.28C305.686 25.5733 305.179 25.8533 304.566 26.12C303.952 26.3867 303.339 26.6133 302.726 26.8C302.112 26.96 301.606 27.04 301.206 27.04C301.072 27.36 300.939 27.7867 300.806 28.32C300.699 28.8533 300.646 29.4 300.646 29.96C300.646 30.6267 300.779 31.2267 301.046 31.76C301.312 32.2933 301.806 32.56 302.526 32.56C303.406 32.56 304.219 32.3067 304.966 31.8C305.739 31.2933 306.419 30.6533 307.006 29.88C307.619 29.1067 308.139 28.32 308.566 27.52C308.992 26.72 309.326 26.04 309.566 25.48C309.886 25.48 310.046 25.6 310.046 25.84C309.699 26.5867 309.299 27.4 308.846 28.28C308.419 29.16 307.899 29.9867 307.286 30.76C306.699 31.5067 305.979 32.1333 305.126 32.64C304.299 33.12 303.326 33.36 302.206 33.36ZM301.486 26.32C301.859 26.32 302.486 26.1867 303.366 25.92C304.246 25.6267 305.046 25.1733 305.766 24.56C306.459 23.9467 306.992 23.28 307.366 22.56C307.739 21.8133 307.926 21.1867 307.926 20.68C307.926 20.0933 307.712 19.8 307.286 19.8C306.966 19.8 306.526 20.0133 305.966 20.44C305.406 20.8667 304.712 21.5867 303.886 22.6C303.379 23.24 302.899 23.9333 302.446 24.68C301.992 25.4267 301.672 25.9733 301.486 26.32ZM309.24 32.6C309.213 32.8667 309.053 33.0533 308.76 33.16C308.493 33.24 308.227 33.28 307.96 33.28C307.533 33.28 307.213 33.3467 307 33.48C307 32.9467 307.147 32.2 307.44 31.24C307.733 30.2533 308.08 29.2 308.48 28.08C308.907 26.9333 309.333 25.8667 309.76 24.88C310.213 23.8667 310.587 23.08 310.88 22.52C311.52 21.3467 312.053 20.6 312.48 20.28C312.933 19.96 313.453 19.8 314.04 19.8C314.573 19.8 314.947 19.8267 315.16 19.88C315.4 19.9067 315.573 19.92 315.68 19.92C315.093 20.24 314.4 20.9867 313.6 22.16C312.827 23.3333 312.093 24.64 311.4 26.08C311.613 25.8667 311.853 25.6933 312.12 25.56C312.413 25.4267 312.747 25.36 313.12 25.36C313.627 25.36 314.067 25.4533 314.44 25.64C314.813 25.8 315.333 25.88 316 25.88C316.507 25.88 316.84 25.72 317 25.4C317.427 24.44 317.867 23.5067 318.32 22.6C318.773 21.6667 319.147 20.8933 319.44 20.28C319.6 19.9333 319.813 19.7067 320.08 19.6C320.373 19.4933 320.693 19.44 321.04 19.44H323.2C322.747 19.8133 322.36 20.16 322.04 20.48C321.747 20.7733 321.453 21.1333 321.16 21.56C320.893 21.9867 320.547 22.6 320.12 23.4C319.773 24.0667 319.36 24.9333 318.88 26C318.4 27.0667 318.04 28.0133 317.8 28.84C317.693 29.1333 317.6 29.48 317.52 29.88C317.467 30.28 317.44 30.6533 317.44 31C317.44 31.4267 317.507 31.7867 317.64 32.08C317.773 32.3733 318 32.52 318.32 32.52C318.827 32.52 319.347 32.3067 319.88 31.88C320.413 31.4267 320.933 30.8533 321.44 30.16C321.947 29.44 322.413 28.6667 322.84 27.84C323.293 27.0133 323.68 26.2267 324 25.48C324.213 25.48 324.347 25.5067 324.4 25.56C324.453 25.6133 324.48 25.7067 324.48 25.84C324.16 26.64 323.76 27.4933 323.28 28.4C322.827 29.28 322.293 30.1067 321.68 30.88C321.093 31.6533 320.44 32.2933 319.72 32.8C319.027 33.28 318.28 33.52 317.48 33.52C316.68 33.52 316.107 33.28 315.76 32.8C315.44 32.32 315.28 31.72 315.28 31C315.28 30.6267 315.32 30.2267 315.4 29.8C315.507 29.3733 315.627 28.9467 315.76 28.52C315.867 28.2 315.987 27.8667 316.12 27.52C316.253 27.1467 316.4 26.7867 316.56 26.44C316.4 26.6533 316.2 26.8267 315.96 26.96C315.72 27.0667 315.413 27.12 315.04 27.12C314.667 27.12 314.36 27.0667 314.12 26.96C313.88 26.8533 313.627 26.7467 313.36 26.64C313.093 26.5333 312.747 26.48 312.32 26.48C312.053 26.48 311.773 26.5333 311.48 26.64C311.213 26.7467 311 26.9867 310.84 27.36C310.44 28.2933 310.093 29.2133 309.8 30.12C309.533 31.0267 309.347 31.8533 309.24 32.6ZM325.173 33.2C324.88 33.2 324.52 33.1333 324.093 33C323.693 32.8667 323.333 32.6267 323.013 32.28C322.72 31.9067 322.573 31.36 322.573 30.64C322.573 29.9467 322.8 29.1467 323.253 28.24C323.706 27.3333 324.106 26.5333 324.453 25.84C324.16 25.84 324.013 25.72 324.013 25.48C324.04 25.4 324.16 25.1467 324.373 24.72C324.586 24.2933 324.84 23.7867 325.133 23.2C325.426 22.6133 325.706 22.0533 325.973 21.52C326.266 20.96 326.493 20.5333 326.653 20.24C326.973 19.6533 327.48 19.36 328.173 19.36H330.653C330.2 19.7067 329.786 20.0933 329.413 20.52C329.066 20.92 328.626 21.6667 328.093 22.76C328.093 22.76 328 22.9467 327.813 23.32C327.626 23.6933 327.386 24.1733 327.093 24.76C326.826 25.32 326.546 25.8933 326.253 26.48C325.986 27.0667 325.76 27.56 325.573 27.96C325.226 28.7067 325 29.3067 324.893 29.76C324.786 30.1867 324.733 30.5867 324.733 30.96C324.733 31.84 325.026 32.28 325.613 32.28C326.253 32.28 327.026 31.76 327.933 30.72C328.68 29.84 329.413 28.7867 330.133 27.56C330.853 26.3333 331.533 25.0667 332.173 23.76C332.84 22.4533 333.426 21.28 333.933 20.24C334.226 19.6533 334.746 19.36 335.493 19.36H337.693C337.106 19.84 336.506 20.56 335.893 21.52C335.306 22.48 334.653 23.7067 333.933 25.2C333.746 25.6 333.506 26.1067 333.213 26.72C332.92 27.3333 332.653 27.9867 332.413 28.68C332.2 29.3733 332.093 30.0667 332.093 30.76C332.093 31.6933 332.426 32.16 333.093 32.16C334 32.16 334.88 31.5333 335.733 30.28C336.586 29.0267 337.426 27.4267 338.253 25.48C338.466 25.48 338.586 25.4933 338.613 25.52C338.666 25.5467 338.706 25.6533 338.733 25.84C338.44 26.56 338.08 27.3467 337.653 28.2C337.253 29.0267 336.786 29.8267 336.253 30.6C335.746 31.3733 335.173 32 334.533 32.48C333.92 32.96 333.24 33.2 332.493 33.2C331.826 33.2 331.28 32.96 330.853 32.48C330.426 31.9733 330.213 31.2667 330.213 30.36C330.213 29.64 330.346 28.8667 330.613 28.04C330.16 28.84 329.64 29.64 329.053 30.44C328.466 31.24 327.84 31.9067 327.173 32.44C326.506 32.9467 325.84 33.2 325.173 33.2ZM341.151 33.36C340.164 33.36 339.271 33.04 338.471 32.4C337.698 31.76 337.311 30.7867 337.311 29.48C337.311 28.3867 337.551 27.2267 338.031 26C338.538 24.7733 339.191 23.6267 339.991 22.56C340.818 21.4667 341.724 20.5867 342.711 19.92C343.724 19.2267 344.738 18.88 345.751 18.88C346.258 18.88 346.751 19.0267 347.231 19.32C347.711 19.6133 347.951 20.12 347.951 20.84C347.951 21.5067 347.698 22.24 347.191 23.04C346.684 23.84 345.964 24.5867 345.031 25.28C344.631 25.5733 344.124 25.8533 343.511 26.12C342.898 26.3867 342.284 26.6133 341.671 26.8C341.058 26.96 340.551 27.04 340.151 27.04C340.018 27.36 339.884 27.7867 339.751 28.32C339.644 28.8533 339.591 29.4 339.591 29.96C339.591 30.6267 339.724 31.2267 339.991 31.76C340.258 32.2933 340.751 32.56 341.471 32.56C342.351 32.56 343.164 32.3067 343.911 31.8C344.684 31.2933 345.364 30.6533 345.951 29.88C346.564 29.1067 347.084 28.32 347.511 27.52C347.938 26.72 348.271 26.04 348.511 25.48C348.831 25.48 348.991 25.6 348.991 25.84C348.644 26.5867 348.244 27.4 347.791 28.28C347.364 29.16 346.844 29.9867 346.231 30.76C345.644 31.5067 344.924 32.1333 344.071 32.64C343.244 33.12 342.271 33.36 341.151 33.36ZM340.431 26.32C340.804 26.32 341.431 26.1867 342.311 25.92C343.191 25.6267 343.991 25.1733 344.711 24.56C345.404 23.9467 345.938 23.28 346.311 22.56C346.684 21.8133 346.871 21.1867 346.871 20.68C346.871 20.0933 346.658 19.8 346.231 19.8C345.911 19.8 345.471 20.0133 344.911 20.44C344.351 20.8667 343.658 21.5867 342.831 22.6C342.324 23.24 341.844 23.9333 341.391 24.68C340.938 25.4267 340.618 25.9733 340.431 26.32ZM364.021 33.32C363.408 33.32 362.861 33.1467 362.381 32.8C361.928 32.4533 361.701 31.7467 361.701 30.68C361.701 30.2267 361.728 29.8 361.781 29.4C361.861 29 361.955 28.5733 362.061 28.12C361.821 28.52 361.488 29.0133 361.061 29.6C360.635 30.1867 360.155 30.76 359.621 31.32C359.115 31.88 358.581 32.3467 358.021 32.72C357.488 33.0933 356.981 33.28 356.501 33.28C355.808 33.28 355.248 32.9733 354.821 32.36C354.395 31.72 354.181 30.8933 354.181 29.88C354.181 28.7867 354.435 27.6133 354.941 26.36C355.448 25.1067 356.141 23.9067 357.021 22.76C357.901 21.6133 358.915 20.68 360.061 19.96C361.208 19.24 362.408 18.88 363.661 18.88C364.275 18.88 364.861 18.9867 365.421 19.2C365.981 19.3867 366.475 19.7067 366.901 20.16C367.088 20.3467 367.181 20.56 367.181 20.8C367.181 20.96 367.115 21.0933 366.981 21.2C366.848 21.3067 366.675 21.3333 366.461 21.28C366.168 20.3467 365.541 19.88 364.581 19.88C364.128 19.88 363.608 20.0267 363.021 20.32C362.301 20.6933 361.528 21.2933 360.701 22.12C359.901 22.92 359.141 23.84 358.421 24.88C357.728 25.8933 357.155 26.92 356.701 27.96C356.248 29 356.021 29.9467 356.021 30.8C356.021 31.68 356.355 32.12 357.021 32.12C357.608 32.12 358.208 31.84 358.821 31.28C359.461 30.72 360.061 30.0267 360.621 29.2C361.208 28.3467 361.741 27.5067 362.221 26.68C362.701 25.8533 363.075 25.1867 363.341 24.68C363.741 23.96 364.115 23.36 364.461 22.88C364.808 22.4 365.301 22.16 365.941 22.16C366.235 22.16 366.528 22.2 366.821 22.28C367.115 22.36 367.421 22.3733 367.741 22.32C366.941 23.12 366.235 24.0667 365.621 25.16C365.035 26.2533 364.581 27.3333 364.261 28.4C363.941 29.44 363.781 30.32 363.781 31.04C363.781 31.84 364.048 32.24 364.581 32.24C365.008 32.24 365.461 32 365.941 31.52C366.448 31.04 366.928 30.44 367.381 29.72C367.861 28.9733 368.301 28.2267 368.701 27.48C369.101 26.7067 369.421 26.04 369.661 25.48C369.795 25.48 369.901 25.4933 369.981 25.52C370.088 25.5467 370.141 25.6533 370.141 25.84C370.115 25.9467 370.061 26.0667 369.981 26.2C369.928 26.3067 369.835 26.5067 369.701 26.8C369.488 27.2267 369.195 27.8 368.821 28.52C368.448 29.24 368.008 29.9733 367.501 30.72C366.995 31.44 366.448 32.0533 365.861 32.56C365.275 33.0667 364.661 33.32 364.021 33.32ZM369.357 32.6C369.331 32.8667 369.171 33.0533 368.877 33.16C368.611 33.24 368.344 33.28 368.077 33.28C367.651 33.28 367.331 33.3467 367.117 33.48C367.117 32.9467 367.264 32.2 367.557 31.24C367.851 30.2533 368.197 29.2 368.597 28.08C369.024 26.9333 369.451 25.8667 369.877 24.88C370.331 23.8667 370.704 23.08 370.997 22.52C371.637 21.3467 372.171 20.6 372.597 20.28C373.051 19.96 373.571 19.8 374.157 19.8C374.691 19.8 375.064 19.8267 375.277 19.88C375.517 19.9067 375.691 19.92 375.797 19.92C375.211 20.24 374.517 20.9867 373.717 22.16C372.944 23.3333 372.211 24.64 371.517 26.08C371.731 25.8667 371.971 25.6933 372.237 25.56C372.531 25.4267 372.864 25.36 373.237 25.36C373.744 25.36 374.184 25.4533 374.557 25.64C374.931 25.8 375.451 25.88 376.117 25.88C376.624 25.88 376.957 25.72 377.117 25.4C377.544 24.44 377.984 23.5067 378.437 22.6C378.891 21.6667 379.264 20.8933 379.557 20.28C379.717 19.9333 379.931 19.7067 380.197 19.6C380.491 19.4933 380.811 19.44 381.157 19.44H383.317C382.864 19.8133 382.477 20.16 382.157 20.48C381.864 20.7733 381.571 21.1333 381.277 21.56C381.011 21.9867 380.664 22.6 380.237 23.4C379.891 24.0667 379.477 24.9333 378.997 26C378.517 27.0667 378.157 28.0133 377.917 28.84C377.811 29.1333 377.717 29.48 377.637 29.88C377.584 30.28 377.557 30.6533 377.557 31C377.557 31.4267 377.624 31.7867 377.757 32.08C377.891 32.3733 378.117 32.52 378.437 32.52C378.944 32.52 379.464 32.3067 379.997 31.88C380.531 31.4267 381.051 30.8533 381.557 30.16C382.064 29.44 382.531 28.6667 382.957 27.84C383.411 27.0133 383.797 26.2267 384.117 25.48C384.331 25.48 384.464 25.5067 384.517 25.56C384.571 25.6133 384.597 25.7067 384.597 25.84C384.277 26.64 383.877 27.4933 383.397 28.4C382.944 29.28 382.411 30.1067 381.797 30.88C381.211 31.6533 380.557 32.2933 379.837 32.8C379.144 33.28 378.397 33.52 377.597 33.52C376.797 33.52 376.224 33.28 375.877 32.8C375.557 32.32 375.397 31.72 375.397 31C375.397 30.6267 375.437 30.2267 375.517 29.8C375.624 29.3733 375.744 28.9467 375.877 28.52C375.984 28.2 376.104 27.8667 376.237 27.52C376.371 27.1467 376.517 26.7867 376.677 26.44C376.517 26.6533 376.317 26.8267 376.077 26.96C375.837 27.0667 375.531 27.12 375.157 27.12C374.784 27.12 374.477 27.0667 374.237 26.96C373.997 26.8533 373.744 26.7467 373.477 26.64C373.211 26.5333 372.864 26.48 372.437 26.48C372.171 26.48 371.891 26.5333 371.597 26.64C371.331 26.7467 371.117 26.9867 370.957 27.36C370.557 28.2933 370.211 29.2133 369.917 30.12C369.651 31.0267 369.464 31.8533 369.357 32.6ZM385.77 26.2L385.53 26.76C386.73 25.1333 387.997 23.7467 389.33 22.6C390.69 21.4267 391.97 20.5333 393.17 19.92C394.37 19.28 395.317 18.96 396.01 18.96C396.917 18.96 397.477 19.2 397.69 19.68C397.77 19.8667 397.81 20.0667 397.81 20.28C397.81 20.68 397.677 21.0533 397.41 21.4C397.144 21.72 396.77 21.88 396.29 21.88C396.264 21.88 396.21 21.88 396.13 21.88C396.05 21.88 395.984 21.8667 395.93 21.84C395.877 21.4667 395.744 21.1467 395.53 20.88C395.317 20.6133 394.904 20.48 394.29 20.48C393.597 20.48 392.917 20.7733 392.25 21.36C391.61 21.92 391.064 22.6933 390.61 23.68C390.184 24.64 389.944 25.72 389.89 26.92C389.864 27.7467 389.917 28.5867 390.05 29.44C390.21 30.2667 390.49 30.96 390.89 31.52C391.29 32.0533 391.85 32.32 392.57 32.32C393.21 32.32 393.797 32.08 394.33 31.6C394.864 31.12 395.357 30.52 395.81 29.8C396.264 29.0533 396.664 28.2933 397.01 27.52C397.357 26.7467 397.664 26.0667 397.93 25.48C398.25 25.48 398.41 25.6 398.41 25.84C397.904 27.0667 397.357 28.2667 396.77 29.44C396.21 30.6133 395.53 31.5867 394.73 32.36C393.93 33.1067 392.957 33.48 391.81 33.48C390.504 33.48 389.517 33.0667 388.85 32.24C388.184 31.3867 387.797 30.28 387.69 28.92C387.584 27.56 387.73 26.0933 388.13 24.52C387.224 25.56 386.49 26.48 385.93 27.28C385.397 28.0533 384.917 28.84 384.49 29.64C384.09 30.44 383.65 31.3867 383.17 32.48C383.037 32.8 382.864 32.9733 382.65 33C382.464 33.0267 382.157 33.04 381.73 33.04H380.97C380.89 33.04 380.797 33.08 380.69 33.16C380.584 33.2133 380.477 33.2667 380.37 33.32C380.69 32.68 381.024 32.0133 381.37 31.32C381.69 30.6267 382.077 29.8133 382.53 28.88C382.984 27.9467 383.517 26.8133 384.13 25.48C384.184 25.4 384.344 25.0267 384.61 24.36C384.904 23.6667 385.304 22.7867 385.81 21.72C386.344 20.6 386.864 19.7733 387.37 19.24C387.877 18.7067 388.45 18.44 389.09 18.44C389.33 18.44 389.517 18.4667 389.65 18.52C389.784 18.5733 390.05 18.6 390.45 18.6C389.49 19.64 388.677 20.7867 388.01 22.04C387.37 23.2933 386.624 24.68 385.77 26.2ZM400.799 33.36C399.813 33.36 398.919 33.04 398.119 32.4C397.346 31.76 396.959 30.7867 396.959 29.48C396.959 28.3867 397.199 27.2267 397.679 26C398.186 24.7733 398.839 23.6267 399.639 22.56C400.466 21.4667 401.373 20.5867 402.359 19.92C403.373 19.2267 404.386 18.88 405.399 18.88C405.906 18.88 406.399 19.0267 406.879 19.32C407.359 19.6133 407.599 20.12 407.599 20.84C407.599 21.5067 407.346 22.24 406.839 23.04C406.333 23.84 405.613 24.5867 404.679 25.28C404.279 25.5733 403.773 25.8533 403.159 26.12C402.546 26.3867 401.933 26.6133 401.319 26.8C400.706 26.96 400.199 27.04 399.799 27.04C399.666 27.36 399.533 27.7867 399.399 28.32C399.293 28.8533 399.239 29.4 399.239 29.96C399.239 30.6267 399.373 31.2267 399.639 31.76C399.906 32.2933 400.399 32.56 401.119 32.56C401.999 32.56 402.813 32.3067 403.559 31.8C404.333 31.2933 405.013 30.6533 405.599 29.88C406.213 29.1067 406.733 28.32 407.159 27.52C407.586 26.72 407.919 26.04 408.159 25.48C408.479 25.48 408.639 25.6 408.639 25.84C408.293 26.5867 407.893 27.4 407.439 28.28C407.013 29.16 406.493 29.9867 405.879 30.76C405.293 31.5067 404.573 32.1333 403.719 32.64C402.893 33.12 401.919 33.36 400.799 33.36ZM400.079 26.32C400.453 26.32 401.079 26.1867 401.959 25.92C402.839 25.6267 403.639 25.1733 404.359 24.56C405.053 23.9467 405.586 23.28 405.959 22.56C406.333 21.8133 406.519 21.1867 406.519 20.68C406.519 20.0933 406.306 19.8 405.879 19.8C405.559 19.8 405.119 20.0133 404.559 20.44C403.999 20.8667 403.306 21.5867 402.479 22.6C401.973 23.24 401.493 23.9333 401.039 24.68C400.586 25.4267 400.266 25.9733 400.079 26.32ZM421.554 17.48C420.887 17.48 420.18 17.3867 419.434 17.2C418.714 17.0133 417.98 16.8267 417.234 16.64C416.514 16.4533 415.834 16.36 415.194 16.36C414.66 16.36 414.167 16.4533 413.714 16.64C413.26 16.8 412.887 17.1333 412.594 17.64L412.474 17.84C412.394 17.9467 412.327 18 412.274 18C412.22 18 412.167 17.96 412.114 17.88C412.06 17.8 412.047 17.7067 412.074 17.6C412.367 16.8533 412.9 16.2667 413.674 15.84C414.447 15.3867 415.327 15.16 416.314 15.16C417.007 15.16 417.887 15.2533 418.954 15.44C420.047 15.6267 421.034 15.72 421.914 15.72C422.474 15.72 423.1 15.6933 423.794 15.64C424.514 15.56 425.194 15.3867 425.834 15.12C426.5 14.8267 427.007 14.36 427.354 13.72C427.62 13.72 427.754 13.8133 427.754 14C427.247 15.2 426.554 16.08 425.674 16.64C424.794 17.2 423.42 17.48 421.554 17.48ZM405.634 33.2C405.34 33.2 405.1 33.2 404.914 33.2C404.7 33.2267 404.487 33.2933 404.274 33.4C405.26 31.5067 406.194 29.6133 407.074 27.72C407.954 25.8 408.847 23.9867 409.754 22.28C410.287 21.32 410.727 20.6533 411.074 20.28C411.447 19.88 411.94 19.68 412.554 19.68C412.767 19.68 412.994 19.72 413.234 19.8C413.474 19.8533 413.714 19.88 413.954 19.88C414.114 19.88 414.234 19.8667 414.314 19.84C413.94 20.0533 413.46 20.5867 412.874 21.44C412.287 22.2667 411.687 23.2267 411.074 24.32C410.46 25.4133 409.914 26.44 409.434 27.4C409.94 26.7867 410.46 26.1733 410.994 25.56C411.554 24.9467 412.167 24.36 412.834 23.8C413.42 23.2933 414.034 22.7467 414.674 22.16C415.34 21.5467 415.994 21.0267 416.634 20.6C417.274 20.1733 417.834 19.96 418.314 19.96C418.5 19.96 418.62 19.9733 418.674 20C419.18 20.2133 419.434 20.56 419.434 21.04C419.434 21.2 419.367 21.44 419.234 21.76C418.887 22.6667 418.434 23.6 417.874 24.56C417.34 25.4933 416.834 26.44 416.354 27.4C416.754 26.92 417.247 26.3333 417.834 25.64C418.447 24.9467 419.06 24.3333 419.674 23.8C420.26 23.2667 421.007 22.7067 421.914 22.12C422.82 21.5333 423.714 21.0267 424.594 20.6C425.474 20.1733 426.18 19.96 426.714 19.96C426.9 19.96 427.034 19.9733 427.114 20C427.114 20 426.967 20.2667 426.674 20.8C426.38 21.3067 426.007 21.9867 425.554 22.84C425.127 23.6667 424.687 24.56 424.234 25.52C423.78 26.4533 423.367 27.36 422.994 28.24C422.647 29.0933 422.42 29.8133 422.314 30.4C422.234 30.7467 422.194 31.0667 422.194 31.36C422.194 31.7867 422.274 32.0667 422.434 32.2C422.594 32.3333 422.767 32.4 422.954 32.4C423.487 32.4 424.007 32.1733 424.514 31.72C425.047 31.2667 425.567 30.6933 426.074 30C426.58 29.28 427.034 28.52 427.434 27.72C427.86 26.92 428.22 26.1733 428.514 25.48C428.834 25.48 428.994 25.6 428.994 25.84C428.7 26.56 428.327 27.36 427.874 28.24C427.447 29.0933 426.954 29.9067 426.394 30.68C425.834 31.4533 425.22 32.0933 424.554 32.6C423.887 33.1067 423.167 33.36 422.394 33.36C421.834 33.36 421.3 33.1733 420.794 32.8C420.314 32.4267 420.074 31.7333 420.074 30.72C420.074 29.6267 420.327 28.5333 420.834 27.44C421.367 26.3467 421.914 25.3467 422.474 24.44C422.74 23.9867 422.874 23.6267 422.874 23.36C422.874 23.04 422.714 22.88 422.394 22.88C422.127 22.88 421.754 23.0133 421.274 23.28C420.82 23.5467 420.247 24.0133 419.554 24.68C419.127 25.08 418.62 25.64 418.034 26.36C417.474 27.0533 416.9 27.8133 416.314 28.64C415.727 29.4667 415.22 30.28 414.794 31.08C414.367 31.88 414.087 32.5867 413.954 33.2C413.554 33.2 413.234 33.04 412.994 32.72C412.754 32.3733 412.634 31.9733 412.634 31.52C412.634 31.44 412.634 31.36 412.634 31.28C412.634 31.2 412.647 31.1067 412.674 31C412.807 30.1733 413.02 29.48 413.314 28.92C413.607 28.3333 413.94 27.6533 414.314 26.88C414.5 26.5333 414.714 26.1333 414.954 25.68C415.194 25.2 415.407 24.7467 415.594 24.32C415.78 23.8667 415.874 23.4933 415.874 23.2C415.874 22.9333 415.767 22.8 415.554 22.8C415.314 22.8 414.994 22.92 414.594 23.16C414.22 23.4 413.86 23.68 413.514 24C413.167 24.2933 412.9 24.52 412.714 24.68C412.047 25.32 411.234 26.24 410.274 27.44C409.34 28.64 408.314 30.3467 407.194 32.56C407.034 32.8533 406.847 33.04 406.634 33.12C406.42 33.1733 406.087 33.2 405.634 33.2ZM436.945 28.2C436.679 28.76 436.372 29.2933 436.025 29.8C436.132 29.8267 436.252 29.84 436.385 29.84C437.025 29.84 437.705 29.52 438.425 28.88C439.172 28.2133 439.905 27.0933 440.625 25.52C441.052 24.5867 441.479 23.6667 441.905 22.76C442.359 21.8267 442.759 21 443.105 20.28C443.265 19.96 443.479 19.7467 443.745 19.64C444.012 19.5067 444.332 19.44 444.705 19.44H446.865C446.412 19.7867 446.025 20.1333 445.705 20.48C445.412 20.8 445.079 21.2533 444.705 21.84C444.359 22.4 443.879 23.24 443.265 24.36C443.025 24.8133 442.732 25.4533 442.385 26.28C442.065 27.08 441.772 27.92 441.505 28.8C441.239 29.68 441.105 30.4533 441.105 31.12C441.105 31.52 441.159 31.8533 441.265 32.12C441.399 32.3867 441.639 32.52 441.985 32.52C442.492 32.52 443.012 32.3067 443.545 31.88C444.079 31.4267 444.599 30.8533 445.105 30.16C445.612 29.44 446.079 28.6667 446.505 27.84C446.959 27.0133 447.345 26.2267 447.665 25.48C447.985 25.48 448.145 25.6 448.145 25.84C447.825 26.64 447.425 27.4933 446.945 28.4C446.492 29.28 445.959 30.1067 445.345 30.88C444.759 31.6533 444.105 32.2933 443.385 32.8C442.692 33.28 441.945 33.52 441.145 33.52C440.612 33.52 440.105 33.32 439.625 32.92C439.145 32.4933 438.905 31.84 438.905 30.96C438.905 30.4267 439.039 29.72 439.305 28.84C438.825 29.48 438.332 29.92 437.825 30.16C437.319 30.4 436.772 30.52 436.185 30.52C435.945 30.52 435.732 30.5067 435.545 30.48C434.825 31.3333 433.999 32.0533 433.065 32.64C432.132 33.2 431.105 33.48 429.985 33.48C428.892 33.48 428.105 33.1733 427.625 32.56C427.172 31.9467 426.945 31.1867 426.945 30.28C426.945 29.7467 427.012 29.2267 427.145 28.72C427.279 28.2133 427.439 27.7067 427.625 27.2C427.892 26.56 428.265 25.7867 428.745 24.88C429.225 23.9733 429.759 23.08 430.345 22.2C430.932 21.32 431.519 20.5867 432.105 20C432.692 19.4133 433.212 19.12 433.665 19.12C433.879 19.12 434.105 19.16 434.345 19.24C434.585 19.2933 434.839 19.32 435.105 19.32C435.212 19.32 435.305 19.3067 435.385 19.28C435.225 19.36 434.972 19.6133 434.625 20.04C434.279 20.44 433.879 20.9333 433.425 21.52C432.999 22.1067 432.559 22.7067 432.105 23.32C431.652 23.9333 431.252 24.48 430.905 24.96C431.359 24.48 431.959 24 432.705 23.52C433.452 23.0133 434.239 22.76 435.065 22.76C435.972 22.76 436.639 23.0133 437.065 23.52C437.492 24.0267 437.705 24.6267 437.705 25.32C437.705 25.8 437.625 26.3067 437.465 26.84C437.332 27.3467 437.159 27.8 436.945 28.2ZM433.145 28.12C433.145 27.7467 433.265 27.4533 433.505 27.24C433.745 27.0267 434.012 26.92 434.305 26.92C434.599 26.92 434.812 27 434.945 27.16C435.105 27.32 435.185 27.5067 435.185 27.72C435.185 27.8 435.185 27.8667 435.185 27.92C435.345 27.4667 435.452 27.0533 435.505 26.68C435.559 26.3067 435.585 26 435.585 25.76C435.585 25.2267 435.479 24.7867 435.265 24.44C435.052 24.0667 434.679 23.88 434.145 23.88C433.479 23.88 432.745 24.2533 431.945 25C431.145 25.7467 430.425 26.7067 429.785 27.88C429.385 28.6267 429.092 29.28 428.905 29.84C428.745 30.4 428.665 30.9333 428.665 31.44C428.665 31.8667 428.772 32.2133 428.985 32.48C429.199 32.7467 429.585 32.88 430.145 32.88C430.652 32.88 431.279 32.6133 432.025 32.08C432.799 31.5467 433.505 30.8133 434.145 29.88C433.479 29.4 433.145 28.8133 433.145 28.12ZM451.566 28.92L451.126 28.84L451.166 28.6L459.366 9.11999C459.499 8.74666 459.753 8.52 460.126 8.44C460.499 8.36 460.899 8.32 461.326 8.32H462.606L462.806 8.44L462.886 8.64C462.833 8.82666 462.619 9.29333 462.246 10.04C461.873 10.76 461.379 11.68 460.766 12.8C460.153 13.8933 459.473 15.1067 458.726 16.44C457.979 17.7467 457.219 19.0667 456.446 20.4C455.699 21.7067 454.979 22.9467 454.286 24.12C453.619 25.2933 453.046 26.3067 452.566 27.16C452.086 28.0133 451.753 28.6 451.566 28.92ZM450.006 33.8C449.499 33.8 449.113 33.6267 448.846 33.28C448.579 32.9333 448.459 32.5333 448.486 32.08C448.486 31.6 448.673 31.2133 449.046 30.92C449.419 30.6267 449.819 30.48 450.246 30.48C450.673 30.48 451.033 30.6133 451.326 30.88C451.619 31.12 451.779 31.44 451.806 31.84C451.859 32.3467 451.699 32.8 451.326 33.2C450.953 33.6 450.513 33.8 450.006 33.8Z" fill="black"/>
</svg>
