<?xml version="1.0" encoding="UTF-8"?> <svg xmlns="http://www.w3.org/2000/svg" width="223" height="9" viewBox="0 0 223 9" fill="none"><path d="M1 6.11996C3.55635 4.49997 9.89609 1.26 14.8043 1.26C20.9395 1.26 25.5409 6.11996 33.21 6.11996C40.879 6.11996 39.3452 -0.359989 48.5481 1.26C57.7509 2.87998 57.7509 9.35988 65.42 6.11996C73.089 2.88003 74.6228 1.26 82.2919 1.26C89.9609 1.26 89.9609 6.11996 96.0961 6.11996C102.231 6.11996 102.231 4.50006 109.9 2.88003C117.569 1.26 120.637 7.73999 126.772 7.73999C132.908 7.73999 137.509 4.50006 142.11 2.88003C146.712 1.26 154.381 7.73999 160.516 7.73999C166.651 7.73999 172.787 2.88003 177.388 2.88003C181.989 2.88003 188.125 9.36002 194.26 7.73999C200.395 6.11996 203.463 2.88003 209.598 2.88003C215.733 2.88003 215.331 6.11996 223 6.11996" stroke="#2D2D2D"></path></svg> 